<svg width="254" height="210" viewBox="0 0 254 210" fill="none" xmlns="http://www.w3.org/2000/svg">
<path d="M253.674 184.545H0V184.686H253.674V184.545Z" fill="#EBEBEB"/>
<path d="M225.207 192.667H194.822V192.808H225.207V192.667Z" fill="#EBEBEB"/>
<path d="M171.941 189.617H145.27V189.758H171.941V189.617Z" fill="#EBEBEB"/>
<path d="M192.076 192.6H183.781V192.741H192.076V192.6Z" fill="#EBEBEB"/>
<path d="M53.1595 189.55H28.4668V189.691H53.1595V189.55Z" fill="#EBEBEB"/>
<path d="M60.7038 189.55H55.4121V189.691H60.7038V189.55Z" fill="#EBEBEB"/>
<path d="M102.65 190.763H85.5781V190.904H102.65V190.763Z" fill="#EBEBEB"/>
<path d="M120.243 159.405H22.2786C21.5112 159.404 20.7756 159.064 20.2334 158.461C19.6912 157.857 19.3867 157.039 19.3867 156.187V3.19036C19.3934 2.34262 19.7009 1.53204 20.2423 0.934684C20.7838 0.337331 21.5155 0.00145223 22.2786 0H120.243C121.011 0 121.748 0.339096 122.291 0.942689C122.834 1.54628 123.14 2.36493 123.14 3.21854V156.187C123.14 157.04 122.834 157.859 122.291 158.462C121.748 159.066 121.011 159.405 120.243 159.405ZM22.2786 0.112734C21.5448 0.114227 20.8415 0.439134 20.3231 1.01614C19.8047 1.59314 19.5136 2.3751 19.5136 3.19036V156.187C19.5136 157.002 19.8047 157.784 20.3231 158.361C20.8415 158.938 21.5448 159.263 22.2786 159.264H120.243C120.977 159.263 121.681 158.938 122.2 158.361C122.719 157.784 123.011 157.002 123.013 156.187V3.19036C123.011 2.37458 122.719 1.59264 122.2 1.01579C121.681 0.438951 120.977 0.114224 120.243 0.112734H22.2786Z" fill="#EBEBEB"/>
<path d="M229.987 159.405H132.018C131.25 159.404 130.514 159.064 129.971 158.461C129.428 157.858 129.122 157.04 129.121 156.187V3.19036C129.129 2.3421 129.438 1.53153 129.98 0.934331C130.522 0.337134 131.255 0.00143639 132.018 0H229.987C230.749 0.00293361 231.48 0.339468 232.02 0.936662C232.561 1.53386 232.867 2.34359 232.874 3.19036V156.187C232.874 157.038 232.57 157.855 232.029 158.459C231.488 159.062 230.754 159.402 229.987 159.405ZM132.018 0.112734C131.284 0.114224 130.58 0.438951 130.061 1.01579C129.542 1.59264 129.249 2.37458 129.248 3.19036V156.187C129.249 157.002 129.542 157.784 130.061 158.361C130.58 158.938 131.284 159.263 132.018 159.264H229.987C230.721 159.263 231.425 158.938 231.944 158.361C232.464 157.784 232.756 157.002 232.757 156.187V3.19036C232.756 2.37458 232.464 1.59264 231.944 1.01579C231.425 0.438951 230.721 0.114224 229.987 0.112734H132.018Z" fill="#EBEBEB"/>
<path d="M215.278 24.1982H160.9V117.587H215.278V24.1982Z" fill="#E6E6E6"/>
<path d="M217.967 24.1982H162.158V117.587H217.967V24.1982Z" fill="#F0F0F0"/>
<path d="M215.278 117.587H160.9V119.954H216.536L215.278 117.587Z" fill="#E6E6E6"/>
<path d="M222.447 117.587H166.639L167.552 119.954H223.249L222.447 117.587Z" fill="#F0F0F0"/>
<path d="M214.203 113.404V28.3809L165.924 28.3809V113.404H214.203Z" fill="#FAFAFA"/>
<path d="M171.865 113.404L187.578 28.3809H198.009L182.296 113.404H171.865Z" fill="white"/>
<path d="M184.537 113.404L200.245 28.3809H204.314L188.601 113.404H184.537Z" fill="white"/>
<path d="M214.203 113.404V28.3809H213.726V113.404H214.203Z" fill="#E6E6E6"/>
<path d="M155.456 173.525H17.4473V184.545H155.456V173.525Z" fill="#E0E0E0"/>
<path d="M155.456 149.271H17.4473V173.525H155.456V149.271Z" fill="#F5F5F5"/>
<path d="M132.358 27.4736H17.4434V149.271H155.458L132.358 27.4736Z" fill="#F5F5F5"/>
<path d="M126.871 153.836H46.0254V162.099H126.871V153.836Z" fill="white"/>
<path d="M156.436 147.529H16.4688V151.007H156.436V147.529Z" fill="#E0E0E0"/>
<path d="M154.802 167.539H18.102C16.9476 167.539 16.0117 168.579 16.0117 169.861V177.189C16.0117 178.472 16.9476 179.511 18.102 179.511H154.802C155.957 179.511 156.892 178.472 156.892 177.189V169.861C156.892 168.579 155.957 167.539 154.802 167.539Z" fill="#EBEBEB"/>
<path d="M132.652 17.0342H17.5443C16.9503 17.0342 16.4688 17.5692 16.4688 18.2292V28.2343C16.4688 28.8942 16.9503 29.4292 17.5443 29.4292H132.652C133.246 29.4292 133.727 28.8942 133.727 28.2343V18.2292C133.727 17.5692 133.246 17.0342 132.652 17.0342Z" fill="#E0E0E0"/>
<path d="M129.866 33.3467H20.9688V66.1183H136.081L129.866 33.3467Z" fill="#E0E0E0"/>
<path d="M137.03 71.1172H20.9688V103.889H143.245L137.03 71.1172Z" fill="#E0E0E0"/>
<path d="M144.199 108.89H20.9688V141.656H150.409L144.199 108.89Z" fill="#E0E0E0"/>
<path d="M43.2916 44.5918H33.6621V66.1126H43.2916V44.5918Z" fill="#FAFAFA"/>
<path d="M29.5982 66.1182H33.6621V44.5973H29.5982L29.5982 66.1182Z" fill="#F0F0F0"/>
<path d="M53.1455 91.832H40.5176V103.883H53.1455V91.832Z" fill="#FAFAFA"/>
<path d="M35.1853 103.89H40.5176V91.8384H35.1853V103.89Z" fill="#F0F0F0"/>
<path d="M73.5459 91.832H60.918V103.883H73.5459V91.832Z" fill="#FAFAFA"/>
<path d="M55.5916 103.89H60.9238V91.8384H55.5916V103.89Z" fill="#F0F0F0"/>
<path d="M63.5713 79.7812H50.9434V91.8325H63.5713V79.7812Z" fill="#FAFAFA"/>
<path d="M45.6111 91.8389H50.9434V79.7877H45.6111V91.8389Z" fill="#F0F0F0"/>
<path d="M100.663 91.832H88.0352V103.883H100.663V91.832Z" fill="#FAFAFA"/>
<path d="M82.7029 103.89H88.0352V91.8384H82.7029V103.89Z" fill="#F0F0F0"/>
<path d="M121.063 91.832H108.436V103.883H121.063V91.832Z" fill="#FAFAFA"/>
<path d="M103.107 103.89H108.439V91.8384H103.107V103.89Z" fill="#F0F0F0"/>
<path d="M111.089 79.7812H98.4609V91.8325H111.089V79.7812Z" fill="#FAFAFA"/>
<path d="M93.1287 91.8389H98.4609V79.7877H93.1287V91.8389Z" fill="#F0F0F0"/>
<path d="M59.4654 48.165H49.8359V66.1179H59.4654V48.165Z" fill="#FAFAFA"/>
<path d="M45.7721 66.1123H49.8359V48.1595H45.7721V66.1123Z" fill="#F0F0F0"/>
<path d="M75.6471 44.5918H66.0176V66.1126H75.6471V44.5918Z" fill="#FAFAFA"/>
<path d="M61.9537 66.1182H66.0176V44.5973H61.9537V66.1182Z" fill="#F0F0F0"/>
<path d="M91.8189 48.165H82.1895V66.1179H91.8189V48.165Z" fill="#FAFAFA"/>
<path d="M78.1256 66.1123H82.1895V48.1595H78.1256V66.1123Z" fill="#F0F0F0"/>
<path d="M108.001 44.5918H98.3711V66.1126H108.001V44.5918Z" fill="#FAFAFA"/>
<path d="M94.3072 66.1182H98.3711V44.5973H94.3072V66.1182Z" fill="#F0F0F0"/>
<path d="M124.172 48.165H114.543V66.1179H124.172V48.165Z" fill="#FAFAFA"/>
<path d="M110.479 66.1123H114.543V48.1595H110.479V66.1123Z" fill="#F0F0F0"/>
<path d="M49.04 138.261C48.6646 134.986 48.0253 130.088 47.4266 126.988C46.7417 123.645 44.8899 118.927 42.0538 117.58V116.346C42.0538 116.236 42.015 116.131 41.9456 116.053C41.8763 115.975 41.7821 115.93 41.6835 115.929H39.2685C39.1693 115.93 39.0746 115.975 39.0044 116.052C38.9343 116.13 38.8943 116.236 38.893 116.346V117.546C38.338 117.783 37.8141 118.102 37.3355 118.493C32.5867 122.293 35.4989 127.315 36.8281 130.68C35.8844 132.963 35.6308 136.181 35.5902 138.537C35.5821 138.94 35.6464 139.341 35.7794 139.715C35.9123 140.09 36.1113 140.431 36.3645 140.72C36.6178 141.008 36.9203 141.237 37.2543 141.394C37.5883 141.55 37.947 141.631 38.3096 141.632H46.3409C46.7244 141.632 47.1035 141.541 47.4533 141.367C47.8031 141.192 48.1157 140.937 48.3706 140.619C48.6255 140.301 48.8169 139.926 48.9323 139.52C49.0477 139.113 49.0844 138.684 49.04 138.261ZM39.1366 130.206C38.8997 130.3 38.639 130.286 38.4116 130.167C38.1842 130.047 38.0088 129.833 37.924 129.569L36.2041 124.254C36.1191 123.992 36.1313 123.703 36.2378 123.45C36.3443 123.198 36.5365 123.002 36.7723 122.907C36.8765 122.865 36.9862 122.842 37.097 122.839C37.2921 122.842 37.4818 122.911 37.6406 123.037C37.7993 123.163 37.9195 123.34 37.9849 123.544L39.7048 128.859C39.7897 129.122 39.7776 129.411 39.6711 129.663C39.5646 129.916 39.3724 130.111 39.1366 130.206Z" fill="#FAFAFA"/>
<path d="M41.982 115.169H38.9735C38.7465 115.169 38.5625 115.373 38.5625 115.626V116.781C38.5625 117.033 38.7465 117.238 38.9735 117.238H41.982C42.209 117.238 42.393 117.033 42.393 116.781V115.626C42.393 115.373 42.209 115.169 41.982 115.169Z" fill="#F0F0F0"/>
<path d="M66.4626 138.261C66.0872 134.986 65.4784 130.088 64.8493 126.988C64.1694 123.645 62.3125 118.927 59.4815 117.58V116.346C59.4802 116.236 59.4402 116.13 59.3701 116.052C59.3 115.975 59.2052 115.93 59.1061 115.929H56.6708C56.5721 115.93 56.4779 115.975 56.4086 116.053C56.3393 116.131 56.3004 116.236 56.3004 116.346V117.546C55.7438 117.783 55.2182 118.101 54.7378 118.493C49.989 122.293 52.9012 127.315 54.2305 130.68C53.2868 132.963 53.0382 136.181 52.9976 138.537C52.9888 138.94 53.0526 139.341 53.1854 139.716C53.3181 140.091 53.517 140.433 53.7704 140.721C54.0238 141.01 54.3266 141.239 54.6609 141.395C54.9952 141.552 55.3543 141.632 55.717 141.632H63.7686C64.1517 141.631 64.5302 141.54 64.8794 141.365C65.2286 141.19 65.5406 140.935 65.7949 140.617C66.0493 140.299 66.2403 139.924 66.3553 139.518C66.4704 139.112 66.507 138.684 66.4626 138.261ZM56.5389 130.206C56.3021 130.3 56.0413 130.286 55.8139 130.167C55.5866 130.047 55.4112 129.833 55.3263 129.569L53.6064 124.254C53.5217 123.991 53.5346 123.701 53.6421 123.449C53.7496 123.196 53.943 123.001 54.1797 122.907C54.2823 122.865 54.3902 122.843 54.4994 122.839C54.6951 122.841 54.8856 122.91 55.0453 123.036C55.2049 123.162 55.326 123.339 55.3923 123.544L57.1122 128.859C57.1955 129.122 57.182 129.411 57.0747 129.664C56.9673 129.916 56.7748 130.111 56.5389 130.206Z" fill="#FAFAFA"/>
<path d="M59.3863 115.169H56.3778C56.1508 115.169 55.9668 115.373 55.9668 115.626V116.781C55.9668 117.033 56.1508 117.238 56.3778 117.238H59.3863C59.6133 117.238 59.7973 117.033 59.7973 116.781V115.626C59.7973 115.373 59.6133 115.169 59.3863 115.169Z" fill="#F0F0F0"/>
<path d="M83.8495 138.261C83.4741 134.986 82.8348 130.088 82.2362 126.988C81.5512 123.645 79.6994 118.927 76.8633 117.58V116.346C76.8633 116.235 76.8238 116.129 76.7534 116.051C76.683 115.973 76.5875 115.929 76.4879 115.929H74.0729C73.9733 115.929 73.8779 115.973 73.8074 116.051C73.737 116.129 73.6975 116.235 73.6975 116.346V117.546C73.142 117.782 72.6179 118.101 72.1399 118.493C67.3911 122.293 70.2982 127.315 71.6021 130.68C70.6635 132.963 70.4099 136.181 70.3693 138.537C70.3612 138.94 70.4255 139.341 70.5585 139.715C70.6914 140.09 70.8904 140.431 71.1436 140.72C71.3969 141.008 71.6994 141.237 72.0334 141.394C72.3674 141.55 72.7261 141.631 73.0887 141.632H81.1758C81.5569 141.627 81.9328 141.533 82.2792 141.356C82.6256 141.18 82.9347 140.924 83.1867 140.607C83.4387 140.289 83.6279 139.916 83.7421 139.512C83.8562 139.108 83.8929 138.682 83.8495 138.261ZM73.941 130.206C73.7042 130.3 73.4434 130.286 73.216 130.167C72.9887 130.047 72.8133 129.833 72.7284 129.569L71.0288 124.26C70.9455 123.997 70.959 123.707 71.0663 123.455C71.1737 123.203 71.3662 123.008 71.6021 122.913C71.7047 122.871 71.8126 122.848 71.9218 122.845C72.1177 122.846 72.3086 122.915 72.4683 123.041C72.6281 123.167 72.749 123.344 72.8147 123.549L74.5346 128.865C74.5753 128.996 74.5922 129.135 74.5843 129.274C74.5765 129.413 74.544 129.548 74.4889 129.673C74.4337 129.797 74.3569 129.909 74.2629 130C74.1689 130.092 74.0595 130.162 73.941 130.206Z" fill="#FAFAFA"/>
<path d="M76.7867 115.169H73.7781C73.5512 115.169 73.3672 115.373 73.3672 115.626V116.781C73.3672 117.033 73.5512 117.238 73.7781 117.238H76.7867C77.0137 117.238 77.1977 117.033 77.1977 116.781V115.626C77.1977 115.373 77.0137 115.169 76.7867 115.169Z" fill="#F0F0F0"/>
<path d="M101.251 138.261C100.875 134.986 100.261 130.088 99.6374 126.988C98.9525 123.645 97.1007 118.927 94.2646 117.58V116.346C94.2646 116.236 94.2257 116.131 94.1564 116.053C94.0871 115.975 93.9929 115.93 93.8942 115.929H91.4792C91.3801 115.93 91.2853 115.975 91.2152 116.052C91.1451 116.13 91.1051 116.236 91.1038 116.346V117.546C90.5488 117.783 90.0249 118.102 89.5462 118.493C84.7975 122.293 87.7096 127.315 89.0135 130.68C88.0698 132.963 87.8162 136.181 87.7756 138.537C87.7675 138.94 87.8318 139.341 87.9648 139.715C88.0977 140.09 88.2967 140.431 88.5499 140.72C88.8032 141.008 89.1057 141.237 89.4397 141.394C89.7737 141.55 90.1324 141.631 90.495 141.632H98.5517C98.9352 141.632 99.3143 141.541 99.6641 141.367C100.014 141.192 100.326 140.937 100.581 140.619C100.836 140.301 101.028 139.926 101.143 139.52C101.258 139.113 101.295 138.684 101.251 138.261ZM91.3473 130.206C91.1105 130.3 90.8497 130.286 90.6224 130.167C90.395 130.047 90.2196 129.833 90.1348 129.569L88.4149 124.254C88.3299 123.992 88.342 123.703 88.4485 123.45C88.555 123.198 88.7472 123.002 88.9831 122.907C89.0874 122.865 89.197 122.843 89.3078 122.839C89.5029 122.842 89.6926 122.911 89.8513 123.037C90.0101 123.163 90.1303 123.34 90.1956 123.544L91.9156 128.859C92.0005 129.122 91.9884 129.411 91.8819 129.663C91.7754 129.916 91.5832 130.111 91.3473 130.206Z" fill="#FAFAFA"/>
<path d="M94.1949 115.169H91.1863C90.9594 115.169 90.7754 115.373 90.7754 115.626V116.781C90.7754 117.033 90.9594 117.238 91.1863 117.238H94.1949C94.4219 117.238 94.6059 117.033 94.6059 116.781V115.626C94.6059 115.373 94.4219 115.169 94.1949 115.169Z" fill="#F0F0F0"/>
<path d="M118.653 138.261C118.278 134.986 117.669 130.088 117.04 126.988C116.36 123.645 114.503 118.927 111.672 117.58V116.346C111.672 116.291 111.662 116.237 111.643 116.186C111.625 116.136 111.597 116.09 111.562 116.051C111.527 116.012 111.486 115.981 111.44 115.96C111.395 115.939 111.346 115.929 111.297 115.929H108.887C108.787 115.929 108.692 115.973 108.621 116.051C108.551 116.129 108.511 116.235 108.511 116.346V117.546C107.955 117.783 107.429 118.101 106.949 118.493C102.2 122.293 105.112 127.315 106.416 130.68C105.472 132.963 105.224 136.181 105.183 138.537C105.174 138.94 105.238 139.341 105.371 139.716C105.503 140.091 105.702 140.433 105.956 140.721C106.209 141.01 106.512 141.239 106.846 141.395C107.181 141.552 107.54 141.632 107.902 141.632H115.954C116.338 141.632 116.717 141.541 117.066 141.367C117.416 141.192 117.729 140.937 117.984 140.619C118.239 140.301 118.43 139.926 118.545 139.52C118.661 139.113 118.697 138.684 118.653 138.261ZM108.75 130.206C108.513 130.3 108.252 130.286 108.025 130.167C107.797 130.047 107.622 129.833 107.537 129.569L105.817 124.254C105.733 123.991 105.745 123.701 105.853 123.449C105.96 123.196 106.154 123.001 106.39 122.907C106.493 122.865 106.601 122.843 106.71 122.839C106.906 122.841 107.096 122.91 107.256 123.036C107.416 123.162 107.537 123.339 107.603 123.544L109.323 128.859C109.408 129.122 109.395 129.412 109.287 129.665C109.18 129.917 108.986 130.112 108.75 130.206Z" fill="#FAFAFA"/>
<path d="M111.597 115.169H108.589C108.362 115.169 108.178 115.373 108.178 115.626V116.781C108.178 117.033 108.362 117.238 108.589 117.238H111.597C111.824 117.238 112.008 117.033 112.008 116.781V115.626C112.008 115.373 111.824 115.169 111.597 115.169Z" fill="#F0F0F0"/>
<path d="M136.059 138.261C135.684 134.986 135.07 130.088 134.446 126.988C133.761 123.645 131.909 118.927 129.073 117.58V116.346C129.073 116.235 129.034 116.129 128.963 116.051C128.893 115.973 128.797 115.929 128.698 115.929H126.288C126.188 115.929 126.093 115.973 126.022 116.051C125.952 116.129 125.912 116.235 125.912 116.346V117.546C125.357 117.782 124.833 118.101 124.355 118.493C119.606 122.293 122.513 127.315 123.817 130.68C122.878 132.963 122.625 136.181 122.584 138.537C122.576 138.94 122.64 139.341 122.773 139.715C122.906 140.09 123.105 140.431 123.358 140.72C123.612 141.008 123.914 141.237 124.248 141.394C124.582 141.55 124.941 141.631 125.304 141.632H133.36C133.743 141.631 134.122 141.54 134.472 141.365C134.821 141.19 135.133 140.935 135.388 140.617C135.643 140.299 135.834 139.925 135.95 139.519C136.066 139.113 136.103 138.684 136.059 138.261ZM126.151 130.206C125.914 130.3 125.653 130.286 125.426 130.167C125.198 130.047 125.023 129.833 124.938 129.569L123.218 124.254C123.135 123.991 123.148 123.702 123.256 123.45C123.363 123.197 123.556 123.002 123.792 122.907C123.894 122.865 124.002 122.843 124.111 122.839C124.307 122.841 124.498 122.909 124.658 123.035C124.818 123.161 124.939 123.339 125.004 123.544L126.724 128.859C126.809 129.122 126.796 129.412 126.688 129.665C126.581 129.917 126.388 130.112 126.151 130.206Z" fill="#FAFAFA"/>
<path d="M129 115.169H125.991C125.764 115.169 125.58 115.373 125.58 115.626V116.781C125.58 117.033 125.764 117.238 125.991 117.238H129C129.227 117.238 129.411 117.033 129.411 116.781V115.626C129.411 115.373 129.227 115.169 129 115.169Z" fill="#F0F0F0"/>
<path d="M126.837 210.001C181.165 210.001 225.207 207.144 225.207 203.62C225.207 200.096 181.165 197.239 126.837 197.239C72.5085 197.239 28.4668 200.096 28.4668 203.62C28.4668 207.144 72.5085 210.001 126.837 210.001Z" fill="#F5F5F5"/>
<path d="M157.985 33.0587C157.99 29.345 157.063 25.7032 155.308 22.5421C153.554 19.381 151.041 16.8256 148.052 15.1628C145.063 13.4999 141.716 12.7954 138.387 13.1283C135.058 13.4612 131.878 14.8182 129.204 17.0472C126.531 19.2762 124.469 22.2889 123.251 25.7473C122.032 29.2056 121.706 32.9727 122.307 36.6258C122.909 40.279 124.415 43.6736 126.656 46.4287C128.898 49.1838 131.786 51.1905 134.997 52.2234L139.999 57.7812L144.997 52.2234C148.737 51.0206 152.024 48.5023 154.366 45.0466C156.708 41.5909 157.978 37.3844 157.985 33.0587Z" fill="#FF6634"/>
<path opacity="0.6" d="M140.863 19.6885H139.133V46.0456H140.863C144.009 46.0456 147.026 44.6571 149.25 42.1857C151.475 39.7142 152.725 36.3622 152.725 32.867C152.725 29.3719 151.475 26.0198 149.25 23.5484C147.026 21.0769 144.009 19.6885 140.863 19.6885Z" fill="#FAFAFA"/>
<path d="M147.52 42.1868C152.152 37.0403 152.152 28.6961 147.52 23.5495C142.888 18.403 135.377 18.403 130.745 23.5495C126.113 28.6961 126.113 37.0403 130.745 42.1868C135.377 47.3333 142.888 47.3333 147.52 42.1868Z" fill="#FAFAFA"/>
<path opacity="0.2" d="M145.875 25.9283C144.133 24.1445 141.841 23.1746 139.473 23.2202C137.105 23.2657 134.843 24.3232 133.159 26.1729C131.474 28.0226 130.496 30.5222 130.428 33.1524C130.359 35.7826 131.205 38.3411 132.79 40.2962C131.895 39.353 131.18 38.2196 130.687 36.9632C130.194 35.7068 129.933 34.3532 129.92 32.9827C129.908 31.6122 130.143 30.2528 130.613 28.9854C131.082 27.718 131.776 26.5684 132.654 25.605C133.531 24.6415 134.574 23.8839 135.72 23.3771C136.866 22.8703 138.092 22.6247 139.326 22.6548C140.559 22.685 141.774 22.9903 142.899 23.5527C144.024 24.115 145.036 24.9229 145.875 25.9283Z" fill="#FF6634"/>
<g opacity="0.2">
<path opacity="0.2" d="M142.649 30.1168L140.381 30.5114C140.305 30.2756 140.201 30.052 140.072 29.8462C139.942 29.6903 139.787 29.5622 139.615 29.4686V31.4302C140.504 31.6243 141.346 32.0196 142.091 32.5913C142.359 32.8486 142.572 33.1685 142.715 33.5282C142.858 33.8878 142.927 34.2782 142.918 34.6712C142.923 35.1448 142.82 35.612 142.619 36.0297C142.433 36.4273 142.176 36.7783 141.863 37.0612C141.573 37.3266 141.241 37.5293 140.884 37.6587C140.472 37.7949 140.045 37.8688 139.615 37.8785V38.2223C139.616 38.2872 139.605 38.3516 139.583 38.4117C139.561 38.4719 139.529 38.5266 139.488 38.5728C139.447 38.6189 139.398 38.6555 139.344 38.6805C139.29 38.7055 139.232 38.7184 139.174 38.7184C139.115 38.7191 139.057 38.7068 139.002 38.6822C138.948 38.6575 138.898 38.621 138.857 38.5748C138.815 38.5286 138.782 38.4736 138.76 38.4131C138.738 38.3525 138.727 38.2877 138.727 38.2223V37.8785C138.231 37.8457 137.741 37.7376 137.271 37.5572C136.916 37.4114 136.589 37.1914 136.307 36.909C136.053 36.6559 135.842 36.3542 135.683 36.0184C135.522 35.6539 135.41 35.2643 135.354 34.8629L137.819 34.5472C137.859 34.8887 137.959 35.2181 138.113 35.5167C138.274 35.7473 138.486 35.9279 138.727 36.041V33.651C138.129 33.4837 137.544 33.2631 136.977 32.9915C136.583 32.7686 136.254 32.4253 136.029 32.0019C135.805 31.5786 135.693 31.0927 135.709 30.6016C135.701 30.226 135.764 29.8529 135.894 29.5062C136.025 29.1596 136.219 28.8472 136.465 28.5893C137.097 27.9965 137.9 27.6764 138.727 27.6874V27.5127C138.727 27.4473 138.738 27.3825 138.76 27.3219C138.782 27.2614 138.815 27.2064 138.857 27.1602C138.898 27.114 138.948 27.0775 139.002 27.0529C139.057 27.0282 139.115 27.0159 139.174 27.0166C139.232 27.0166 139.29 27.0295 139.344 27.0545C139.398 27.0795 139.447 27.1161 139.488 27.1623C139.529 27.2084 139.561 27.2631 139.583 27.3233C139.605 27.3834 139.616 27.4478 139.615 27.5127V27.6874C140.361 27.6898 141.09 27.9412 141.706 28.4089C142.195 28.8333 142.53 29.4398 142.649 30.1168ZM138.727 29.4348C138.52 29.4934 138.331 29.6165 138.185 29.7899C138.083 29.9302 138.029 30.1058 138.032 30.2859C138.028 30.4747 138.082 30.6596 138.185 30.8101C138.331 30.9866 138.519 31.1136 138.727 31.1765V29.4348ZM139.615 36.1086C139.902 36.0577 140.168 35.9101 140.376 35.6858C140.531 35.507 140.616 35.2684 140.615 35.0207C140.609 34.8122 140.537 34.6127 140.412 34.457C140.188 34.22 139.914 34.0494 139.615 33.961V36.1086Z" fill="#FF6634"/>
</g>
<path d="M98.2526 50.8375C99.521 44.6654 96.761 41.1932 92.5297 39.2147C88.2984 37.2362 79.7648 38.0874 80.5411 46.3789C80.6535 47.8162 80.9971 49.2195 81.5558 50.5219C79.5822 53.6897 80.0337 58.5429 83.854 59.5406C88.1716 60.6679 98.0091 59.2305 100.942 57.4212C99.0136 57.827 97.2481 55.7302 98.2526 50.8375Z" fill="#263238"/>
<path d="M101.068 56.9309C100.501 56.9309 99.956 56.6887 99.5456 56.2545C98.9469 55.6288 98.0236 54.0393 98.5766 50.3529C99.3985 44.9191 97.3488 41.3342 92.3007 39.3275C92.2857 39.3201 92.2738 39.3067 92.2672 39.2901C92.2607 39.2734 92.2599 39.2546 92.2652 39.2374C92.2674 39.2282 92.2714 39.2196 92.2768 39.2123C92.2822 39.2049 92.289 39.1989 92.2967 39.1946C92.3043 39.1904 92.3127 39.188 92.3213 39.1876C92.3298 39.1872 92.3384 39.1888 92.3463 39.1923C97.4553 41.2046 99.5355 44.8628 98.7034 50.3754C98.1555 53.9942 99.0484 55.5499 99.6319 56.1474C99.8933 56.4244 100.215 56.6218 100.565 56.7206C100.915 56.8193 101.282 56.816 101.631 56.711C101.648 56.7077 101.665 56.7117 101.679 56.7222C101.693 56.7327 101.703 56.7489 101.707 56.7674C101.709 56.7763 101.71 56.7856 101.709 56.7948C101.708 56.8039 101.705 56.8127 101.701 56.8207C101.696 56.8286 101.691 56.8354 101.684 56.8408C101.677 56.8462 101.669 56.85 101.661 56.852C101.467 56.9033 101.268 56.9297 101.068 56.9309Z" fill="#263238"/>
<path d="M83.2396 59.1857C82.5305 59.1006 81.8609 58.7804 81.318 58.2667C80.775 57.7529 80.3839 57.0695 80.1955 56.3053C79.8954 55.2724 79.8668 54.1658 80.113 53.1154C80.3593 52.0651 80.8701 51.1146 81.5856 50.3755C81.5916 50.3696 81.5986 50.3651 81.6062 50.3621C81.6137 50.3592 81.6218 50.358 81.6298 50.3585C81.6378 50.359 81.6456 50.3613 81.6528 50.3652C81.6601 50.3691 81.6665 50.3745 81.6718 50.3812C81.6772 50.3878 81.6813 50.3956 81.6839 50.404C81.6865 50.4124 81.6876 50.4214 81.6872 50.4303C81.6867 50.4392 81.6847 50.4479 81.6812 50.4559C81.6777 50.4639 81.6728 50.4711 81.6668 50.477C80.9706 51.199 80.4739 52.1263 80.2349 53.1505C79.9959 54.1747 80.0244 55.2534 80.3172 56.2602C80.4945 56.9978 80.8685 57.6585 81.3901 58.1555C81.9117 58.6525 82.5564 58.9625 83.2396 59.0447C83.2557 59.0487 83.27 59.0587 83.2802 59.0731C83.2904 59.0875 83.2957 59.1054 83.2954 59.1237C83.2933 59.1393 83.2868 59.1538 83.2767 59.165C83.2667 59.1761 83.2536 59.1834 83.2396 59.1857Z" fill="#263238"/>
<path d="M102.535 71.1631C102.647 72.5103 102.794 73.9814 102.976 75.385C103.159 76.7885 103.342 78.2033 103.595 79.6237C104.058 82.4047 104.704 85.144 105.528 87.8195L105.863 88.789L106.015 89.2343C106.015 89.2343 106.015 89.2343 105.975 89.2343C105.876 89.1261 105.747 89.0585 105.61 89.0426C105.533 89.0426 105.635 89.0821 105.797 89.0426C106.266 88.9027 106.715 88.6922 107.132 88.4169C107.656 88.0874 108.164 87.7261 108.654 87.3347C109.668 86.5287 110.683 85.6437 111.652 84.6798C112.621 83.716 113.616 82.7408 114.554 81.76L116.239 83.3439C114.654 85.8646 112.836 88.1939 110.815 90.294C110.264 90.8399 109.684 91.3499 109.08 91.8215C108.391 92.3753 107.632 92.8122 106.827 93.1179C106.25 93.328 105.64 93.3991 105.036 93.3265C104.229 93.2137 103.488 92.7766 102.951 92.0977C102.725 91.8089 102.534 91.4886 102.383 91.1451C102.354 91.0888 102.328 91.0305 102.307 90.9704L102.251 90.8351L102.139 90.5645L101.703 89.4823C100.646 86.6135 99.8324 83.6413 99.2727 80.6045C98.9785 79.1052 98.7248 77.6002 98.532 76.0952C98.3392 74.5902 98.1769 73.0908 98.0957 71.4844L102.535 71.1631Z" fill="#FFC3BD"/>
<path d="M100.85 65.5887C102.372 66.0228 103.255 77.313 103.255 77.313L99.1653 80.0412C99.1653 80.0412 96.6945 71.6989 97.075 68.0971C97.349 65.4873 99.6929 65.2618 100.85 65.5887Z" fill="#FFC3BD"/>
<path d="M114.502 81.4444L116.851 77.3184L118.185 82.0081C118.185 82.0081 116.257 84.2627 114.512 83.6991L114.502 81.4444Z" fill="#FFC3BD"/>
<path d="M120.302 75.9541L121.225 79.9449L118.186 82.0079L116.852 77.3182L120.302 75.9541Z" fill="#FFC3BD"/>
<path d="M92.1133 198.304H96.4663L98.3182 180.543H92.3416L92.1133 198.304Z" fill="#FFC3BD"/>
<path d="M64.7773 191.777L68.9934 192.989L75.4672 176.687L69.6327 174.855L64.7773 191.777Z" fill="#FFC3BD"/>
<path d="M69.6632 192.211L65.163 190.086C65.0861 190.048 64.9993 190.042 64.9189 190.07C64.8385 190.098 64.7701 190.158 64.7267 190.238L62.6973 193.953C62.6489 194.048 62.6192 194.154 62.6103 194.263C62.6014 194.372 62.6134 194.481 62.6455 194.585C62.6776 194.688 62.7292 194.783 62.7967 194.862C62.8642 194.942 62.9462 195.005 63.0372 195.046C64.6151 195.757 65.4116 196.01 67.3903 196.946C68.6079 197.51 70.3329 198.502 72.0122 199.296C73.6915 200.091 74.4931 198.287 73.8539 197.786C71.0026 195.531 70.9011 194.285 70.2213 192.803C70.1038 192.539 69.9061 192.329 69.6632 192.211Z" fill="#263238"/>
<path d="M96.6182 197.741H91.7274C91.6427 197.74 91.5606 197.773 91.4962 197.835C91.4318 197.896 91.3896 197.981 91.3773 198.074L90.8142 202.358C90.8042 202.466 90.8149 202.576 90.8456 202.68C90.8763 202.783 90.9263 202.879 90.9923 202.959C91.0584 203.04 91.139 203.105 91.2289 203.149C91.3188 203.193 91.4161 203.215 91.5143 203.214C93.219 203.181 94.051 203.074 96.1921 203.074C97.5162 203.074 100.251 203.226 102.077 203.226C103.904 203.226 104 201.219 103.239 201.039C99.8298 200.221 98.4853 199.094 97.3387 198.023C97.1346 197.84 96.8803 197.741 96.6182 197.741Z" fill="#263238"/>
<path d="M101.124 65.5771C101.124 65.5771 103.199 66.3888 99.0439 94.7638H81.3628C81.6621 86.771 81.6722 81.8446 78.2324 65.4531C80.7062 64.8786 83.2139 64.5018 85.7361 64.3258C88.4098 64.1141 91.0937 64.1141 93.7675 64.3258C97.2124 64.6922 101.124 65.5771 101.124 65.5771Z" fill="#263238"/>
<path d="M86.5329 54.2988C87.0402 57.1679 87.5476 62.4269 85.7363 64.3377C87.9942 67.0002 90.6239 69.2404 93.5241 70.9721C96.0355 66.4628 93.7677 64.3434 93.7677 64.3434C90.8859 63.5768 90.962 61.2038 91.4592 58.9716L86.5329 54.2988Z" fill="#FFC3BD"/>
<path opacity="0.2" d="M88.5419 56.2041L91.4591 58.9717C91.3345 59.4905 91.2514 60.0206 91.2105 60.5556C90.1096 60.3752 88.5977 59.0337 88.481 57.7373C88.4207 57.2262 88.4413 56.7073 88.5419 56.2041Z" fill="black"/>
<path d="M83.8069 49.0393C84.8216 53.7065 85.1615 55.7019 87.6881 57.7029C91.4983 60.7129 96.4348 58.306 96.6935 53.4021C96.932 48.983 95.2374 42.095 90.7829 41.0353C89.8015 40.7966 88.7814 40.8405 87.8196 41.1629C86.8577 41.4853 85.986 42.0755 85.2871 42.8773C84.5882 43.6792 84.0854 44.6662 83.8263 45.7447C83.5673 46.8231 83.5606 47.9572 83.8069 49.0393Z" fill="#FFC3BD"/>
<path d="M99.0433 94.7637C99.0433 94.7637 102.478 132.016 102.189 146.762C101.895 162.105 99.1447 181.072 99.1447 181.072H91.5548C91.5548 181.072 91.8795 163.001 91.362 147.934C90.7938 131.515 86.0957 94.7637 86.0957 94.7637H99.0433Z" fill="#FF6634"/>
<path d="M90.9055 181.919H99.4645L100.094 179.467L90.5098 179.168L90.9055 181.919Z" fill="#263238"/>
<path opacity="0.2" d="M91.4188 104.037C95.7617 113.737 92.2914 131.442 90.7542 138.026C89.9678 128.133 88.6385 116.043 87.6035 107.165C88.2783 102.143 89.4148 99.5611 91.4188 104.037Z" fill="black"/>
<path d="M94.3653 94.7637C94.3653 94.7637 90.3573 133.493 87.3335 145.928C83.7465 160.69 76.4052 176.986 76.4052 176.986L68.7949 174.602C68.7949 174.602 73.0617 154.704 75.8065 146.925C81.6664 130.331 76.6538 105.597 81.3315 94.7637H94.3653Z" fill="#FF6634"/>
<path d="M68.3555 175.887L76.2498 178.317L77.6704 176.073L68.9186 172.832L68.3555 175.887Z" fill="#263238"/>
<path d="M90.9006 49.1303C90.9665 49.5136 91.1948 49.7898 91.4079 49.7447C91.621 49.6996 91.7681 49.3502 91.7072 48.9669C91.6464 48.5836 91.413 48.3074 91.1999 48.3525C90.9868 48.3976 90.8397 48.747 90.9006 49.1303Z" fill="#263238"/>
<path d="M94.8127 48.3571C94.8736 48.7461 95.1069 49.0166 95.32 48.9772C95.5331 48.9377 95.6802 48.5826 95.6194 48.1993C95.5585 47.816 95.3251 47.5398 95.112 47.5849C94.8989 47.63 94.7518 47.9738 94.8127 48.3571Z" fill="#263238"/>
<path d="M95.0098 47.6237L95.8012 47.1953C95.8012 47.1953 95.4867 48.0014 95.0098 47.6237Z" fill="#263238"/>
<path d="M93.7012 49.1807C94.1493 49.9959 94.6955 50.7393 95.3247 51.3902C95.1718 51.5648 94.9861 51.6997 94.7809 51.7854C94.5757 51.8712 94.356 51.9056 94.1375 51.8863L93.7012 49.1807Z" fill="#ED847E"/>
<path d="M92.3054 53.7017C92.5028 53.6996 92.6997 53.6788 92.8939 53.6397C92.9073 53.6376 92.9202 53.6326 92.9318 53.6249C92.9434 53.6173 92.9535 53.6071 92.9616 53.595C92.9696 53.5829 92.9754 53.5692 92.9786 53.5546C92.9818 53.54 92.9823 53.5249 92.9801 53.51C92.9752 53.4795 92.9596 53.4524 92.9369 53.4345C92.9141 53.4166 92.8859 53.4093 92.8584 53.4142C92.4304 53.5104 91.9879 53.4927 91.5673 53.3624C91.1466 53.2321 90.7598 52.9929 90.4383 52.6645C90.418 52.6447 90.3918 52.6338 90.3648 52.6338C90.3377 52.6338 90.3115 52.6447 90.2912 52.6645C90.2723 52.6865 90.2617 52.7158 90.2617 52.7463C90.2617 52.7767 90.2723 52.806 90.2912 52.828C90.8351 53.3986 91.5574 53.7119 92.3054 53.7017Z" fill="#263238"/>
<path d="M88.8661 40.122C91.5702 40.9055 93.1227 41.3226 94.0004 42.1907C96.5372 44.6934 87.1461 45.009 87.4303 45.4205C88.8102 51.1135 85.3704 55.403 83.3715 50.6739C81.3725 45.9447 79.957 43.6618 83.204 41.7116C86.4511 39.7613 88.8661 40.122 88.8661 40.122Z" fill="#263238"/>
<path d="M83.6303 52.5516C83.7895 52.9758 84.0225 53.3609 84.3158 53.6849C84.6092 54.0089 84.9573 54.2655 85.34 54.4399C86.3547 54.9021 86.999 53.91 86.8164 52.7489C86.6541 51.7174 85.9184 50.2349 84.8377 50.2631C84.5999 50.2729 84.3681 50.3491 84.1638 50.4848C83.9595 50.6205 83.7893 50.8112 83.669 51.0393C83.5486 51.2675 83.4819 51.5256 83.4752 51.7899C83.4684 52.0543 83.5217 52.3162 83.6303 52.5516Z" fill="#FFC3BD"/>
<path d="M89.3893 46.5589C89.4179 46.5597 89.4464 46.5535 89.4727 46.5409C89.4989 46.5282 89.5224 46.5094 89.5415 46.4856C89.7132 46.2714 89.9285 46.1059 90.1694 46.003C90.4103 45.9 90.67 45.8626 90.9266 45.8938C90.9809 45.9038 91.0367 45.89 91.0821 45.8553C91.1275 45.8206 91.159 45.7677 91.1701 45.7078C91.179 45.6481 91.1664 45.5868 91.1351 45.5373C91.1038 45.4878 91.0563 45.4539 91.0027 45.4429C90.6778 45.3982 90.348 45.4415 90.0415 45.5691C89.7349 45.6967 89.4607 45.9048 89.2422 46.1756C89.223 46.1966 89.2078 46.2216 89.1974 46.2492C89.187 46.2768 89.1816 46.3064 89.1816 46.3363C89.1816 46.3662 89.187 46.3958 89.1974 46.4233C89.2078 46.4509 89.223 46.4759 89.2422 46.4969C89.2826 46.5372 89.335 46.5593 89.3893 46.5589Z" fill="#263238"/>
<path d="M95.7866 45.9732C95.8267 45.9722 95.8657 45.9583 95.8989 45.9332C95.9321 45.9081 95.958 45.8728 95.9736 45.8317C95.9891 45.7906 95.9936 45.7454 95.9866 45.7014C95.9795 45.6575 95.9611 45.6168 95.9337 45.5843C95.7142 45.3136 95.4389 45.1061 95.1314 44.9794C94.8239 44.8528 94.4934 44.8108 94.1681 44.8571C94.1145 44.8694 94.0673 44.9047 94.0369 44.9553C94.0065 45.006 93.9953 45.0679 94.0058 45.1277C94.0107 45.157 94.0207 45.185 94.0354 45.2099C94.05 45.2349 94.069 45.2564 94.0911 45.2732C94.1133 45.2899 94.1383 45.3017 94.1646 45.3077C94.1908 45.3136 94.2179 45.3138 94.2442 45.3081C94.5023 45.2783 94.763 45.3163 95.0054 45.4191C95.2478 45.5219 95.465 45.6866 95.6395 45.8999C95.6584 45.9224 95.6811 45.9405 95.7064 45.9531C95.7316 45.9656 95.7589 45.9725 95.7866 45.9732Z" fill="#263238"/>
<path d="M80.4404 72.4771C79.5627 75.0248 78.7205 77.7023 77.9797 80.3346C77.2313 82.9306 76.6514 85.5829 76.2446 88.271C76.1888 88.6036 76.1634 88.9192 76.133 89.2405L76.0873 89.7197V89.9282C76.1379 90.3025 76.2607 90.6601 76.4475 90.9766C77.0493 92.0643 77.7479 93.0822 78.5327 94.0148C80.1613 96.0327 82.0385 97.9605 83.8904 99.8657L82.6118 101.855C80.3024 100.376 78.1231 98.6583 76.1025 96.726C75.0107 95.7035 74.0345 94.5376 73.1954 93.2538C72.6227 92.4056 72.2448 91.415 72.0945 90.3679C72.0805 90.1803 72.0805 89.9918 72.0945 89.8042C72.0945 89.6858 72.0945 89.6802 72.0945 89.6182V89.4716V88.908C72.0945 88.5134 72.13 88.1245 72.1706 87.7468C72.4546 84.7681 72.9845 81.8246 73.7535 78.9536C74.4671 76.12 75.3277 73.3345 76.3308 70.6113L80.4404 72.4771Z" fill="#FFC3BD"/>
<path d="M78.2472 65.4364C76.5172 66.2255 74.3457 76.7717 74.3457 76.7717L78.0341 80.1537C78.0341 80.1537 81.5044 72.2906 81.6566 68.6662C81.7733 65.9493 79.7845 64.743 78.2472 65.4364Z" fill="#FFC3BD"/>
<path d="M71.6464 193.734C71.7269 193.69 71.7972 193.625 71.8517 193.546C71.9063 193.467 71.9437 193.375 71.961 193.277C71.9805 193.211 71.9838 193.141 71.9704 193.074C71.957 193.006 71.9275 192.944 71.8849 192.894C71.5094 192.437 69.9569 192.736 69.7844 192.77C69.7641 192.775 69.7454 192.786 69.7302 192.802C69.7151 192.818 69.704 192.838 69.6982 192.86C69.6957 192.882 69.6982 192.904 69.7052 192.925C69.7123 192.945 69.7238 192.964 69.7388 192.978C70.2055 193.356 71.068 193.965 71.5906 193.762L71.6464 193.734ZM70.0635 192.956C70.6875 192.854 71.5348 192.809 71.7327 193.046C71.7514 193.069 71.7641 193.098 71.7694 193.129C71.7748 193.159 71.7726 193.191 71.7631 193.221C71.7511 193.294 71.7224 193.362 71.6798 193.419C71.6371 193.477 71.582 193.521 71.5196 193.548C71.2405 193.66 70.7027 193.435 70.0635 192.956Z" fill="#FF6634"/>
<path d="M70.521 192.742C70.9726 192.499 71.4342 192.122 71.5002 191.778C71.5174 191.688 71.506 191.595 71.4681 191.514C71.4301 191.432 71.368 191.368 71.2922 191.333C71.2238 191.288 71.1476 191.261 71.0688 191.252C70.9901 191.243 70.9105 191.253 70.8356 191.282C70.242 191.507 69.7448 192.787 69.7245 192.838C69.7156 192.856 69.7109 192.876 69.7109 192.897C69.7109 192.917 69.7156 192.938 69.7245 192.956C69.7365 192.971 69.7514 192.983 69.7681 192.991C69.7848 192.998 69.8028 193.002 69.8209 193.001C70.0647 192.954 70.3008 192.867 70.521 192.742ZM70.8406 191.53L70.9015 191.502C70.9486 191.482 70.999 191.475 71.049 191.48C71.099 191.485 71.1474 191.502 71.1907 191.53C71.3074 191.603 71.3074 191.676 71.2973 191.733C71.2364 192.065 70.5058 192.567 69.9984 192.725C70.174 192.252 70.4593 191.84 70.8254 191.53H70.8406Z" fill="#FF6634"/>
<path d="M98.2514 198.587C98.6229 198.624 98.9948 198.521 99.3067 198.294C99.3764 198.223 99.4296 198.135 99.4614 198.037C99.4933 197.939 99.5029 197.833 99.4894 197.73C99.4871 197.667 99.47 197.605 99.4397 197.552C99.4094 197.499 99.3671 197.455 99.3169 197.425C98.8095 197.099 97.049 198.085 96.8511 198.198C96.8326 198.209 96.8176 198.227 96.8077 198.248C96.7978 198.269 96.7935 198.292 96.7953 198.316C96.8004 198.339 96.8111 198.361 96.8263 198.377C96.8415 198.394 96.8607 198.406 96.8816 198.412C97.3325 198.516 97.791 198.575 98.2514 198.587ZM99.0277 197.589C99.0922 197.585 99.1566 197.599 99.2154 197.628C99.236 197.64 99.2534 197.658 99.2659 197.68C99.2784 197.702 99.2855 197.727 99.2864 197.752C99.2956 197.819 99.2898 197.888 99.2695 197.952C99.2491 198.016 99.2149 198.073 99.1697 198.119C98.9008 198.384 98.1855 198.429 97.2215 198.254C97.7845 197.918 98.3956 197.693 99.0277 197.589Z" fill="#FF6634"/>
<path d="M96.9015 198.411C96.9147 198.416 96.9289 198.416 96.9421 198.411C97.4495 198.152 98.4642 197.109 98.4084 196.562C98.4084 196.433 98.3069 196.269 98.0177 196.241C97.9158 196.228 97.8126 196.238 97.7147 196.272C97.6168 196.306 97.5264 196.363 97.4495 196.438C96.9015 196.945 96.8001 198.242 96.795 198.298C96.7943 198.318 96.7982 198.338 96.8062 198.355C96.8141 198.373 96.826 198.388 96.8407 198.4C96.8588 198.412 96.8807 198.416 96.9015 198.411ZM97.9162 196.449H97.9771C98.1648 196.449 98.1801 196.557 98.1851 196.579C98.2308 196.912 97.5357 197.706 97.0081 198.084C97.0484 197.536 97.2417 197.016 97.5611 196.596C97.6588 196.5 97.786 196.45 97.9162 196.455V196.449Z" fill="#FF6634"/>
<path d="M81.0994 93.6139L80.6682 95.3725C80.6073 95.5078 80.7544 95.6487 80.9574 95.6487H99.1509C99.3082 95.6487 99.4401 95.5585 99.4502 95.4458L99.6126 93.6928C99.6126 93.5688 99.4858 93.4673 99.3082 93.4673H81.3886C81.3331 93.4616 81.2772 93.4721 81.2265 93.4978C81.1757 93.5236 81.1319 93.5636 81.0994 93.6139Z" fill="#FF6634"/>
<path opacity="0.8" d="M81.0994 93.6139L80.6682 95.3725C80.6073 95.5078 80.7544 95.6487 80.9574 95.6487H99.1509C99.3082 95.6487 99.4401 95.5585 99.4502 95.4458L99.6126 93.6928C99.6126 93.5688 99.4858 93.4673 99.3082 93.4673H81.3886C81.3331 93.4616 81.2772 93.4721 81.2265 93.4978C81.1757 93.5236 81.1319 93.5636 81.0994 93.6139Z" fill="white"/>
<path d="M83.5028 95.8231H83.0259C82.9295 95.8231 82.8585 95.7723 82.8635 95.7047L83.0868 93.4219C83.0868 93.3542 83.1781 93.2979 83.2745 93.2979H83.7514C83.8478 93.2979 83.9188 93.3542 83.9137 93.4219L83.6905 95.7047C83.6804 95.7836 83.5992 95.8231 83.5028 95.8231Z" fill="#FF6634"/>
<path d="M97.7801 95.8231H97.3032C97.2068 95.8231 97.1358 95.7723 97.1409 95.7047L97.3641 93.4219C97.3641 93.3542 97.4554 93.2979 97.5518 93.2979H98.0338C98.1251 93.2979 98.2012 93.3542 98.1911 93.4219L97.9679 95.7047C97.9628 95.7836 97.8765 95.8231 97.7801 95.8231Z" fill="#FF6634"/>
<path d="M90.6415 95.8231H90.1646C90.0682 95.8231 89.9971 95.7723 90.0022 95.7047L90.2254 93.4219C90.2254 93.3542 90.3168 93.2979 90.4132 93.2979H90.8901C90.9865 93.2979 91.0626 93.3542 91.0524 93.4219L90.8292 95.7047C90.814 95.7836 90.7379 95.8231 90.6415 95.8231Z" fill="#FF6634"/>
<path d="M82.3313 128.398L103.919 128.793L100.312 94.7643L101.326 79.472L98.876 76.7269C99.1296 67.1446 97.8613 64.7997 97.8613 64.7997L96.1261 64.4953C97.6482 66.9811 97.3945 73.8635 97.1408 76.214C93.559 75.5094 88.4499 76.214 88.4499 76.214C88.1861 69.2583 84.2694 64.1797 84.2694 64.1797L82.7474 64.4672C86.2176 68.8863 86.9127 76.6987 86.9127 76.6987L83.204 80.4246L83.7113 84.0377C82.8687 84.2818 81.9905 84.3355 81.1289 84.1955L81.2304 85.7794C82.1303 86.0012 83.0699 85.9067 83.9193 85.5089L85.1725 94.5557L82.3313 128.398Z" fill="white"/>
<path d="M83.3772 99.4316L88.0651 99.8769L84.9347 103.349C84.9347 103.349 82.2508 102.487 81.8906 100.531L83.3772 99.4316Z" fill="#FFC3BD"/>
<path d="M90.7433 102.645L87.9783 105.401L84.2695 103.079L88.0645 99.877L90.7433 102.645Z" fill="#FFC3BD"/>
<path d="M91.1035 48.3913L91.895 47.9629C91.895 47.9629 91.5804 48.7689 91.1035 48.3913Z" fill="#263238"/>
<path d="M57.918 103.039H140.139C141.117 103.039 142.055 103.471 142.747 104.239C143.439 105.008 143.827 106.05 143.827 107.137V203.642H57.918V103.039Z" fill="#FF6634"/>
<path opacity="0.3" d="M78.0191 103.039H57.918V203.642H78.0191V103.039Z" fill="black"/>
<path opacity="0.3" d="M143.827 106.134H57.918V109.228H143.827V106.134Z" fill="black"/>
<path d="M141.64 103.039H57.9277V107.221H145.405C145.405 106.112 145.008 105.048 144.302 104.264C143.596 103.48 142.639 103.039 141.64 103.039Z" fill="#263238"/>
<path d="M119.303 89.0596H106.649C104.997 89.0596 103.361 89.4212 101.835 90.1238C100.309 90.8263 98.9222 91.8561 97.7542 93.1543C96.5863 94.4524 95.66 95.9935 95.0282 97.6894C94.3964 99.3854 94.0716 101.203 94.0723 103.039H119.303V89.0596Z" fill="#FF6634"/>
<path opacity="0.5" d="M119.303 89.0596H106.649C104.997 89.0596 103.361 89.4212 101.835 90.1238C100.309 90.8263 98.9222 91.8561 97.7542 93.1543C96.5863 94.4524 95.66 95.9935 95.0282 97.6894C94.3964 99.3854 94.0716 101.203 94.0723 103.039H119.303V89.0596Z" fill="white"/>
<path d="M119.303 89.0596H133.539C133.665 89.0596 133.787 89.1154 133.876 89.2148C133.966 89.3141 134.016 89.4489 134.016 89.5894V103.039H119.303V89.0596Z" fill="#FF6634"/>
<path opacity="0.7" d="M119.303 89.0596H133.539C133.665 89.0596 133.787 89.1154 133.876 89.2148C133.966 89.3141 134.016 89.4489 134.016 89.5894V103.039H119.303V89.0596Z" fill="white"/>
<path d="M115.543 87.1826H131.271C131.713 87.1929 132.133 87.3952 132.443 87.7461C132.752 88.097 132.925 88.5686 132.925 89.0596H113.854C113.854 88.5618 114.032 88.0844 114.348 87.7324C114.665 87.3804 115.095 87.1826 115.543 87.1826Z" fill="#FF6634"/>
<path opacity="0.3" d="M115.543 87.1826C115.095 87.1826 114.665 87.3804 114.348 87.7324C114.032 88.0844 113.854 88.5618 113.854 89.0596H119.028C119.028 88.8127 119.072 88.5681 119.158 88.34C119.243 88.1119 119.368 87.9048 119.525 87.7304C119.683 87.556 119.869 87.4179 120.075 87.3239C120.28 87.2299 120.501 87.1819 120.723 87.1826H115.543Z" fill="black"/>
<path d="M136.762 75.9164L142.058 83.4442C142.263 83.736 142.643 83.7877 142.905 83.5596L146.219 80.6821C146.482 80.454 146.528 80.0324 146.323 79.7405L141.028 72.2128C140.822 71.9209 140.443 71.8692 140.18 72.0973L136.866 74.9749C136.603 75.203 136.557 75.6245 136.762 75.9164Z" fill="#FF6634"/>
<path d="M138.603 73.469L144.643 82.0537L145.754 81.0888L139.715 72.504L138.603 73.469Z" fill="#263238"/>
<path d="M137.628 75.7015L139.537 78.415L140.648 77.4501L138.739 74.7365L137.628 75.7015Z" fill="white"/>
<path d="M193.199 68.5537C193.326 68.7679 193.392 68.8806 193.473 69.0328L193.701 69.4499C193.848 69.7318 193.975 70.0136 194.107 70.2898C194.361 70.8535 194.615 71.4171 194.817 71.9808C195.243 73.1003 195.609 74.2465 195.913 75.4135C196.528 77.7184 196.931 80.0867 197.116 82.4819L197.156 82.9272C197.163 83.0173 197.163 83.1078 197.156 83.1978V83.4965C197.162 83.8885 197.142 84.2804 197.095 84.669C197.001 85.3893 196.83 86.0949 196.588 86.7715C196.146 87.983 195.555 89.1211 194.833 90.1535C193.494 92.0648 191.901 93.7392 190.109 95.1194L188.734 93.2762C190.009 91.6773 191.137 89.9422 192.103 88.0961C192.538 87.2586 192.879 86.3651 193.118 85.4356C193.215 85.0419 193.271 84.6371 193.285 84.2293C193.301 84.055 193.301 83.8794 193.285 83.7051V83.5867C193.29 83.5343 193.29 83.4814 193.285 83.4289L193.224 83.0343C192.898 80.9336 192.437 78.8615 191.844 76.834C191.55 75.825 191.19 74.8499 190.83 73.8973C190.647 73.4182 190.449 72.9503 190.246 72.4994L189.927 71.8343L189.774 71.5242L189.643 71.2762L193.199 68.5537Z" fill="#FF8B7B"/>
<path d="M188.461 95.1307L190.303 99.4428L191.779 95.8241C191.779 95.8241 190.485 92.6675 188.735 92.9606L188.461 95.1307Z" fill="#FF8B7B"/>
<path d="M193.213 99.4428L194.674 96.7823L191.757 95.7959L190.301 99.4428H193.213Z" fill="#FF8B7B"/>
<path d="M183.356 199.098C183.734 199.088 184.11 199.031 184.477 198.929C184.497 198.924 184.514 198.913 184.528 198.897C184.542 198.882 184.551 198.862 184.555 198.84C184.559 198.819 184.557 198.797 184.549 198.776C184.542 198.756 184.529 198.738 184.513 198.726C184.366 198.619 183.077 197.694 182.58 197.942C182.524 197.97 182.476 198.014 182.441 198.07C182.407 198.125 182.386 198.19 182.382 198.258C182.365 198.36 182.372 198.465 182.401 198.564C182.43 198.662 182.481 198.751 182.55 198.822C182.779 199.02 183.066 199.118 183.356 199.098ZM184.193 198.765C183.453 198.935 182.9 198.906 182.671 198.687C182.626 198.635 182.592 198.571 182.575 198.501C182.557 198.431 182.555 198.357 182.57 198.286C182.57 198.256 182.578 198.226 182.594 198.201C182.609 198.176 182.631 198.157 182.656 198.145C182.925 198.01 183.661 198.41 184.193 198.765Z" fill="#FF6634"/>
<path d="M184.458 198.93H184.509C184.524 198.919 184.537 198.904 184.545 198.886C184.554 198.869 184.559 198.849 184.559 198.829C184.559 198.772 184.559 197.414 184.088 196.957C184.032 196.899 183.965 196.856 183.892 196.83C183.819 196.805 183.742 196.798 183.667 196.811C183.586 196.81 183.508 196.841 183.446 196.898C183.384 196.954 183.342 197.033 183.327 197.121C183.23 197.656 184.001 198.671 184.407 198.93H184.458ZM183.733 197.019C183.774 197.018 183.814 197.026 183.853 197.042C183.891 197.059 183.926 197.083 183.956 197.115C184.223 197.554 184.362 198.074 184.351 198.603C183.946 198.242 183.464 197.476 183.524 197.155C183.524 197.104 183.56 197.036 183.687 197.019H183.733Z" fill="#FF6634"/>
<path d="M156.904 197.013C156.921 197.014 156.939 197.009 156.954 196.999C156.969 196.989 156.981 196.974 156.99 196.957C157.002 196.938 157.008 196.915 157.008 196.892C157.008 196.869 157.002 196.846 156.99 196.827C156.858 196.647 155.676 195.103 155.067 195.103H155.031C154.976 195.109 154.922 195.131 154.876 195.167C154.83 195.202 154.793 195.25 154.768 195.305C154.729 195.393 154.709 195.49 154.709 195.587C154.709 195.685 154.729 195.781 154.768 195.869C155.036 196.489 156.229 196.839 156.914 196.996L156.904 197.013ZM155.062 195.322C155.397 195.322 156.127 196.089 156.63 196.715C155.701 196.472 155.072 196.151 154.92 195.785C154.893 195.726 154.878 195.661 154.878 195.596C154.878 195.53 154.893 195.465 154.92 195.407C154.929 195.383 154.944 195.363 154.962 195.348C154.981 195.333 155.003 195.324 155.026 195.322H155.062Z" fill="#FF6634"/>
<path d="M156.903 197.013C156.92 197.009 156.936 197.001 156.95 196.988C156.963 196.975 156.973 196.958 156.979 196.94C156.979 196.889 157.339 195.672 157.02 194.99C156.975 194.89 156.912 194.802 156.835 194.73C156.758 194.659 156.669 194.605 156.573 194.573C156.304 194.482 156.172 194.573 156.112 194.702C155.858 195.164 156.431 196.528 156.812 196.957C156.82 196.975 156.834 196.99 156.85 197C156.866 197.01 156.884 197.015 156.903 197.013ZM156.396 194.759C156.436 194.752 156.477 194.752 156.517 194.759C156.588 194.781 156.654 194.82 156.711 194.872C156.768 194.925 156.814 194.99 156.847 195.063C156.995 195.576 156.995 196.128 156.847 196.641C156.492 196.078 156.142 195.069 156.294 194.792C156.308 194.774 156.327 194.761 156.348 194.755C156.369 194.749 156.391 194.75 156.411 194.759H156.396Z" fill="#FF6634"/>
<path d="M184.167 52.0439C183.66 54.8623 182.559 60.9555 184.325 62.8269C184.325 62.8269 183.635 65.6452 178.952 65.6452C173.797 65.6452 176.486 62.8269 176.486 62.8269C179.302 62.0829 179.226 59.7606 178.739 57.5848L184.167 52.0439Z" fill="#FF8B7B"/>
<path d="M175.544 45.4378C175.574 45.4431 175.605 45.4431 175.635 45.4378C175.659 45.4247 175.681 45.4063 175.699 45.3838C175.716 45.3613 175.73 45.3352 175.738 45.3068C175.747 45.2785 175.75 45.2486 175.748 45.2189C175.746 45.1891 175.739 45.1601 175.727 45.1335C175.588 44.8136 175.384 44.5345 175.13 44.319C174.876 44.1035 174.58 43.9577 174.265 43.8934C174.213 43.8885 174.16 43.9062 174.119 43.9428C174.077 43.9795 174.05 44.0324 174.042 44.0907C174.036 44.1497 174.052 44.2088 174.085 44.2552C174.118 44.3016 174.167 44.3316 174.22 44.3387C174.468 44.3926 174.702 44.5111 174.901 44.6845C175.1 44.8579 175.26 45.0813 175.366 45.3364C175.385 45.3693 175.412 45.396 175.443 45.4138C175.474 45.4316 175.509 45.4399 175.544 45.4378Z" fill="#263238"/>
<path d="M174.021 47.9121C173.621 48.7349 173.123 49.4935 172.539 50.1668C172.697 50.3274 172.885 50.4479 173.089 50.5199C173.293 50.592 173.509 50.6138 173.721 50.5839L174.021 47.9121Z" fill="#FF5652"/>
<path d="M174.407 47.2755C174.362 47.6532 174.149 47.935 173.925 47.9068C173.702 47.8786 173.56 47.5461 173.601 47.1684C173.641 46.7907 173.859 46.5089 174.078 46.5371C174.296 46.5653 174.448 46.8978 174.407 47.2755Z" fill="#263238"/>
<path d="M174.173 46.5703L173.387 46.1982C173.387 46.1982 173.727 46.9648 174.173 46.5703Z" fill="#263238"/>
<path d="M161.404 198.783L157.264 197.724L159.207 186.997L163.347 188.062L161.404 198.783Z" fill="#FF8B7B"/>
<path d="M189.398 198.817H185.146L185.481 187.888H189.733L189.398 198.817Z" fill="#FF8B7B"/>
<path d="M184.813 198.271H189.587C189.67 198.27 189.75 198.302 189.812 198.363C189.875 198.423 189.916 198.506 189.927 198.597L190.47 202.791C190.48 202.897 190.471 203.005 190.441 203.106C190.412 203.208 190.364 203.301 190.299 203.381C190.235 203.46 190.157 203.523 190.069 203.567C189.981 203.61 189.886 203.632 189.79 203.631C188.126 203.603 187.324 203.49 185.224 203.49C183.93 203.49 182.042 203.642 180.262 203.642C178.481 203.642 178.379 201.681 179.125 201.506C182.453 200.706 182.981 199.612 184.102 198.564C184.3 198.376 184.552 198.272 184.813 198.271Z" fill="#263238"/>
<path d="M157.349 196.512L161.758 198.547C161.834 198.58 161.897 198.643 161.934 198.724C161.972 198.805 161.981 198.898 161.961 198.986L161.012 203.096C160.985 203.198 160.939 203.293 160.877 203.374C160.814 203.456 160.737 203.521 160.651 203.567C160.564 203.613 160.469 203.638 160.373 203.64C160.277 203.642 160.182 203.622 160.093 203.58C158.571 202.842 157.866 202.402 155.928 201.506C154.731 200.942 152.214 199.956 150.565 199.195C148.917 198.434 149.505 196.585 150.256 196.737C153.604 197.425 155.192 196.968 156.593 196.478C156.84 196.39 157.108 196.402 157.349 196.512Z" fill="#263238"/>
<path opacity="0.2" d="M159.206 187.002L158.166 192.746L162.347 193.591L163.346 188.062L159.206 187.002Z" fill="black"/>
<path opacity="0.2" d="M189.735 187.888H185.483L185.311 193.524H189.562L189.735 187.888Z" fill="black"/>
<path d="M191.642 63.8982C193.408 64.3322 195.29 71.3837 195.29 71.3837L190.303 77.2853C190.303 77.2853 186.158 70.6566 187.005 68.2159C187.883 65.6794 189.557 63.3909 191.642 63.8982Z" fill="#FF6634"/>
<path opacity="0.4" d="M188.84 68.3902C187.947 67.4827 187.343 67.7533 186.932 68.4747C186.527 70.5716 188.931 74.9626 189.9 76.6254C190.347 74.6413 190.859 70.4589 188.84 68.3902Z" fill="black"/>
<path d="M169.293 64.0384C169.293 64.0384 167.263 64.8275 171.322 92.5318H188.572C188.283 84.7306 188.272 79.9169 191.616 63.8975C189.199 63.3434 186.749 62.9855 184.285 62.8265C181.675 62.6177 179.056 62.6177 176.446 62.8265C173.108 63.1703 169.293 64.0384 169.293 64.0384Z" fill="#FF6634"/>
<path d="M174.168 62.2407C174.848 61.8517 180.211 60.6568 184.209 60.8428C186.492 60.9499 187.801 61.2768 188.775 61.9025C189.749 62.5281 188.435 65.9045 187.709 66.3329C188.146 67.5955 186.583 69.2696 185.68 70.07C185.406 71.2819 181.621 72.505 179.11 70.008C177.182 68.0915 172.225 63.3454 174.168 62.2407Z" fill="#263238"/>
<path opacity="0.4" d="M169.137 74.6692C169.248 76.0163 169.395 77.5326 169.588 79.2462C171.004 77.8314 172.161 73.8068 171.734 71.4619C170.723 72.3738 169.847 73.456 169.137 74.6692Z" fill="black"/>
<path d="M170.977 70.4583C170.032 73.1064 168.965 75.6989 167.781 78.2256C167.197 79.4995 166.573 80.7565 165.894 81.9965C165.209 83.2779 164.446 84.5059 163.61 85.6716L163.281 86.1226L163.2 86.2353L163.057 86.4044C162.964 86.5185 162.864 86.6259 162.758 86.7257C162.346 87.1354 161.867 87.4547 161.348 87.667C160.472 87.9956 159.538 88.0883 158.623 87.9376C157.193 87.68 155.811 87.1599 154.534 86.3988C152.226 85.0273 150.08 83.3422 148.146 81.3821L149.455 79.4826C150.47 80.159 151.571 80.8354 152.647 81.4385C153.698 82.0555 154.784 82.5958 155.899 83.0562C156.886 83.502 157.927 83.7813 158.989 83.8848C159.321 83.9149 159.655 83.8549 159.963 83.7101C160.031 83.674 160.09 83.6198 160.135 83.5523L160.485 82.9886C161.786 80.7869 162.941 78.4829 163.94 76.0949C164.99 73.6599 165.995 71.129 166.949 68.6602L170.977 70.4583Z" fill="#FF8B7B"/>
<path d="M169.293 64.0384C167.178 64.6021 164.58 71.0505 164.58 71.0505L168.964 78.209C168.964 78.209 174.798 70.0415 174.108 67.5501C173.383 64.9516 171.855 63.3395 169.293 64.0384Z" fill="#FF6634"/>
<path d="M149.085 81.7608L145.057 81.8115L146.208 77.9561C146.208 77.9561 149.364 78.4352 150.364 80.0529L149.085 81.7608Z" fill="#FF8B7B"/>
<path d="M142.053 81.3155L142.824 77.9561H146.208L145.056 81.8115L142.053 81.3155Z" fill="#FF8B7B"/>
<path d="M185.991 47.5516C185.215 52.1567 184.976 54.1296 182.602 56.2208C179.05 59.366 174.104 57.303 173.622 52.5344C173.19 48.2392 174.53 41.4301 178.822 40.1337C179.769 39.844 180.767 39.8284 181.72 40.0884C182.674 40.3483 183.552 40.8752 184.271 41.6188C184.989 42.3624 185.525 43.2979 185.826 44.3364C186.127 45.3749 186.184 46.4818 185.991 47.5516Z" fill="#FF8B7B"/>
<path d="M177.005 47.4442C176.188 48.5997 170.41 55.9894 173.728 58.8584C184.062 57.9622 187.01 61.9417 189.877 56.2712C192.743 50.6007 193.185 40.8323 185.209 39.1752C177.234 37.518 172.86 39.581 177.005 47.4442Z" fill="#263238"/>
<path d="M175.415 47.2354C174.858 47.8938 174.552 48.7667 174.563 49.6704C174.588 50.871 175.603 51.1021 176.44 50.4652C177.196 49.9015 178.089 48.5825 177.663 47.5228C177.565 47.2959 177.418 47.1002 177.234 46.9541C177.05 46.808 176.835 46.7162 176.611 46.6875C176.386 46.6587 176.158 46.6939 175.949 46.7898C175.74 46.8856 175.556 47.0389 175.415 47.2354Z" fill="#FF8B7B"/>
<path d="M175.877 92.5322C175.877 92.5322 178.343 124.937 180.905 143.2C182.97 157.951 184.598 192.431 184.598 192.431H190.397C190.397 192.431 192.457 158.983 191.412 144.395C188.759 107.475 194.679 104.465 188.586 92.5379L175.877 92.5322Z" fill="#263238"/>
<path opacity="0.4" d="M180.697 103.349C179.186 105.896 178.101 108.726 177.496 111.702C178.003 117.17 178.567 123.218 179.196 129.035C180.809 124.187 182.575 114.368 180.697 103.349Z" fill="black"/>
<path d="M171.323 92.5318C171.323 92.5318 166.533 128.888 164.849 143.172C163.098 158.024 157.984 191.32 157.984 191.32L163.662 192.29C163.662 192.29 173.347 160.657 175.148 146.069C177.111 130.174 184.514 92.5205 184.514 92.5205L171.323 92.5318Z" fill="#263238"/>
<path d="M157.146 191.348L164.422 192.723L165.249 189.674L157.461 188.191L157.146 191.348Z" fill="#FF6634"/>
<path d="M183.808 192.56H191.19L191.576 189.686L183.768 189.393L183.808 192.56Z" fill="#FF6634"/>
<path d="M188.84 91.4048L189.616 93.124C189.677 93.2593 189.535 93.3946 189.337 93.3946H171.235C171.077 93.3946 170.951 93.31 170.94 93.1973L170.783 91.5063C170.783 91.3879 170.91 91.2865 171.077 91.2865H188.556C188.608 91.2785 188.662 91.2852 188.711 91.3058C188.761 91.3265 188.805 91.3605 188.84 91.4048Z" fill="#EBEBEB"/>
<path d="M186.493 93.5695H186.96C187.056 93.5695 187.127 93.5132 187.117 93.4512L186.899 91.1965C186.899 91.1289 186.812 91.0781 186.716 91.0781H186.249C186.158 91.0781 186.087 91.1289 186.092 91.1965L186.31 93.4512C186.32 93.5244 186.402 93.5695 186.493 93.5695Z" fill="#263238"/>
<path d="M175.148 93.5695H175.615C175.706 93.5695 175.777 93.5132 175.772 93.4512L175.554 91.1965C175.554 91.1289 175.462 91.0781 175.371 91.0781H174.904C174.808 91.0781 174.737 91.1289 174.747 91.1965L174.965 93.4512C174.97 93.5244 175.036 93.5695 175.148 93.5695Z" fill="#263238"/>
</svg>
