<svg width="247" height="228" viewBox="0 0 247 228" fill="none" xmlns="http://www.w3.org/2000/svg">
<path fill-rule="evenodd" clip-rule="evenodd" d="M126.563 5.87556C146.344 11.8525 152.537 36.5391 169.145 48.8409C185.5 60.9555 213.681 57.8636 221.898 76.492C230.037 94.9454 212.326 114.168 206.471 133.469C200.455 153.3 201.892 176.387 187.172 190.964C171.543 206.441 147.84 218.149 126.563 212.6C105.577 207.127 102.659 177.329 85.2529 164.384C68.1843 151.691 37.4133 158.651 28.2162 139.464C19.2303 120.718 40.133 101.207 45.3184 81.0731C51.0146 58.9562 43.2906 31.3846 60.0464 15.8759C76.9189 0.259236 104.561 -0.7726 126.563 5.87556Z" fill="#F1F7FA"/>
<path d="M80.8374 57.5615L78.839 61.6104L74.3711 62.2595L77.6043 65.411L76.8411 69.8609L80.8374 67.76L84.8334 69.8609L84.0702 65.411L87.3034 62.2595L82.8354 61.6104L80.8374 57.5615Z" fill="#EDEDED"/>
<path d="M84.0703 65.4112L87.3034 62.2598" stroke="#1C1C1C" stroke-width="1.96818" stroke-miterlimit="10"/>
<path d="M80.8374 57.5615L78.839 61.6104L74.3711 62.2595L77.6043 65.411L76.8411 69.8609L80.8374 67.76L84.8334 69.8609" stroke="#1C1C1C" stroke-width="1.96818" stroke-miterlimit="10"/>
<path d="M62.9937 57.5615L60.9957 61.6104L56.5273 62.2595L59.7605 65.411L58.9973 69.8609L62.9937 67.76L66.99 69.8609L66.2268 65.411L69.46 62.2595L64.9917 61.6104L62.9937 57.5615Z" fill="#FF6634"/>
<path d="M66.2266 65.4112L69.4596 62.2598" stroke="#1C1C1C" stroke-width="1.96818" stroke-miterlimit="10"/>
<path d="M62.9936 57.5615L60.9957 61.6104L56.5273 62.2595L59.7605 65.411L58.9973 69.8609L62.9936 67.76L66.99 69.8609" stroke="#1C1C1C" stroke-width="1.96818" stroke-miterlimit="10"/>
<path d="M45.1515 57.5615L43.1535 61.6104L38.6855 62.2595L41.9187 65.411L41.1551 69.8609L45.1515 67.76L49.1479 69.8609L48.3847 65.411L51.6178 62.2595L47.1499 61.6104L45.1515 57.5615Z" fill="#FF6634"/>
<path d="M48.3848 65.4112L51.6178 62.2598" stroke="#1C1C1C" stroke-width="1.96818" stroke-miterlimit="10"/>
<path d="M45.1515 57.5615L43.1535 61.6104L38.6855 62.2595L41.9187 65.411L41.1551 69.8609L45.1515 67.76L49.1478 69.8609" stroke="#1C1C1C" stroke-width="1.96818" stroke-miterlimit="10"/>
<path d="M27.3101 57.5615L25.3117 61.6104L20.8438 62.2595L24.0769 65.411L23.3137 69.8609L27.3101 67.76L31.3064 69.8609L30.5432 65.411L33.776 62.2595L29.3081 61.6104L27.3101 57.5615Z" fill="#FF6634"/>
<path d="M30.541 65.4112L33.7741 62.2598" stroke="#1C1C1C" stroke-width="1.96818" stroke-miterlimit="10"/>
<path d="M27.3101 57.5615L25.3117 61.6104L20.8438 62.2595L24.0769 65.411L23.3137 69.8609L27.3101 67.76L31.3064 69.8609" stroke="#1C1C1C" stroke-width="1.96818" stroke-miterlimit="10"/>
<path d="M9.46596 57.5615L7.46796 61.6104L3 62.2595L6.2328 65.411L5.4696 69.8609L9.46596 67.76L13.4623 69.8609L12.6991 65.411L15.9323 62.2595L11.4643 61.6104L9.46596 57.5615Z" fill="#FF6634"/>
<path d="M12.6992 65.4112L15.9323 62.2598" stroke="#1C1C1C" stroke-width="1.96818" stroke-miterlimit="10"/>
<path d="M9.46597 57.5615L7.46797 61.6104L3 62.2595L6.23281 65.411L5.46961 69.8609L9.46597 67.76L13.4623 69.8609" stroke="#1C1C1C" stroke-width="1.96818" stroke-miterlimit="10"/>
<path d="M66.8309 134.068H84.8478V126.445H103.256V117.436L116.965 105.308H137.724V70.3123H164.749V27L198.825 57.1453V114.664H216.842V140.143H224.283V133.028H237.601V147.257H57.8223V142.037L66.8309 134.068Z" fill="#E0E0E0"/>
<path d="M246.217 147.257H49.2051" stroke="#828282" stroke-width="1.96818" stroke-miterlimit="10"/>
<path d="M162.666 81.2578H160.205V79.0802H162.666V81.2578Z" fill="white"/>
<path d="M156.676 81.2578H154.214V79.0802H156.676V81.2578Z" fill="white"/>
<path d="M150.686 81.2578H148.224V79.0802H150.686V81.2578Z" fill="white"/>
<path d="M162.666 87.1289H160.205V84.9514H162.666V87.1289Z" fill="white"/>
<path d="M156.676 87.1289H154.214V84.9514H156.676V87.1289Z" fill="white"/>
<path d="M150.686 87.1289H148.224V84.9514H150.686V87.1289Z" fill="white"/>
<path d="M162.666 93H160.205V90.8224H162.666V93Z" fill="white"/>
<path d="M156.676 93H154.214V90.8224H156.676V93Z" fill="white"/>
<path d="M150.686 93H148.224V90.8224H150.686V93Z" fill="white"/>
<path d="M162.666 98.8711H160.205V96.6935H162.666V98.8711Z" fill="white"/>
<path d="M156.676 98.8711H154.214V96.6935H156.676V98.8711Z" fill="white"/>
<path d="M150.686 98.8711H148.224V96.6935H150.686V98.8711Z" fill="white"/>
<path d="M162.666 104.742H160.205V102.565H162.666V104.742Z" fill="white"/>
<path d="M156.676 104.742H154.214V102.565H156.676V104.742Z" fill="white"/>
<path d="M150.686 104.742H148.224V102.565H150.686V104.742Z" fill="white"/>
<path d="M162.666 110.613H160.205V108.436H162.666V110.613Z" fill="white"/>
<path d="M156.676 110.613H154.214V108.436H156.676V110.613Z" fill="white"/>
<path d="M150.686 110.613H148.224V108.436H150.686V110.613Z" fill="white"/>
<path d="M162.666 116.485H160.205V114.308H162.666V116.485Z" fill="white"/>
<path d="M156.676 116.485H154.214V114.308H156.676V116.485Z" fill="white"/>
<path d="M150.686 116.485H148.224V114.308H150.686V116.485Z" fill="white"/>
<path d="M162.666 122.356H160.205V120.179H162.666V122.356Z" fill="white"/>
<path d="M156.676 122.356H154.214V120.179H156.676V122.356Z" fill="white"/>
<path d="M150.686 122.356H148.224V120.179H150.686V122.356Z" fill="white"/>
<path d="M162.666 128.228H160.205V126.05H162.666V128.228Z" fill="white"/>
<path d="M156.676 128.228H154.214V126.05H156.676V128.228Z" fill="white"/>
<path d="M150.686 128.228H148.224V126.05H150.686V128.228Z" fill="white"/>
<circle cx="105.847" cy="69.4404" r="49.1952" transform="rotate(-28.5585 105.847 69.4404)" stroke="#1C1C1C" stroke-width="4"/>
<path opacity="0.5" d="M64.4056 77.4459C62.499 77.8142 60.6405 76.5674 60.4198 74.6382C59.4172 65.8764 60.9681 56.9835 64.924 49.0458C68.88 41.108 75.0466 34.5155 82.6459 30.0406C84.3192 29.0553 86.4336 29.7885 87.2875 31.5325C88.1414 33.2765 87.4095 35.3692 85.7501 36.3778C79.5325 40.157 74.4845 45.6277 71.2178 52.1824C67.9512 58.737 66.6225 66.0614 67.3485 73.3012C67.5423 75.2333 66.3122 77.0776 64.4056 77.4459Z" fill="white"/>
<rect x="129.787" y="119.146" width="9.37927" height="25.0114" transform="rotate(-28.5585 129.787 119.146)" fill="#1C1C1C"/>
<rect x="139.119" y="146.104" width="18.7585" height="7.03445" transform="rotate(-28.5585 139.119 146.104)" fill="#1C1C1C"/>
<rect x="143.977" y="155.027" width="18.7585" height="7.81606" transform="rotate(-28.5585 143.977 155.027)" fill="#1C1C1C"/>
<path d="M149.207 164.639L165.683 155.671L186.363 193.667C187.42 195.607 186.703 198.036 184.762 199.092L175.313 204.236C173.372 205.292 170.943 204.575 169.887 202.634L149.207 164.639Z" fill="#1C1C1C"/>
</svg>
