<svg width="230" height="267" viewBox="0 0 230 267" fill="none" xmlns="http://www.w3.org/2000/svg">
<path d="M230 154.501L111.71 266.724L0 159.568L111.71 53.1152L230 154.501Z" fill="black" fill-opacity="0.08"/>
<path d="M230 148.021L111.71 260.236L0.000106812 153.088L111.71 46.6274L230 148.021Z" fill="url(#paint0_linear_2_7695)"/>
<path d="M230 148.021L111.71 260.236V262.94L230 151.404V148.021Z" fill="#FCFDFD"/>
<path d="M0.00661759 153.16L111.71 260.235V262.939L0 156.007L0.00661759 153.16Z" fill="white"/>
<path opacity="0.9" d="M20.5757 147.202L20.6945 146.851L24.9163 150.85L39.0048 137.555L34.8794 133.651L34.9979 133.294L39.2613 137.298L53.3469 124.004L49.1861 120.062L49.3012 119.711L53.5839 123.778L67.6886 110.478L63.4891 106.511L63.6049 106.155L67.9259 110.253L82.0145 96.958L77.7928 92.9595L77.9112 92.6031L82.271 96.7325L96.3566 83.4379L92.0931 79.4032L92.2149 79.0517L96.5938 83.213L110.679 69.9179L106.38 65.8512L106.496 65.4954L110.92 69.6875L115.337 65.5267L115.455 65.8831L111.153 69.9498L125.239 83.2443L129.64 79.1149L129.759 79.4713L125.495 83.5061L139.584 96.7958L143.944 92.6977L144.062 93.0541L139.84 97.0575L153.926 110.352L158.247 106.285L158.366 106.642L154.163 110.609L168.287 123.841L172.57 119.806L172.689 120.162L168.524 124.098L182.613 137.392L186.873 133.394L186.992 133.745L182.87 137.655L196.955 150.949L201.177 146.977L201.295 147.333L197.211 151.205L201.295 155.078L201.177 155.435L196.955 151.431L182.87 164.726L186.992 168.63L186.873 168.986L182.632 164.951L168.543 178.246L172.708 182.187L172.589 182.538L168.309 178.471L154.221 191.771L158.424 195.738L158.305 196.095L153.984 191.997L139.898 205.291L144.12 209.29L144.001 209.646L139.642 205.517L125.556 218.811L129.82 222.846L129.698 223.203L125.319 219.037L111.234 232.331L115.533 236.398L115.414 236.754L110.996 232.562L106.576 236.722L106.457 236.366L110.76 232.299L96.6706 219.005L92.2725 223.134L92.154 222.778L96.4174 218.743L82.3285 205.453L77.9691 209.551L77.8503 209.195L82.0724 205.192L67.9868 191.897L63.6658 195.964L63.547 195.607L67.6694 191.703L53.5839 178.408L49.3016 182.443L49.1857 182.087L53.3469 178.151L39.2613 164.857L34.9979 168.855L34.8794 168.504L39.0048 164.6L24.9163 151.3L20.6945 155.272L20.5757 154.916L24.6598 151.044L20.576 147.202H20.5757ZM39.5178 137.523L53.6034 150.818L67.6886 137.523L53.6034 124.229L39.5178 137.523ZM111.195 151.143L125.281 164.438L139.366 151.143L125.281 137.848L111.192 151.143H111.195H111.195ZM125.021 137.586L110.932 124.292L96.8662 137.586L110.951 150.881L125.021 137.586ZM110.932 151.368L96.85 164.663L110.936 177.958L125.024 164.694L110.936 151.368H110.932ZM110.676 151.143L96.5905 137.848L82.5049 151.143L96.5905 164.438L110.676 151.143ZM96.3532 137.586L82.2677 124.292L68.1791 137.586L82.2677 150.881L96.3532 137.586ZM96.6097 137.329L110.695 124.035L96.6097 110.74L82.5241 124.035L96.6097 137.329ZM110.951 123.809L125.04 110.515L110.951 97.2203L96.8662 110.515L110.951 123.809ZM111.189 124.035L125.277 137.361L139.363 124.066L125.277 110.772L111.189 124.03V124.035ZM125.534 137.586L139.619 150.881L153.705 137.586L139.619 124.292L125.534 137.586ZM139.857 151.143L153.942 164.438L168.027 151.143L153.942 137.848L139.857 151.143ZM139.619 151.4L125.534 164.694L139.619 177.989L153.685 164.694L139.619 151.4ZM125.277 164.92L111.189 178.214L125.277 191.509L139.363 178.214L125.277 164.92ZM110.932 178.44L96.847 191.734L110.932 205.034L125.021 191.734L110.932 178.44ZM110.676 178.214L96.5905 164.92L82.5049 178.214L96.5905 191.509L110.676 178.214ZM96.3562 164.663L82.271 151.368L68.1824 164.663L82.2706 177.958L96.3562 164.663V164.663ZM82.0145 151.106L67.9259 137.811L53.8403 151.106L67.9259 164.406L82.0145 151.106ZM53.8566 124.004L67.9418 137.298L82.0307 124.035L67.9418 110.74L53.8566 123.998V124.004ZM68.1983 110.483L82.2677 123.778L96.3532 110.478L82.2677 97.1835L68.1983 110.478V110.483ZM82.5433 96.9634L96.6289 110.253L110.717 96.958L96.6289 83.6634L82.5433 96.958V96.9634ZM110.951 70.1434L96.8695 83.4379L110.955 96.7325L125.043 83.4379L110.955 70.1434H110.951ZM125.297 83.6948L111.208 96.9894L125.277 110.289L139.363 96.9894L125.297 83.6948ZM139.619 97.2143L125.534 110.515L139.619 123.809L153.705 110.515L139.619 97.2203V97.2149V97.2143ZM153.961 110.772L139.876 124.066L153.961 137.361L168.05 124.066L153.961 110.772ZM168.284 124.323L154.198 137.618L168.284 150.918L182.373 137.618L168.284 124.323ZM196.695 151.205L182.61 137.911L168.521 151.206L182.61 164.501L196.695 151.206L196.695 151.205ZM182.373 164.726L168.284 151.431L154.198 164.726L168.284 178.021L182.373 164.726ZM168.027 178.246L153.942 164.951L139.857 178.246L153.942 191.541L168.027 178.246V178.246ZM153.685 191.766L139.6 178.471L125.512 191.771L139.6 205.066L153.685 191.771V191.766ZM139.344 205.323L125.255 192.028L111.17 205.322L125.255 218.58L139.344 205.322V205.323ZM110.916 232.137L125.002 218.843L110.916 205.548L96.8308 218.843L110.916 232.137ZM96.5935 218.586L110.679 205.291L96.5938 191.997L82.5082 205.291L96.5938 218.586H96.5935ZM82.2518 205.034L96.3374 191.734L82.2518 178.44L68.1632 191.734L82.2518 205.034ZM67.9256 191.477L82.0145 178.183L67.9259 164.888L53.8403 178.183L67.9259 191.477H67.9256ZM53.5839 177.926L67.6694 164.631L53.5839 151.337L39.4986 164.631L53.5839 177.926ZM39.2613 164.37L53.3469 151.075L39.2613 137.78L25.1727 151.075L39.2613 164.37Z" fill="url(#paint1_radial_2_7695)"/>
<path d="M160.988 117.649L109.89 165.891C109.719 166.054 109.577 166.287 109.479 166.568C109.38 166.848 109.328 167.166 109.328 167.489C109.328 167.812 109.38 168.13 109.479 168.411C109.577 168.691 109.719 168.924 109.89 169.087L128.396 186.574C128.845 187.002 129.356 187.227 129.875 187.227C130.395 187.227 130.906 187.002 131.355 186.574L182.395 138.395C182.566 138.232 182.708 137.999 182.806 137.719C182.905 137.438 182.957 137.12 182.957 136.797C182.957 136.473 182.905 136.155 182.806 135.875C182.708 135.595 182.566 135.361 182.395 135.198L163.831 117.68C163.4 117.27 162.911 117.052 162.412 117.046C161.913 117.041 161.422 117.248 160.988 117.649Z" fill="url(#paint2_linear_2_7695)"/>
<path opacity="0.7" d="M81.5976 186.185L105.825 163.212H104.287L89.4322 149.304L105.588 133.688H137.51L153.432 118.837L156.548 115.934C158.128 114.582 159.173 114.225 161.876 114.225L224.866 143.425L180.051 192.416H81.5973C75.4618 192.385 76.6065 190.897 81.5976 186.185Z" fill="url(#paint3_linear_2_7695)"/>
<path opacity="0.8" d="M160.988 115.808L109.89 164.051C109.719 164.214 109.577 164.447 109.479 164.727C109.38 165.008 109.328 165.326 109.328 165.649C109.328 165.972 109.38 166.29 109.479 166.571C109.577 166.851 109.719 167.084 109.89 167.247L128.396 184.734C128.845 185.162 129.356 185.387 129.875 185.387C130.395 185.387 130.906 185.162 131.355 184.734L182.395 136.555C182.566 136.392 182.708 136.159 182.806 135.878C182.905 135.598 182.957 135.28 182.957 134.957C182.957 134.633 182.905 134.315 182.806 134.035C182.708 133.754 182.566 133.521 182.395 133.358L163.831 115.84C163.403 115.414 162.913 115.187 162.412 115.181C161.911 115.176 161.419 115.393 160.988 115.808Z" fill="#FDD0B2"/>
<path opacity="0.3" d="M162.014 118.999L159.074 121.777C158.955 121.871 158.955 122.164 159.074 122.259L162.055 125.099C162.095 125.146 162.144 125.171 162.193 125.171C162.242 125.171 162.291 125.146 162.331 125.099L165.312 122.29C165.428 122.196 165.428 121.903 165.312 121.808L162.369 119.031C162.273 118.874 162.132 118.874 162.017 118.999H162.014ZM157.615 123.129L154.676 125.906C154.557 126.006 154.557 126.294 154.676 126.388L157.657 129.229C157.697 129.274 157.745 129.299 157.793 129.299C157.842 129.299 157.89 129.274 157.929 129.229L160.911 126.425C160.937 126.401 160.96 126.365 160.975 126.323C160.991 126.28 160.999 126.231 160.999 126.181C160.999 126.132 160.991 126.083 160.975 126.04C160.96 125.997 160.937 125.962 160.911 125.938L157.971 123.16C157.872 123.003 157.734 123.003 157.615 123.129ZM153.256 127.295L150.316 130.072C150.197 130.166 150.197 130.455 150.316 130.554L153.294 133.395C153.335 133.442 153.383 133.467 153.432 133.467C153.482 133.467 153.53 133.442 153.57 133.395L156.551 130.586C156.667 130.486 156.667 130.198 156.551 130.104L153.608 127.326C153.512 127.169 153.374 127.169 153.256 127.295ZM148.854 131.424L145.915 134.202C145.796 134.296 145.796 134.589 145.915 134.683L148.896 137.524C148.936 137.571 148.985 137.596 149.034 137.596C149.084 137.596 149.132 137.571 149.172 137.524L152.15 134.715C152.268 134.621 152.268 134.327 152.15 134.233L149.21 131.455C149.114 131.299 148.973 131.299 148.858 131.424H148.855H148.854ZM144.277 135.653L141.337 138.43C141.219 138.525 141.219 138.813 141.337 138.912L144.318 141.753C144.359 141.799 144.407 141.825 144.456 141.825C144.506 141.825 144.554 141.799 144.594 141.753L147.575 138.944C147.691 138.844 147.691 138.556 147.575 138.462L144.633 135.684C144.537 135.554 144.396 135.554 144.28 135.653H144.277ZM139.879 139.782L136.939 142.56C136.821 142.654 136.821 142.942 136.939 143.042L139.921 145.882C139.961 145.928 140.008 145.952 140.057 145.952C140.106 145.952 140.153 145.928 140.193 145.882L143.174 143.073C143.293 142.979 143.293 142.685 143.174 142.591L140.235 139.814C140.155 139.657 139.997 139.657 139.879 139.782H139.879ZM135.756 144.205L132.817 146.982C132.698 147.077 132.698 147.365 132.817 147.465L135.795 150.305C135.835 150.352 135.883 150.377 135.933 150.377C135.982 150.377 136.03 150.352 136.071 150.305L139.052 147.496C139.167 147.397 139.167 147.108 139.052 147.009L136.109 144.231C136.013 144.105 135.852 144.105 135.756 144.205ZM131.355 148.334L128.416 151.112C128.297 151.206 128.297 151.495 128.416 151.594L131.397 154.434C131.437 154.481 131.485 154.507 131.535 154.507C131.584 154.507 131.632 154.481 131.672 154.434L134.65 151.626C134.769 151.531 134.769 151.238 134.65 151.143L131.711 148.366C131.615 148.209 131.474 148.209 131.358 148.334H131.355ZM121.886 157.468L118.946 160.246C118.827 160.34 118.827 160.628 118.946 160.728L121.927 163.563C121.967 163.608 122.015 163.633 122.064 163.633C122.112 163.633 122.16 163.608 122.2 163.563L125.181 160.759C125.208 160.735 125.23 160.7 125.246 160.657C125.261 160.614 125.269 160.566 125.269 160.516C125.269 160.466 125.261 160.417 125.246 160.374C125.23 160.331 125.208 160.296 125.181 160.272L122.241 157.495C122.142 157.338 122.004 157.338 121.886 157.469V157.468ZM117.488 161.566L114.545 164.344C114.429 164.438 114.429 164.727 114.545 164.826L117.526 167.666C117.566 167.713 117.614 167.739 117.664 167.739C117.713 167.739 117.762 167.713 117.802 167.666L120.783 164.857C120.898 164.758 120.898 164.47 120.783 164.37L117.84 161.593C117.744 161.467 117.603 161.467 117.488 161.566ZM167.242 124.035L164.302 126.813C164.184 126.907 164.184 127.195 164.302 127.295L167.284 130.135C167.324 130.182 167.372 130.207 167.422 130.207C167.471 130.207 167.519 130.182 167.559 130.135L170.537 127.326C170.656 127.232 170.656 126.938 170.537 126.844L167.598 124.067C167.502 123.91 167.36 123.91 167.245 124.035H167.242H167.242ZM162.844 128.165L159.904 130.942C159.786 131.036 159.786 131.33 159.904 131.424L162.886 134.264C162.925 134.31 162.973 134.335 163.022 134.335C163.07 134.335 163.118 134.31 163.158 134.264L166.139 131.455C166.258 131.361 166.258 131.068 166.139 130.974L163.2 128.196C163.12 128.039 162.962 128.039 162.844 128.165ZM158.484 132.33L155.545 135.108C155.518 135.13 155.495 135.165 155.48 135.207C155.464 135.249 155.456 135.297 155.456 135.346C155.456 135.396 155.464 135.444 155.48 135.486C155.495 135.528 155.518 135.562 155.545 135.585L158.522 138.425C158.563 138.472 158.611 138.497 158.66 138.497C158.71 138.497 158.758 138.472 158.798 138.425L161.78 135.622C161.895 135.522 161.895 135.234 161.78 135.134L158.837 132.357C158.741 132.2 158.603 132.2 158.484 132.326V132.331V132.33ZM154.083 136.46L151.143 139.237C151.025 139.332 151.025 139.62 151.143 139.72L154.124 142.56C154.165 142.607 154.213 142.632 154.262 142.632C154.312 142.632 154.36 142.607 154.4 142.56L157.378 139.751C157.405 139.727 157.427 139.692 157.443 139.649C157.458 139.606 157.466 139.557 157.466 139.507C157.466 139.458 157.458 139.409 157.443 139.366C157.427 139.323 157.405 139.288 157.378 139.264L154.439 136.486C154.359 136.33 154.201 136.33 154.086 136.46H154.083ZM149.505 140.683L146.566 143.461C146.447 143.555 146.447 143.849 146.566 143.943L149.547 146.783C149.587 146.83 149.635 146.856 149.685 146.856C149.734 146.856 149.782 146.83 149.823 146.783L152.804 143.98C152.919 143.88 152.919 143.592 152.804 143.493L149.861 140.715C149.765 140.589 149.624 140.589 149.508 140.684H149.505V140.683ZM145.126 144.818L142.187 147.596C142.068 147.69 142.068 147.979 142.187 148.078L145.168 150.918C145.208 150.964 145.255 150.989 145.304 150.989C145.353 150.989 145.401 150.964 145.441 150.918L148.422 148.109C148.448 148.085 148.471 148.05 148.486 148.007C148.502 147.964 148.51 147.916 148.51 147.866C148.51 147.816 148.502 147.767 148.486 147.724C148.471 147.681 148.448 147.646 148.422 147.622L145.482 144.845C145.383 144.687 145.245 144.687 145.126 144.818ZM140.985 149.236L138.045 152.013C137.926 152.107 137.926 152.401 138.045 152.496L141.023 155.336C141.064 155.383 141.112 155.408 141.161 155.408C141.211 155.408 141.259 155.383 141.299 155.336L144.28 152.527C144.396 152.432 144.396 152.144 144.28 152.045L141.337 149.267C141.241 149.11 141.1 149.11 140.985 149.236V149.236ZM136.583 153.371L133.644 156.148C133.617 156.171 133.595 156.205 133.579 156.247C133.563 156.289 133.555 156.337 133.555 156.386C133.555 156.436 133.563 156.484 133.579 156.526C133.595 156.568 133.617 156.602 133.644 156.625L136.625 159.465C136.665 159.512 136.714 159.537 136.763 159.537C136.812 159.537 136.861 159.512 136.901 159.465L139.879 156.661C139.906 156.637 139.928 156.602 139.943 156.559C139.959 156.516 139.967 156.468 139.967 156.418C139.967 156.368 139.959 156.319 139.943 156.277C139.928 156.234 139.906 156.199 139.879 156.175L136.939 153.397C136.843 153.24 136.702 153.24 136.587 153.371H136.583H136.583ZM171.246 127.714L163.908 134.621C163.789 134.715 163.789 135.008 163.908 135.103L166.889 137.943C166.929 137.99 166.978 138.015 167.027 138.015C167.076 138.015 167.125 137.99 167.165 137.943L174.541 131.005C174.66 130.91 174.66 130.617 174.541 130.523L171.601 127.745C171.505 127.614 171.367 127.614 171.249 127.714H171.246ZM162.488 136.004L159.548 138.781C159.43 138.881 159.43 139.169 159.548 139.264L162.53 142.104C162.57 142.15 162.617 142.174 162.666 142.174C162.715 142.174 162.762 142.15 162.802 142.104L165.783 139.3C165.81 139.276 165.832 139.241 165.847 139.198C165.863 139.155 165.871 139.106 165.871 139.057C165.871 139.007 165.863 138.958 165.847 138.915C165.832 138.873 165.81 138.837 165.783 138.813L162.844 136.035C162.745 135.91 162.587 135.91 162.488 136.004ZM158.09 140.139L155.15 142.916C155.032 143.01 155.032 143.299 155.15 143.398L158.128 146.238C158.169 146.285 158.217 146.31 158.266 146.31C158.316 146.31 158.364 146.285 158.404 146.238L161.385 143.429C161.501 143.33 161.501 143.042 161.385 142.943L158.442 140.165C158.346 140.039 158.205 140.039 158.09 140.139ZM153.512 144.399L150.573 147.177C150.454 147.271 150.454 147.559 150.573 147.658L153.551 150.494C153.591 150.541 153.639 150.566 153.689 150.566C153.738 150.566 153.786 150.541 153.827 150.494L156.808 147.69C156.923 147.59 156.923 147.302 156.808 147.203L153.865 144.426C153.769 144.268 153.631 144.268 153.512 144.399ZM149.111 148.523L146.171 151.301C146.144 151.324 146.122 151.359 146.106 151.402C146.091 151.445 146.082 151.494 146.082 151.544C146.082 151.594 146.091 151.643 146.106 151.686C146.122 151.729 146.144 151.764 146.171 151.788L149.153 154.628C149.193 154.675 149.241 154.7 149.291 154.7C149.34 154.7 149.388 154.675 149.428 154.628L152.406 151.819C152.525 151.72 152.525 151.431 152.406 151.337L149.467 148.56C149.387 148.403 149.23 148.403 149.114 148.528L149.111 148.523ZM144.969 152.946L142.03 155.724C141.911 155.823 141.911 156.111 142.03 156.205L145.011 159.046C145.051 159.091 145.099 159.116 145.147 159.116C145.196 159.116 145.244 159.091 145.283 159.046L148.265 156.242C148.292 156.218 148.314 156.183 148.329 156.14C148.345 156.097 148.353 156.048 148.353 155.999C148.353 155.949 148.345 155.9 148.329 155.857C148.314 155.814 148.292 155.779 148.265 155.755L145.325 152.978C145.245 152.821 145.088 152.821 144.969 152.946ZM140.587 157.049L137.648 159.826C137.532 159.921 137.532 160.209 137.648 160.309L140.629 163.144C140.669 163.191 140.717 163.216 140.767 163.216C140.816 163.216 140.864 163.191 140.904 163.144L143.886 160.34C144.001 160.241 144.001 159.953 143.886 159.853L140.943 157.076C140.847 156.95 140.706 156.95 140.59 157.049H140.587ZM175.272 131.555L172.332 134.332C172.214 134.427 172.214 134.715 172.332 134.815L175.313 137.655C175.354 137.702 175.402 137.727 175.451 137.727C175.501 137.727 175.549 137.702 175.589 137.655L178.568 134.846C178.594 134.822 178.617 134.787 178.632 134.744C178.648 134.701 178.656 134.652 178.656 134.603C178.656 134.553 178.648 134.504 178.632 134.461C178.617 134.418 178.594 134.383 178.568 134.359L175.628 131.582C175.532 131.424 175.391 131.424 175.275 131.555H175.272ZM170.874 135.653L167.934 138.43C167.816 138.525 167.816 138.813 167.934 138.912L170.912 141.753C170.953 141.799 171.001 141.825 171.05 141.825C171.1 141.825 171.148 141.799 171.188 141.753L174.169 138.944C174.285 138.844 174.285 138.556 174.169 138.462L171.226 135.684C171.13 135.554 170.992 135.554 170.874 135.653H170.874ZM166.514 139.845L163.572 142.623C163.456 142.717 163.456 143.01 163.572 143.105L166.553 145.945C166.593 145.992 166.641 146.017 166.69 146.017C166.74 146.017 166.788 145.992 166.828 145.945L169.81 143.136C169.925 143.042 169.925 142.754 169.81 142.654L166.867 139.877C166.771 139.72 166.63 139.72 166.514 139.845ZM162.113 143.943L159.173 146.721C159.055 146.815 159.055 147.108 159.173 147.203L162.155 150.043C162.195 150.09 162.243 150.115 162.292 150.115C162.342 150.115 162.39 150.09 162.43 150.043L165.408 147.234C165.527 147.14 165.527 146.852 165.408 146.752L162.469 143.975C162.373 143.849 162.232 143.849 162.116 143.943H162.113ZM157.535 148.209L154.596 150.981C154.477 151.075 154.477 151.369 154.596 151.463L157.577 154.304C157.617 154.35 157.665 154.376 157.715 154.376C157.764 154.376 157.812 154.35 157.853 154.304L160.831 151.495C160.949 151.4 160.949 151.107 160.831 151.012L157.891 148.235C157.795 148.078 157.654 148.078 157.539 148.203L157.535 148.209ZM153.134 152.333L150.197 155.11C150.079 155.21 150.079 155.498 150.197 155.592L153.179 158.433C153.219 158.479 153.266 158.503 153.315 158.503C153.364 158.503 153.411 158.479 153.451 158.433L156.433 155.629C156.548 155.529 156.548 155.241 156.433 155.142L153.493 152.364C153.413 152.207 153.256 152.207 153.137 152.333H153.134ZM148.992 156.756L146.053 159.533C145.934 159.627 145.934 159.921 146.053 160.015L149.034 162.855C149.074 162.902 149.122 162.928 149.172 162.928C149.221 162.928 149.269 162.902 149.31 162.855L152.291 160.047C152.406 159.953 152.406 159.659 152.291 159.565L149.348 156.787C149.268 156.63 149.111 156.63 148.996 156.756H148.992ZM144.614 160.89L141.674 163.662C141.555 163.757 141.555 164.051 141.674 164.145L144.655 166.985C144.695 167.031 144.743 167.055 144.792 167.055C144.84 167.055 144.888 167.031 144.928 166.985L147.909 164.176C148.028 164.082 148.028 163.794 147.909 163.694L144.969 160.917C144.87 160.76 144.732 160.76 144.614 160.885V160.891V160.89ZM131.355 166.498L128.416 169.275C128.389 169.299 128.366 169.334 128.351 169.377C128.335 169.42 128.327 169.469 128.327 169.519C128.327 169.569 128.335 169.618 128.351 169.66C128.366 169.703 128.389 169.739 128.416 169.762L131.397 172.602C131.437 172.649 131.485 172.675 131.535 172.675C131.584 172.675 131.632 172.649 131.672 172.602L134.65 169.794C134.769 169.694 134.769 169.406 134.65 169.312L131.711 166.534C131.615 166.378 131.474 166.378 131.358 166.503L131.355 166.498ZM139.523 165.89L136.583 168.667C136.465 168.761 136.465 169.05 136.583 169.149L139.565 171.989C139.605 172.036 139.653 172.061 139.702 172.061C139.752 172.061 139.8 172.036 139.84 171.989L142.819 169.18C142.937 169.081 142.937 168.793 142.819 168.699L139.879 165.921C139.783 165.764 139.642 165.764 139.526 165.89H139.523ZM135.381 170.307L132.442 173.085C132.323 173.184 132.323 173.473 132.442 173.567L135.42 176.407C135.46 176.454 135.508 176.479 135.558 176.479C135.607 176.479 135.655 176.454 135.696 176.407L138.677 173.603C138.792 173.504 138.792 173.216 138.677 173.116L135.734 170.339C135.638 170.182 135.5 170.182 135.381 170.307ZM130.999 174.442L128.06 177.219C127.941 177.314 127.941 177.602 128.06 177.701L131.041 180.542C131.081 180.589 131.129 180.614 131.179 180.614C131.228 180.614 131.276 180.589 131.317 180.542L134.298 177.733C134.414 177.633 134.414 177.345 134.298 177.246L131.355 174.468C131.259 174.311 131.118 174.311 131.003 174.442H130.999ZM127.114 162.499L124.174 165.276C124.056 165.371 124.056 165.664 124.174 165.759L127.156 168.599C127.196 168.645 127.243 168.669 127.292 168.669C127.341 168.669 127.388 168.645 127.428 168.599L130.41 165.79C130.528 165.696 130.528 165.403 130.41 165.308L127.47 162.53C127.371 162.374 127.233 162.374 127.114 162.499ZM126.187 153.24L123.248 156.017C123.13 156.111 123.13 156.4 123.248 156.499L126.226 159.339C126.266 159.386 126.315 159.411 126.364 159.411C126.413 159.411 126.462 159.386 126.502 159.339L129.483 156.53C129.598 156.436 129.598 156.143 129.483 156.049L126.54 153.271C126.444 153.14 126.306 153.14 126.187 153.24ZM131.416 158.27L128.477 161.048C128.45 161.071 128.427 161.106 128.412 161.149C128.396 161.192 128.388 161.241 128.388 161.291C128.388 161.341 128.396 161.39 128.412 161.433C128.427 161.476 128.45 161.511 128.477 161.535L131.454 164.37C131.495 164.417 131.543 164.442 131.592 164.442C131.642 164.442 131.69 164.417 131.73 164.37L134.711 161.566C134.827 161.467 134.827 161.178 134.711 161.079L131.769 158.302C131.673 158.176 131.535 158.176 131.416 158.276V158.27H131.416ZM122.713 166.602L119.773 169.375C119.658 169.469 119.658 169.762 119.773 169.856L122.754 172.697C122.795 172.744 122.843 172.769 122.892 172.769C122.942 172.769 122.99 172.744 123.03 172.697L126.011 169.888C126.127 169.794 126.127 169.505 126.011 169.406L123.068 166.628C122.992 166.503 122.831 166.503 122.716 166.597L122.713 166.602Z" fill="white"/>
<path d="M108.647 126.262L112.455 82.5996L100.796 93.6045L89.7238 143.98C89.4117 145.395 89.4191 146.947 89.7447 148.354C90.0702 149.761 90.6926 150.933 91.4996 151.657L101.799 160.953C102.615 161.698 103.536 162.081 104.47 162.064C105.404 162.047 106.319 161.629 107.124 160.854L121.014 147.722C121.289 147.461 121.518 147.087 121.677 146.636C121.837 146.185 121.92 145.674 121.92 145.154C121.92 144.633 121.837 144.122 121.677 143.671C121.518 143.221 121.289 142.846 121.014 142.586L110.518 132.587C109.156 131.33 108.429 128.814 108.643 126.262H108.647Z" fill="#F63002"/>
<path d="M108.647 124.712L112.455 81.0488L100.796 92.0537L89.7048 142.429C89.3922 143.846 89.3997 145.399 89.7259 146.807C90.0521 148.216 90.6756 149.387 91.4839 150.111L101.784 159.402C102.599 160.148 103.519 160.532 104.454 160.516C105.388 160.499 106.303 160.083 107.108 159.308L120.998 146.165C121.273 145.905 121.501 145.53 121.66 145.08C121.818 144.63 121.902 144.12 121.902 143.6C121.902 143.081 121.818 142.57 121.66 142.12C121.501 141.67 121.273 141.296 120.998 141.035L110.503 131.031C109.16 129.774 108.432 127.258 108.647 124.706V124.712H108.647Z" fill="url(#paint4_linear_2_7695)"/>
<path opacity="0.3" d="M112.436 81.0488L100.777 92.0537L89.7079 142.429C89.395 143.845 89.402 145.398 89.7276 146.806C90.0532 148.214 90.676 149.387 91.4837 150.111L92.0542 150.625L109.259 117.579L112.436 81.0548V81.0494V81.0488Z" fill="#F63002"/>
<path d="M140.725 88.1541L69.6022 155.304C68.2431 156.593 67.1368 155.241 67.1368 152.238V75.6934C67.1368 72.7272 68.2431 69.2743 69.6055 67.9797L140.724 0.797883C142.084 -0.496207 143.19 0.861154 143.19 3.85871V80.4355C143.19 83.4066 142.084 86.86 140.721 88.1492L140.724 88.1546L140.725 88.1541Z" fill="url(#paint5_linear_2_7695)"/>
<path d="M72.6216 141.91L75.0483 144.33L74.6314 138.618L72.6216 141.91Z" fill="#E4E9F7"/>
<path d="M142.187 89.5381L71.0638 156.692C69.7013 157.982 68.5953 156.624 68.5953 153.627V77.0812C68.5953 74.1101 69.7013 70.6567 71.0638 69.3675L142.187 2.21379C143.549 0.924029 144.655 2.28139 144.655 5.27894V81.8558C144.655 84.79 143.549 88.2489 142.187 89.5381Z" fill="black"/>
<path d="M143.097 80.3739C143.08 80.9564 142.978 81.5237 142.799 82.0287C142.621 82.5337 142.371 82.9618 142.071 83.2774L71.1823 150.207C70.6085 150.757 70.1564 150.306 70.1564 149.237V75.9514C70.1737 75.3689 70.2757 74.8016 70.4542 74.2966C70.6326 73.7916 70.8822 73.3635 71.1823 73.0479L142.068 6.09272C142.642 5.54761 143.094 5.99809 143.094 7.06234V80.3793L143.097 80.3739H143.097Z" fill="url(#paint6_linear_2_7695)"/>
<path opacity="0.5" d="M146.704 84.1828C146.683 84.8041 146.572 85.4084 146.38 85.9459C146.189 86.4834 145.921 86.9388 145.601 87.2745L73.0546 157.013C72.4424 157.594 71.9486 157.113 71.9486 155.98V77.502C71.9691 76.8793 72.0802 76.2735 72.2725 75.7348C72.4648 75.1961 72.7329 74.7401 73.0546 74.4044L145.62 4.66637C146.229 4.0899 146.726 4.57227 146.726 5.69926V84.1828H146.704Z" fill="url(#paint7_linear_2_7695)"/>
<path d="M107.362 120.016C107.099 119.767 107.071 119.04 107.3 118.39C107.53 117.741 107.929 117.416 108.193 117.665C108.457 117.914 108.484 118.642 108.255 119.291C108.026 119.94 107.626 120.265 107.362 120.016Z" fill="#E4E9F7"/>
<path opacity="0.5" d="M145.559 87.3406L105.944 42.8089L145.62 4.66382C146.229 4.08789 146.726 4.57027 146.726 5.69726V84.1808C146.705 84.8026 146.594 85.4072 146.401 85.9448C146.209 86.4823 145.941 86.9374 145.62 87.2725L145.559 87.3406Z" fill="url(#paint8_linear_2_7695)"/>
<path d="M104.05 172.248L88.6218 187.157C88.4507 187.32 88.3088 187.553 88.2101 187.834C88.1115 188.114 88.0595 188.432 88.0595 188.755C88.0595 189.079 88.1115 189.397 88.2101 189.677C88.3088 189.958 88.4507 190.191 88.6218 190.354L107.128 207.84C107.577 208.269 108.088 208.495 108.609 208.495C109.129 208.495 109.64 208.269 110.09 207.84L125.457 193C125.628 192.837 125.77 192.604 125.869 192.324C125.968 192.043 126.02 191.725 126.02 191.402C126.02 191.078 125.968 190.761 125.869 190.48C125.77 190.2 125.628 189.966 125.457 189.804L106.893 172.28C106.466 171.855 105.975 171.627 105.474 171.622C104.974 171.616 104.481 171.833 104.05 172.248Z" fill="url(#paint9_linear_2_7695)"/>
<path opacity="0.8" d="M104.05 170.47L88.6218 185.379C88.4507 185.542 88.3088 185.775 88.2101 186.055C88.1115 186.336 88.0595 186.654 88.0595 186.977C88.0595 187.301 88.1115 187.618 88.2101 187.899C88.3088 188.179 88.4507 188.413 88.6218 188.575L107.128 206.062C107.577 206.491 108.088 206.717 108.609 206.717C109.129 206.717 109.64 206.491 110.09 206.062L125.457 191.217C125.628 191.054 125.77 190.821 125.869 190.54C125.968 190.26 126.02 189.942 126.02 189.618C126.02 189.295 125.968 188.977 125.869 188.697C125.77 188.416 125.628 188.183 125.457 188.02L106.893 170.497C106.462 170.087 105.973 169.868 105.474 169.863C104.976 169.857 104.485 170.065 104.05 170.465V170.47Z" fill="#FDD0B2"/>
<path opacity="0.2" d="M107.031 180.024H116.995L125.457 187.994C125.628 188.157 125.77 188.39 125.869 188.67C125.968 188.951 126.02 189.269 126.02 189.592C126.02 189.916 125.968 190.234 125.869 190.514C125.77 190.794 125.628 191.028 125.457 191.191L119.716 196.74H107.051V180.024H107.031Z" fill="url(#paint10_linear_2_7695)"/>
<path d="M100.36 185.122L106.438 179.379C106.599 179.221 106.783 179.138 106.97 179.138C107.158 179.138 107.342 179.221 107.502 179.379L113.561 185.122H116.029V187.962C116.029 188.225 115.946 188.476 115.789 188.644L107.364 196.578C107.241 196.688 107.102 196.747 106.961 196.747C106.82 196.747 106.681 196.688 106.557 196.578L98.1323 188.612C97.9721 188.444 97.895 188.219 97.895 187.963V185.122H100.363H100.36Z" fill="url(#paint11_linear_2_7695)"/>
<path d="M106.438 176.476L98.1514 184.316C97.8149 184.64 97.8149 185.416 98.1514 185.704L106.576 193.67C106.699 193.783 106.838 193.843 106.98 193.843C107.121 193.843 107.26 193.783 107.384 193.67L115.808 185.736C116.145 185.411 116.145 184.635 115.808 184.347L107.522 176.507C107.357 176.353 107.172 176.268 106.982 176.263C106.793 176.257 106.605 176.331 106.438 176.476Z" fill="white"/>
<path opacity="0.2" d="M115.808 184.347C116.145 184.671 116.145 185.447 115.808 185.736L113.817 187.607H106.932V182.026H113.362L115.808 184.347Z" fill="url(#paint12_linear_2_7695)"/>
<path d="M106.932 188.545C104.23 188.545 102.04 186.752 102.04 184.541C102.04 182.33 104.23 180.538 106.932 180.538C109.634 180.538 111.824 182.33 111.824 184.541C111.824 186.752 109.634 188.545 106.932 188.545Z" fill="url(#paint13_linear_2_7695)"/>
<path d="M110.935 181.187V184.509C110.935 186.217 109.14 187.606 106.928 187.606C104.723 187.606 102.924 186.217 102.924 184.509V181.187H110.938H110.935Z" fill="#F68383"/>
<path d="M106.932 184.284C104.721 184.284 102.928 182.897 102.928 181.187C102.928 179.476 104.721 178.09 106.932 178.09C109.143 178.09 110.936 179.476 110.936 181.187C110.936 182.897 109.143 184.284 106.932 184.284Z" fill="#FFBDBD"/>
<path d="M174.483 138.395L176.416 152.365L202.558 166.179L174.483 138.395Z" fill="url(#paint14_linear_2_7695)"/>
<path d="M162.587 149.589L170.572 142.079L202.555 166.185L174.499 138.37L181.032 132.327C182.353 131.07 183.321 131.363 184.998 134.135L204.373 167.956L163.476 154.305C160.789 153.205 159.706 152.303 162.587 149.589Z" fill="#FF4400"/>
<path d="M112.26 149.268L100.283 160.566C99.8894 160.954 99.3957 162.338 99.3957 163.081V175.795C99.3957 176.827 99.7289 177.152 100.284 176.633L105.076 172.116L106.281 174.474L107.464 169.863L112.26 165.34C112.654 164.952 113.148 163.563 113.148 162.825V150.112C113.167 149.079 112.811 148.749 112.26 149.273V149.268Z" fill="#F68383"/>
<path d="M118.234 80.5668C118.234 81.3423 117.978 82.0496 117.565 82.4379L101.129 97.7025C101.078 97.7486 101.021 97.7776 100.962 97.7878C100.904 97.798 100.844 97.7892 100.788 97.7619C100.731 97.7346 100.678 97.6894 100.633 97.6289C100.587 97.5683 100.549 97.4935 100.521 97.4089C100.479 97.3148 100.459 97.1839 100.459 97.0579C100.46 96.6764 100.522 96.302 100.641 95.9732C100.759 95.6443 100.929 95.3729 101.133 95.1868L117.565 79.9222C117.669 79.8301 117.791 79.8087 117.905 79.8627C118.019 79.9166 118.116 80.0415 118.174 80.2104C118.213 80.3186 118.235 80.4408 118.238 80.5668H118.234Z" fill="#D3E0EF"/>
<path d="M108.719 90.6541L101.129 97.7026C101.078 97.7487 101.021 97.7777 100.962 97.7879C100.904 97.7981 100.844 97.7893 100.788 97.762C100.731 97.7347 100.678 97.6895 100.633 97.6289C100.587 97.5684 100.549 97.4936 100.52 97.409C100.479 97.3149 100.459 97.184 100.459 97.058C100.46 96.6765 100.522 96.3021 100.641 95.9732C100.759 95.6444 100.929 95.373 101.133 95.1869L108.563 88.2849L108.718 90.6535L108.719 90.6541Z" fill="#FD6F8D"/>
<path d="M113.453 75.2626V75.3622C113.453 76.07 113.216 76.7509 112.841 77.1024L102.265 86.9176C102.047 87.1058 101.752 86.9803 101.634 86.6239C101.595 86.5293 101.576 86.3984 101.576 86.3043C101.557 85.9421 101.603 85.5787 101.708 85.2579C101.812 84.9371 101.971 84.6725 102.166 84.496L112.783 74.618C112.888 74.5264 113.01 74.5058 113.124 74.5608C113.238 74.6157 113.334 74.7418 113.392 74.9117C113.434 75.0058 113.453 75.1372 113.453 75.2632V75.2626ZM118.238 65.5578C118.238 66.3333 117.981 67.0406 117.565 67.4289L101.129 82.6935C100.913 82.8882 100.64 82.7595 100.521 82.4053C100.479 82.3058 100.456 82.1803 100.456 82.0489C100.457 81.6675 100.519 81.2931 100.638 80.9643C100.756 80.6354 100.926 80.364 101.129 80.1778L117.565 64.9132C117.669 64.8211 117.791 64.7997 117.905 64.8536C118.019 64.9076 118.116 65.0324 118.174 65.2014C118.216 65.3074 118.238 65.4313 118.238 65.5578Z" fill="url(#paint15_linear_2_7695)"/>
<path d="M121.097 90.8276L123.03 104.799L149.172 118.602L121.097 90.8276Z" fill="url(#paint16_linear_2_7695)"/>
<path d="M109.201 102.021L117.19 94.5009L149.172 118.607L121.116 90.7911L127.646 84.7592C128.967 83.5019 129.935 83.7896 131.612 86.5622L150.986 120.383L110.089 106.732C107.406 105.631 106.319 104.73 109.201 102.021Z" fill="#FF4400"/>
<defs>
<linearGradient id="paint0_linear_2_7695" x1="57.8221" y1="-4.1516" x2="163.921" y2="288.634" gradientUnits="userSpaceOnUse">
<stop stop-color="#F6F8FA"/>
<stop offset="1" stop-color="white"/>
</linearGradient>
<radialGradient id="paint1_radial_2_7695" cx="0" cy="0" r="1" gradientUnits="userSpaceOnUse" gradientTransform="translate(189.231 65.4954) rotate(180) scale(122.876 200.792)">
<stop stop-color="#C4D6EE"/>
<stop offset="0.2384" stop-color="#CBDBF0" stop-opacity="0.9"/>
<stop offset="0.5961" stop-color="#E0E9F6" stop-opacity="0.76"/>
<stop offset="1" stop-color="white" stop-opacity="0.6"/>
</radialGradient>
<linearGradient id="paint2_linear_2_7695" x1="182.957" y1="152.137" x2="109.343" y2="152.137" gradientUnits="userSpaceOnUse">
<stop stop-color="#F63002"/>
<stop offset="0.9988" stop-color="#F98435"/>
</linearGradient>
<linearGradient id="paint3_linear_2_7695" x1="159.957" y1="153.282" x2="93.7073" y2="153.282" gradientUnits="userSpaceOnUse">
<stop stop-color="#D8DFEF" stop-opacity="0"/>
<stop offset="0.9988" stop-color="#D8DFEF"/>
</linearGradient>
<linearGradient id="paint4_linear_2_7695" x1="142.199" y1="179.437" x2="103.83" y2="170.508" gradientUnits="userSpaceOnUse">
<stop stop-color="#F98435"/>
<stop offset="0.9988" stop-color="#FDD0B2"/>
</linearGradient>
<linearGradient id="paint5_linear_2_7695" x1="55.8003" y1="54.5096" x2="121.471" y2="62.0063" gradientUnits="userSpaceOnUse">
<stop stop-opacity="0.6"/>
<stop offset="0.9988" stop-color="#F88E36"/>
</linearGradient>
<linearGradient id="paint6_linear_2_7695" x1="105.308" y1="3.60488" x2="112.107" y2="101.134" gradientUnits="userSpaceOnUse">
<stop/>
<stop offset="0.9988"/>
</linearGradient>
<linearGradient id="paint7_linear_2_7695" x1="125.797" y1="157.673" x2="63.0906" y2="87.5806" gradientUnits="userSpaceOnUse">
<stop stop-color="#F98435"/>
<stop offset="0.9988"/>
</linearGradient>
<linearGradient id="paint8_linear_2_7695" x1="142.846" y1="102.101" x2="101.959" y2="55.4355" gradientUnits="userSpaceOnUse">
<stop stop-color="#F6EFEF"/>
<stop offset="0.9988" stop-color="#F88E36" stop-opacity="0.27"/>
</linearGradient>
<linearGradient id="paint9_linear_2_7695" x1="126.008" y1="190.044" x2="88.0444" y2="190.044" gradientUnits="userSpaceOnUse">
<stop stop-color="#F98435"/>
<stop offset="0.9988" stop-color="#F63002"/>
</linearGradient>
<linearGradient id="paint10_linear_2_7695" x1="108.518" y1="187.581" x2="134.591" y2="195.953" gradientUnits="userSpaceOnUse">
<stop stop-color="#F63002"/>
<stop offset="0.9988" stop-color="#F98435"/>
</linearGradient>
<linearGradient id="paint11_linear_2_7695" x1="116.049" y1="187.965" x2="97.9059" y2="187.965" gradientUnits="userSpaceOnUse">
<stop stop-color="#F63002"/>
<stop offset="0.9988" stop-color="#F98435"/>
</linearGradient>
<linearGradient id="paint12_linear_2_7695" x1="116.046" y1="184.833" x2="106.937" y2="184.833" gradientUnits="userSpaceOnUse">
<stop stop-color="#F98435"/>
<stop offset="0.9988" stop-color="#F63002"/>
</linearGradient>
<linearGradient id="paint13_linear_2_7695" x1="113.725" y1="188.007" x2="103.607" y2="180.154" gradientUnits="userSpaceOnUse">
<stop stop-color="#F63002"/>
<stop offset="0.9988" stop-color="#F98435"/>
</linearGradient>
<linearGradient id="paint14_linear_2_7695" x1="180.808" y1="79.9105" x2="197.419" y2="258.719" gradientUnits="userSpaceOnUse">
<stop stop-color="#F63002"/>
<stop offset="1"/>
</linearGradient>
<linearGradient id="paint15_linear_2_7695" x1="100.449" y1="75.9234" x2="118.234" y2="75.9234" gradientUnits="userSpaceOnUse">
<stop stop-color="white"/>
<stop offset="1" stop-color="#F3CE00"/>
</linearGradient>
<linearGradient id="paint16_linear_2_7695" x1="120.353" y1="35.9507" x2="148.722" y2="197.723" gradientUnits="userSpaceOnUse">
<stop stop-color="#F63002"/>
<stop offset="1"/>
</linearGradient>
</defs>
</svg>
