<svg width="167" height="160" viewBox="0 0 167 160" fill="none" xmlns="http://www.w3.org/2000/svg">
<g clip-path="url(#clip0_2_7539)">
<path d="M69.6981 158.439C28.2702 152.145 -5.3982 112.854 0.721154 69.1775C5.9399 31.9327 38.493 2.94458 77.5292 0.210306C80.3563 0.0128639 83.2132 -0.0469671 86.0999 0.0367963C107.875 0.665022 127.224 9.40633 141.538 22.629C155.781 35.7858 165.037 53.3881 166.719 71.8519C171.204 120.979 121.23 166.265 69.6981 158.439Z" fill="#F4F7FA"/>
<path d="M30.8174 156.183C21.1314 154.932 8.84499 151.654 3.91253 142.404C2.74353 140.202 1.5626 135.93 4.52685 134.321C7.23463 132.849 10.7357 134.404 12.7516 136.319C14.2307 137.725 15.3878 140.872 17.0459 141.865C19.4793 143.319 20.7915 139.352 20.7378 137.713C20.6245 134.051 16.1333 132.55 13.1512 131.754C8.19488 130.432 2.42742 129.301 2.73756 123.701C3.04771 118.1 8.4931 114.744 12.68 117.191C16.1274 119.207 15.6443 123.521 18.0002 126.106C20.0936 128.403 20.8213 124.676 20.6841 122.845C20.3799 118.872 16.9027 116.006 14.3381 113.344C11.4454 110.334 8.2426 104.285 11.3321 100.307C13.1095 98.0211 17.6185 97.4826 20.2845 97.8655C33.3343 99.7562 24.6802 116.694 27.054 118.585C29.4277 120.476 31.6703 117.167 31.6643 112.135C31.6584 107.103 32.4278 103.394 37.6585 105.003C42.8891 106.613 43.8911 119.752 37.9149 124.801C31.9387 129.851 38.2907 135.362 39.8951 131.742C41.0521 129.127 42.072 122.283 45.418 121.535C50.9946 120.284 50.9111 131.712 49.3067 134.368C47.0582 138.096 41.9706 138.904 39.1257 142.122C38.3026 143.056 36.4358 145.371 37.1634 146.735C38.1714 148.638 40.9925 146.604 42.0243 145.718C44.3504 143.732 47.5711 136.989 50.8514 141.47C54.8952 147.011 48.1258 155.208 30.8174 156.183Z" fill="url(#paint0_linear_2_7539)"/>
<g opacity="0.8">
<path opacity="0.8" d="M29.4277 155.363C29.6543 155.363 29.8392 155.1 29.8452 154.873C29.8511 154.675 30.1195 134.715 21.4475 111.016C21.3699 110.801 21.1254 110.669 20.9107 110.747C20.696 110.825 20.5826 111.058 20.6602 111.274C29.2786 134.823 29.0102 154.657 29.0102 154.855C29.0042 155.088 29.1891 155.357 29.4217 155.357C29.4217 155.363 29.4217 155.363 29.4277 155.363Z" fill="white"/>
</g>
<path d="M23.1118 154.543C23.4339 152.503 27.3286 151.917 28.8972 151.624C29.8097 151.45 31.104 151.277 31.5692 150.331C32.0582 149.338 31.3127 148.572 30.3584 148.399C28.6467 148.088 26.7977 149.177 25.2053 149.673C23.4935 150.206 21.7221 150.457 20.0223 149.721C18.6684 149.135 17.2847 147.735 16.9924 146.269C16.1753 142.2 20.237 142.434 22.8852 143.008C24.1675 143.283 26.6963 143.493 26.923 141.674C27.1616 139.735 24.7043 138.76 23.1893 138.7C21.2032 138.622 19.2529 139.059 17.2847 139.203C15.5073 139.334 13.4079 139.137 12.9188 137.091C12.5371 135.511 13.4258 133.692 14.7081 132.753C17.6724 130.581 21.579 134.285 24.746 134.279C25.8673 134.279 27.7103 133.453 28.0204 132.244C28.3365 131.018 26.7441 130.192 25.8733 129.743C23.2907 128.415 11.4218 126.716 15.6743 121.577C16.7419 120.284 18.8116 119.195 20.4816 119.147C23.6307 119.064 27.1675 121.206 29.595 123.054C33.4121 125.962 36.7462 129.965 38.9172 134.255C43.7065 143.732 41.3864 150.086 41.3864 150.086C39.9967 152.384 37.8496 154.771 35.4817 156.063C32.7024 157.583 28.3902 158.253 25.3663 157.068C24.3822 156.685 22.909 155.812 23.1118 154.543Z" fill="url(#paint1_linear_2_7539)"/>
<path opacity="0.7" d="M152.656 98.0569L148.636 98.3262C148.176 96.5252 147.568 94.7901 146.816 93.1328L150.151 90.8892C151.063 90.2789 151.296 89.0344 150.675 88.119L146.787 82.3752C146.166 81.4538 144.92 81.2085 144.007 81.8188L140.626 84.0804C139.343 82.7581 137.948 81.5495 136.457 80.4666L138.24 76.793C138.723 75.8058 138.299 74.6032 137.297 74.1066L131.035 71.0133C130.033 70.5167 128.828 70.9176 128.345 71.9108L126.55 75.5964C124.796 75.0818 122.977 74.7228 121.116 74.5194L120.806 70.3911C120.723 69.2842 119.751 68.4346 118.629 68.5004L111.627 68.9132C110.506 68.9791 109.665 69.9363 109.748 71.0492L110.065 75.1895C108.239 75.6203 106.48 76.2007 104.798 76.9246L102.436 73.4724C101.798 72.539 100.528 72.2877 99.5913 72.904L93.7284 76.7631C92.792 77.3793 92.5475 78.6418 93.1856 79.5751L95.5535 83.0274C94.2055 84.3018 92.9769 85.6958 91.8795 87.1856L88.0862 85.3488C87.0603 84.8522 85.8257 85.2651 85.3307 86.2702L82.2292 92.5644C81.7342 93.5696 82.1636 94.7901 83.1955 95.2867L86.9589 97.0996C86.446 98.8706 86.0941 100.701 85.8973 102.574L81.7283 102.855C80.5891 102.933 79.7302 103.902 79.8137 105.027L80.3445 112.045C80.428 113.164 81.4241 114.014 82.5633 113.93L86.6965 113.637C87.1617 115.48 87.782 117.251 88.5514 118.944L85.1517 121.217C84.2094 121.852 83.9649 123.114 84.609 124.042L88.6289 129.845C89.2731 130.773 90.5554 131.012 91.4918 130.378L94.8676 128.104C96.1916 129.45 97.635 130.677 99.1738 131.772L97.4083 135.391C96.9133 136.403 97.3427 137.617 98.3686 138.096L104.75 141.111C105.77 141.59 106.993 141.165 107.482 140.154L109.224 136.57C111.025 137.073 112.886 137.408 114.788 137.587L115.086 141.548C115.17 142.661 116.148 143.493 117.269 143.403L124.26 142.852C125.375 142.763 126.21 141.793 126.126 140.686L125.828 136.738C127.665 136.271 129.443 135.655 131.124 134.889L133.355 138.144C133.981 139.059 135.234 139.292 136.152 138.664L141.884 134.745C142.797 134.117 143.035 132.873 142.409 131.957L140.172 128.684C141.496 127.386 142.707 125.98 143.787 124.472L147.365 126.195C148.361 126.674 149.554 126.255 150.031 125.262L153.019 119.046C153.496 118.052 153.079 116.856 152.083 116.377L148.498 114.642C148.987 112.889 149.321 111.076 149.494 109.221L153.485 108.94C154.582 108.862 155.405 107.911 155.322 106.81L154.803 99.9356C154.707 98.8168 153.753 97.9851 152.656 98.0569ZM116.411 85.7018C127.677 84.9838 137.447 93.4499 138.294 104.602C139.134 115.755 130.743 125.477 119.482 126.315C108.156 127.159 98.2314 118.711 97.3785 107.432C96.5256 96.1543 105.072 86.4258 116.411 85.7018Z" fill="#D8DEE8"/>
<path opacity="0.7" d="M139.946 37.0533L137.733 37.2029C137.477 36.2157 137.149 35.2584 136.731 34.3489L138.562 33.1164C139.063 32.7814 139.189 32.0993 138.849 31.5907L136.707 28.4317C136.367 27.9291 135.682 27.7915 135.181 28.1265L133.32 29.371C132.616 28.6471 131.846 27.9829 131.029 27.3846L132.008 25.3683C132.27 24.8239 132.043 24.1657 131.489 23.8905L128.047 22.1913C127.493 21.9161 126.831 22.1374 126.568 22.6879L125.584 24.7102C124.618 24.429 123.622 24.2315 122.596 24.1178L122.423 21.8443C122.375 21.234 121.844 20.7673 121.23 20.8032L117.383 21.0306C116.769 21.0665 116.304 21.593 116.351 22.2033L116.524 24.4828C115.522 24.7221 114.556 25.0392 113.632 25.4401L112.331 23.5435C111.979 23.0289 111.282 22.8913 110.769 23.2323L107.548 25.3563C107.029 25.6974 106.898 26.3854 107.25 26.9L108.55 28.7966C107.81 29.4967 107.136 30.2625 106.528 31.0822L104.447 30.071C103.88 29.7958 103.206 30.0232 102.932 30.5796L101.226 34.0378C100.951 34.5943 101.19 35.2644 101.757 35.5336L103.826 36.5328C103.546 37.508 103.349 38.5132 103.242 39.5423L100.951 39.6978C100.325 39.7397 99.8541 40.2722 99.9018 40.8885L100.194 44.7476C100.242 45.3638 100.784 45.8305 101.417 45.7826L103.689 45.6211C103.946 46.6322 104.286 47.6075 104.709 48.5409L102.842 49.7913C102.323 50.1383 102.186 50.8324 102.544 51.3469L104.751 54.5359C105.103 55.0445 105.806 55.1761 106.325 54.8291L108.18 53.5786C108.908 54.3205 109.701 54.9906 110.548 55.5949L109.576 57.5813C109.307 58.1377 109.54 58.8019 110.101 59.0711L113.608 60.7284C114.168 60.9917 114.842 60.7583 115.111 60.2019L116.065 58.2335C117.055 58.5087 118.081 58.6942 119.125 58.7899L119.292 60.9678C119.339 61.578 119.876 62.0327 120.49 61.9849L124.331 61.6797C124.946 61.6319 125.405 61.0994 125.357 60.4891L125.19 58.3172C126.204 58.06 127.176 57.7189 128.101 57.3001L129.33 59.0891C129.675 59.5916 130.361 59.7173 130.868 59.3762L134.023 57.2223C134.524 56.8753 134.656 56.1932 134.31 55.6907L133.081 53.8897C133.809 53.1778 134.477 52.4 135.067 51.5743L137.035 52.5196C137.584 52.7829 138.24 52.5555 138.503 52.0051L140.143 48.5887C140.405 48.0443 140.173 47.3861 139.63 47.1229L137.662 46.1656C137.93 45.2023 138.115 44.2031 138.21 43.186L140.405 43.0304C141.008 42.9885 141.461 42.462 141.413 41.8577L141.127 38.0764C141.079 37.4661 140.554 37.0114 139.946 37.0533ZM120.025 30.2625C126.222 29.8676 131.59 34.5225 132.055 40.6551C132.52 46.7878 127.904 52.1307 121.713 52.5914C115.486 53.0581 110.029 48.4092 109.558 42.2107C109.093 36.0063 113.793 30.6574 120.025 30.2625Z" fill="#D8DEE8"/>
<path d="M143.608 151.528C144.818 152.509 144.884 153.203 144.848 153.544C144.783 154.089 144.377 154.304 143.393 155.333C142.063 156.727 142.266 156.919 141.586 157.421C140.089 158.534 137.977 158.462 137.846 158.085C137.757 157.822 138.711 157.601 139.802 156.338C140.804 155.172 141.144 154.017 141.24 153.676C141.407 153.059 141.449 152.527 141.455 152.156L143.608 151.528Z" fill="url(#paint2_linear_2_7539)"/>
<path d="M139.558 148.542L141.938 152.701C142.51 152.958 143.059 152.826 143.566 152.084L142.636 147.029L139.558 148.542Z" fill="url(#paint3_linear_2_7539)"/>
<path d="M136.677 95.185C134.357 99.1099 130.599 106.69 129.836 116.934C129.085 127.045 131.625 134.751 132.693 137.629C134.691 143.014 138.162 148.668 140.178 151.366C141.538 150.798 142.337 149.9 143.697 149.332C143.494 148.59 142.862 146.137 142.462 144.677C142.152 143.546 141.586 141.452 141.472 141.004C140.494 137.258 141.27 134.446 140.995 129.815C140.679 124.412 139.45 125.041 139.635 121.798C139.91 116.957 142.647 115.827 145.79 108.814C147.938 104.016 150.198 98.9782 148.123 96.22C145.51 92.7558 137.56 94.9337 136.677 95.185Z" fill="url(#paint4_linear_2_7539)"/>
<path d="M153.449 155.333C154.176 155.794 154.612 156.895 154.284 157.589C153.962 158.271 153.133 158.056 151.123 158.672C148.97 159.336 148.546 160.006 146.96 160.006C146.315 160.006 145.158 159.892 145.057 159.462C144.991 159.157 145.48 158.857 147.109 157.762C149.417 156.207 149.393 156.165 149.906 155.926C151.194 155.321 152.494 154.723 153.449 155.333Z" fill="url(#paint5_linear_2_7539)"/>
<path d="M150.007 152.036L150.89 156.087C151.015 156.266 152.274 156.703 153.151 156.087L152.828 152.036H150.007Z" fill="url(#paint6_linear_2_7539)"/>
<path opacity="0.3" d="M148.123 96.2201C145.51 92.7499 137.56 94.9337 136.677 95.185C135.723 96.8005 134.53 99.0381 133.397 101.814C136.212 101.258 137.435 101.76 138.007 102.431C140.22 105.033 133.296 110.777 134.721 119.494C135.276 122.905 136.731 124.436 136.463 128.601C136.266 131.7 135.306 133.267 134.644 135.535C134.244 136.893 133.94 138.568 133.922 140.591C135.914 144.982 138.532 149.159 140.178 151.36C141.538 150.792 142.337 149.894 143.697 149.326C143.495 148.584 142.862 146.131 142.463 144.671C142.153 143.54 141.586 141.446 141.473 140.998C140.494 137.252 141.27 134.44 140.995 129.809C140.679 124.406 139.451 125.035 139.636 121.792C139.91 116.952 142.648 115.821 145.791 108.809C147.938 104.016 150.198 98.9783 148.123 96.2201Z" fill="url(#paint7_linear_2_7539)"/>
<path d="M142.886 97.315C142.66 106.349 143 116.82 144.485 128.355C145.689 137.749 147.443 146.227 149.375 153.658C149.644 153.807 150.58 154.298 151.779 154.071C152.632 153.909 153.198 153.466 153.449 153.245C153.24 151.725 153.026 149.428 153.198 146.652C153.497 141.877 154.618 140.902 155.101 135.966C155.525 131.634 155.077 128.092 154.863 126.453C154.2 121.403 153.3 121.295 153.282 118.274C153.252 113.613 155.375 111.95 156.544 107.51C157.326 104.549 157.737 100.127 155.775 94.0662C151.481 95.1431 147.181 96.232 142.886 97.315Z" fill="url(#paint8_linear_2_7539)"/>
<path d="M138.288 61.2668C136.707 62.1583 134.518 63.6302 132.472 65.9755C127.761 71.3903 124.844 80.3051 127.874 83.2188C129.938 85.2052 134.822 84.6009 136.51 82.2496C137.751 80.5205 136.856 78.3905 136.427 75.369C135.967 72.1142 135.985 67.3995 138.288 61.2668Z" fill="url(#paint9_linear_2_7539)"/>
<path d="M156.598 96.238C154.85 73.1552 149.286 63.7079 149.775 60.9018C149.077 60.3993 146.31 59.5915 140.035 60.4232C139.498 60.6206 138.067 61.201 136.653 62.4993C136.653 62.4993 136.325 62.7985 135.872 63.331C140.274 64.1626 144.765 66.6815 146.381 70.2474C149.178 77.0622 143.983 84.6787 146.381 90.6977C147.64 93.8568 149.656 96.6569 152.065 99.2775C154.809 98.5834 156.699 97.5663 156.598 96.238Z" fill="url(#paint10_linear_2_7539)"/>
<path opacity="0.3" d="M155.781 94.0603C154.522 94.3774 153.264 94.6945 152.005 95.0116C152.661 97.2852 153.294 100.702 152.536 104.579C151.487 109.933 148.773 111.106 148.373 115.935C148.015 120.278 150.055 121.164 151.033 126.955C152.035 132.891 150.52 135.679 150.198 140.645C149.984 144.043 150.335 148.489 152.393 153.897C152.9 153.694 153.258 153.419 153.443 153.251C153.234 151.731 153.019 149.434 153.192 146.658C153.491 141.883 154.612 140.908 155.095 135.972C155.518 131.64 155.071 128.098 154.856 126.459C154.194 121.409 153.294 121.301 153.276 118.28C153.246 113.619 155.369 111.956 156.538 107.516C157.326 104.543 157.737 100.121 155.781 94.0603Z" fill="url(#paint11_linear_2_7539)"/>
<path d="M136.647 62.4935C136.647 62.4935 134.977 64.0192 134.005 66.2509C132.538 69.6193 134.119 72.5152 134.59 78.0196C135.109 84.0566 134.375 94.1142 132.681 97.722C132.651 97.7818 132.58 97.9613 132.61 98.1887C133.069 101.671 156.944 100.881 156.592 96.2322C154.844 73.1494 149.28 63.7021 149.769 60.896C149.071 60.3934 146.304 59.5857 140.029 60.4173C139.498 60.6148 138.067 61.1951 136.647 62.4935Z" fill="url(#paint12_linear_2_7539)"/>
<path d="M143.745 54.6257C143.745 54.6257 145.29 59.478 145.785 60.0644C146.286 60.6507 143.781 62.1764 141.86 61.4884C140.101 60.8541 141.86 58.1617 141.86 58.1617L143.745 54.6257Z" fill="url(#paint13_linear_2_7539)"/>
<path d="M138.962 53.4889C138.36 52.5316 138.443 50.952 139.302 50.0247C140.042 49.2229 141.109 49.187 141.748 49.1631C143.597 49.0973 145.845 50.0546 146.513 51.8076C146.907 52.8487 145.714 54.847 145.517 55.212C145.302 55.6189 144.956 55.7385 144.622 56.0317C144.163 56.4385 143.441 57.0907 142.261 58.1856C142.207 57.8326 142.111 57.3899 141.944 56.9052C141.879 56.7198 141.622 55.9898 141.193 55.3676C140.334 54.1231 139.535 54.3983 138.962 53.4889Z" fill="url(#paint14_linear_2_7539)"/>
<path d="M143.894 57.3181C143.894 57.3181 142.528 59.2027 140.143 58.8497C138.007 58.5386 138.079 53.6803 139.534 52.7649C140.017 52.4598 140.948 52.394 141.675 52.6632C142.105 52.8248 142.242 53.0162 142.946 53.2675C143.596 53.4949 143.793 53.435 143.984 53.6205C144.216 53.8539 144.359 54.3923 143.828 55.7684C144.27 55.3855 144.777 55.2659 145.111 55.4573C145.164 55.4872 145.302 55.6009 145.373 55.7625C145.63 56.3368 145.069 57.001 143.894 57.3181Z" fill="url(#paint15_linear_2_7539)"/>
<path d="M139.248 56.5222C139.248 56.5222 139.689 56.8034 140.494 56.8214C140.536 56.8214 140.578 56.8393 140.578 56.8573C140.59 56.9351 140.047 57.2342 139.588 57.0607C139.26 56.941 139.021 56.6 139.075 56.5222C139.099 56.4923 139.176 56.4983 139.248 56.5222Z" fill="url(#paint16_linear_2_7539)"/>
<path opacity="0.3" d="M149.865 75.8537C147.258 76.7691 143.799 79.3478 143.572 82.6565C143.214 87.7301 150.747 90.5183 149.745 94.0722C149.471 95.0415 148.606 95.915 142.964 97.9553C140.68 98.7809 138.562 99.457 136.636 100.013C143.536 101.037 156.861 99.7143 156.598 96.2381C155.93 87.4011 154.702 80.5684 153.467 75.3391C152.214 75.2853 150.998 75.4528 149.865 75.8537Z" fill="url(#paint17_linear_2_7539)"/>
<path d="M141.657 86.2404C145.898 90.5542 151.946 91.9183 156.598 89.7584C163.057 86.7609 164.059 78.2589 162.55 72.934C160.033 64.0491 149.077 58.8677 145.623 61.237C143.124 62.9482 143.148 69.5714 146.124 72.8861C148.796 75.8657 152.906 75.1118 154.027 78.1452C154.862 80.4188 153.246 82.7103 153.109 82.9018C151.307 85.3728 147.389 86.2104 143.679 84.5112C143.011 85.0856 142.337 85.666 141.657 86.2404Z" fill="url(#paint18_linear_2_7539)"/>
<path d="M133.271 78.7974C133.617 77.6846 134.739 77.1162 135.621 76.9905C136.486 76.8709 137.906 77.0683 138.472 78.1991C139.003 79.2581 138.586 80.742 137.369 81.5437C137.196 81.1189 136.892 80.5565 136.349 80.383C135.353 80.0718 134.494 81.3702 133.755 81.0292C133.164 80.7659 133.015 79.6171 133.271 78.7974Z" fill="url(#paint19_linear_2_7539)"/>
<path d="M137.339 85.5403L140.602 86.1087C141.234 86.2163 141.777 85.6539 141.639 85.0257L140.453 79.4913C140.369 79.0905 140.023 78.7973 139.618 78.7734L135.711 78.564C135.067 78.5281 134.596 79.1623 134.81 79.7725L136.641 84.9479C136.749 85.2591 137.017 85.4864 137.339 85.5403Z" fill="white"/>
<path d="M143.029 85.0676C142.761 83.1411 141.95 82.6385 141.657 82.4949C141.168 82.2556 140.924 82.441 139.206 82.4111C137.673 82.3872 137.309 82.2316 137.119 82.4949C136.749 82.9915 137.506 84.3018 138.359 85.0676C139.558 86.1446 141.043 86.2343 141.657 86.2403L143.029 85.0676Z" fill="url(#paint20_linear_2_7539)"/>
<path d="M95.4882 7.64753L109.6 150.039C109.808 152.157 108.353 154.012 106.361 154.162L37.5929 159.941C33.4 160.091 31.1395 157.823 30.9129 155.58L15.6205 4.85342C15.3878 2.59181 17.4873 0.587473 21.7219 0.671236L91.4265 3.6209C93.4484 3.69868 95.2735 5.51156 95.4882 7.64753Z" fill="url(#paint21_linear_2_7539)"/>
<path d="M98.6135 7.46697L112.785 150.589C112.993 152.719 111.532 154.585 109.534 154.729L38.243 159.97C36.0183 160.132 34.0024 158.421 33.7758 156.165L18.4118 4.64894C18.1792 2.37536 19.8492 0.58043 22.1096 0.664194L94.5339 3.41642C96.5678 3.4942 98.3988 5.31306 98.6135 7.46697Z" fill="#FF4400"/>
<path d="M97.1106 15.3647L110.256 148.022C110.453 150.014 109.087 151.749 107.214 151.887L40.1577 156.667C38.0881 156.817 36.2153 155.22 36.0006 153.12L21.8294 13.1569C21.6147 11.0389 23.1654 9.35767 25.2649 9.42946L93.3054 11.6013C95.2021 11.6612 96.9138 13.3544 97.1106 15.3647Z" fill="#D8DEE8"/>
<path d="M61.0444 6.5874C61.122 7.35324 60.5852 7.95155 59.8397 7.92761C59.0941 7.90368 58.4321 7.25751 58.3545 6.49167C58.277 5.72583 58.8198 5.12154 59.5593 5.15146C60.3049 5.18137 60.9729 5.82156 61.0444 6.5874Z" fill="white"/>
<g opacity="0.3">
<path opacity="0.3" d="M54.448 76.4521C47.3624 55.4514 59.6966 44.8733 52.7124 25.4163C48.9072 14.8322 41.3027 6.95244 32.9348 1.07704L22.1096 0.664203C19.8492 0.580439 18.1792 2.36939 18.4118 4.64895L33.7698 156.171C33.9965 158.427 36.0124 160.138 38.2371 159.976L99.7885 155.453C99.5977 139.634 95.5897 128.373 91.1343 120.368C78.8897 98.3682 61.7841 98.1947 54.448 76.4521Z" fill="#F4F7FA"/>
</g>
<path d="M95.005 26.0864C105.621 34.9055 116.238 43.7306 126.848 52.5497C99.4663 64.9048 102.651 102.658 75.2692 115.013C64.6528 106.194 54.0364 97.3691 43.4199 88.55C70.802 76.1949 67.617 38.4355 95.005 26.0864Z" fill="url(#paint22_linear_2_7539)"/>
<path d="M121.481 52.095C98.2498 65.2279 99.1266 98.3922 75.8957 111.519C66.8598 104.01 57.8239 96.5015 48.7939 88.9928C72.0248 75.8599 71.1481 42.6955 94.379 29.5686C103.409 37.0834 112.445 44.5922 121.481 52.095Z" fill="white"/>
<path d="M53.6067 85.1277C53.726 85.2294 53.8334 85.3191 53.9407 85.4268C53.9526 85.4388 53.9586 85.4448 53.9705 85.4568C55.2051 86.6474 55.7837 88.1551 55.6405 89.603C55.5153 90.8655 54.8354 92.0681 53.5471 92.9595C53.3562 93.0912 53.1534 93.2108 52.9447 93.3245C52.1395 93.7613 51.2091 94.0485 50.2309 94.21C47.9645 92.3253 45.6981 90.4407 43.4316 88.556C46.3422 87.2457 48.9069 85.6422 51.2031 83.8174C52.0142 84.0507 52.891 84.5354 53.6067 85.1277Z" fill="url(#paint23_linear_2_7539)"/>
<path d="M81.3407 108.175C82.0862 108.791 82.5812 109.473 82.9987 110.299C80.7144 112.112 78.1617 113.703 75.2631 115.007C72.943 113.081 70.6228 111.154 68.3027 109.222C68.8395 108.695 69.5194 108.199 70.3306 107.762C70.5453 107.648 70.76 107.54 70.9867 107.439C74.2909 105.919 78.3466 105.919 81.0484 107.935C81.0603 107.941 81.0663 107.953 81.0782 107.959C81.1677 108.037 81.2572 108.109 81.3407 108.175Z" fill="url(#paint24_linear_2_7539)"/>
<path d="M95.0048 26.0864C97.2712 27.9711 99.5377 29.8558 101.804 31.7405C101.267 32.267 100.587 32.7636 99.7762 33.2003C99.5615 33.314 99.3468 33.4217 99.1202 33.5234C95.8458 35.0312 91.8557 35.0491 89.1539 33.0926C89.0286 33.0029 88.9272 32.9251 88.808 32.8234C88.0923 32.2311 87.5137 31.5011 87.2334 30.825C89.5237 29.0002 92.0943 27.3967 95.0048 26.0864Z" fill="url(#paint25_linear_2_7539)"/>
<path d="M119.888 46.7639C122.208 48.6905 124.528 50.617 126.848 52.5496C123.955 53.8539 121.397 55.4454 119.112 57.2583C118.104 56.9053 117.287 56.4924 116.542 55.8702C116.458 55.7984 116.369 55.7266 116.291 55.6488C116.279 55.6368 116.273 55.6309 116.261 55.6249C115.057 54.512 114.436 53.1 114.46 51.7239C114.484 50.3418 115.164 48.9896 116.571 48.0204C116.762 47.8887 116.959 47.7631 117.174 47.6494C117.985 47.2186 118.904 46.9255 119.888 46.7639Z" fill="url(#paint26_linear_2_7539)"/>
<path d="M90.6812 59.5201C95.7628 63.7442 97.2658 71.9948 94.3373 78.1993C91.4088 84.4038 84.6334 85.7739 79.5041 81.508C74.4226 77.2839 72.9196 69.0332 75.848 62.8287C78.7765 56.6303 85.5579 55.2601 90.6812 59.5201Z" fill="url(#paint27_linear_2_7539)"/>
<path d="M86.959 66.9272C86.0643 67.1366 85.1398 67.7469 84.0663 68.9973C83.3148 68.3691 82.5573 67.7469 81.8058 67.1186C81.8356 67.0648 81.8655 67.0169 81.8953 66.9631C82.1935 66.4545 82.5215 65.9998 82.8794 65.6169C83.0822 65.3955 83.3029 65.1921 83.5295 65.0066C83.78 64.8032 83.78 64.3604 83.5355 64.1091C83.2253 63.798 82.9152 63.4809 82.605 63.1698C82.4082 62.9724 82.1279 62.9664 81.949 63.1518C81.6448 63.463 81.3406 63.804 81.0662 64.145C80.6905 64.6057 80.3446 65.0904 80.0165 65.6229C79.7541 65.4015 79.4917 65.1861 79.2292 64.9647C78.9966 64.7733 78.6984 64.8032 78.5434 65.0605C78.3883 65.3177 78.4599 65.6647 78.6925 65.8562C78.9609 66.0776 79.2292 66.3049 79.4976 66.5263C78.8535 67.8605 78.5851 69.111 78.7044 70.2418C78.8296 71.3786 79.3366 72.3239 80.2312 73.0658C81.0961 73.7838 81.9788 74.0351 82.8675 73.8257C83.7502 73.6103 84.6746 72.9282 85.617 71.7914C86.452 72.4915 87.293 73.1915 88.128 73.8915C87.7999 74.4659 87.4301 74.9924 87.0126 75.471C86.7502 75.7762 86.4639 76.0634 86.1657 76.3326C85.9092 76.56 85.9033 77.0266 86.1657 77.2839C86.5653 77.6848 86.9709 78.0797 87.3705 78.4805C87.5733 78.678 87.8536 78.672 88.0325 78.4746C88.3307 78.1455 88.623 77.7925 88.8973 77.4096C89.2671 76.895 89.625 76.3147 89.959 75.6924C90.0007 75.6146 90.0425 75.5428 90.0783 75.4651C90.3646 75.7044 90.6508 75.9437 90.9371 76.177C91.1697 76.3685 91.468 76.3446 91.5992 76.0694C91.5992 76.0694 91.5992 76.0634 91.6051 76.0634C91.7363 75.7882 91.6648 75.4471 91.4322 75.2557C91.1399 75.0163 90.8536 74.771 90.5614 74.5317C90.9729 73.5385 91.2055 72.5872 91.2413 71.7017C91.2592 71.3188 91.2413 70.9359 91.1876 70.5709C91.0087 69.3683 90.46 68.405 89.5594 67.6511C88.7184 66.9571 87.8476 66.7178 86.959 66.9272ZM86.291 70.9777C86.6488 70.6068 87.0067 70.3495 87.3228 70.2897C87.6329 70.2239 87.949 70.3196 88.2532 70.5709C88.5872 70.8521 88.784 71.1991 88.8437 71.594C88.9093 71.9949 88.8317 72.4197 88.5991 72.8983C87.8297 72.2581 87.0604 71.6179 86.291 70.9777ZM82.4738 70.4393C82.1875 70.5111 81.9072 70.4333 81.6388 70.2059C81.3525 69.9666 81.1855 69.6615 81.1319 69.2845C81.0782 68.9076 81.1617 68.4529 81.3227 68.052C82.0146 68.6264 82.7064 69.2008 83.3983 69.7751C83.0583 70.164 82.7601 70.3675 82.4738 70.4393Z" fill="white"/>
<path opacity="0.2" d="M126.741 52.4598C126.777 52.4897 126.812 52.5197 126.842 52.5436C99.4602 64.8987 102.645 102.652 75.2631 115.007C64.8733 106.374 54.4835 97.7399 44.0938 89.1003C45.6027 88.9388 47.2369 88.843 48.9964 88.873C51.0302 88.9089 53.231 89.1123 55.6406 89.585C58.3126 90.1175 61.2351 90.985 64.4737 92.3611C80.4759 99.1759 85.0744 93.4381 87.8478 83.7514C88.6112 81.1847 89.2673 78.3547 90.0665 75.4828C90.4184 74.2204 90.812 72.946 91.2474 71.6775C92.1063 69.2005 93.1381 66.7594 94.3846 64.4918C98.4582 56.7318 105.615 51.4846 114.466 51.7179C116.089 51.7419 117.741 51.9333 119.399 52.2923C119.828 52.388 120.282 52.4598 120.759 52.5077C122.482 52.7051 124.48 52.6274 126.741 52.4598Z" fill="url(#paint28_linear_2_7539)"/>
<path d="M100.045 58.1079C100.993 58.4849 101.488 59.496 101.137 60.3516L79.1343 114.618C78.7586 115.54 77.4405 116.204 76.4564 115.797L40.617 100.845C39.6567 100.444 39.2571 99.0503 39.6567 98.1468L61.8379 44.7357C62.2017 43.8981 63.2634 43.5151 64.1938 43.8861L100.045 58.1079Z" fill="url(#paint29_linear_2_7539)"/>
<path d="M100.63 57.0369C101.584 57.4198 102.08 58.437 101.728 59.2985L79.3258 114.253C78.95 115.181 77.8287 115.605 76.8446 115.193L40.7845 100.157C39.8183 99.7562 39.3531 98.6793 39.7527 97.7758L62.1725 43.5869C62.5422 42.7433 63.6099 42.3544 64.5462 42.7253L100.63 57.0369Z" fill="url(#paint30_linear_2_7539)"/>
<g opacity="0.7">
<path opacity="0.7" d="M73.5636 94.6345L69.7703 103.555C69.6033 103.956 69.1262 104.166 68.7206 104.028L66.484 103.274C66.0725 103.137 65.8816 102.7 66.0486 102.299L69.8717 93.3841C70.0387 92.9892 70.5099 92.7858 70.9155 92.9174L73.1342 93.6653C73.5338 93.8089 73.7306 94.2456 73.5636 94.6345Z" fill="#F4F7FA"/>
<path opacity="0.7" d="M78.5555 82.9019L74.8279 91.6551C74.6609 92.044 74.1957 92.2535 73.7901 92.1158L71.5714 91.368C71.1658 91.2303 70.975 90.7996 71.142 90.4107L74.8935 81.6574C75.0605 81.2745 75.5197 81.071 75.9253 81.2026L78.1202 81.9505C78.5257 82.0881 78.7225 82.513 78.5555 82.9019Z" fill="#F4F7FA"/>
<path opacity="0.7" d="M83.4641 71.3783L79.802 79.976C79.641 80.3589 79.1758 80.5623 78.7762 80.4247L76.5813 79.6768C76.1817 79.5392 75.9849 79.1144 76.1519 78.7315L79.8378 70.1398C79.9988 69.7628 80.4581 69.5654 80.8577 69.697L83.0347 70.4389C83.4283 70.5765 83.6251 70.9954 83.4641 71.3783Z" fill="#F4F7FA"/>
<path opacity="0.7" d="M88.2776 60.0583L84.6871 68.5005C84.5261 68.8774 84.0728 69.0749 83.6732 68.9373L81.5022 68.1954C81.1026 68.0578 80.9117 67.6389 81.0727 67.262L84.6931 58.8258C84.8541 58.4549 85.3074 58.2634 85.6951 58.395L87.8482 59.1369C88.2418 59.2746 88.4386 59.6874 88.2776 60.0583Z" fill="#F4F7FA"/>
</g>
<path d="M62.8398 95.245L61.0505 99.4751C60.7224 100.247 59.786 100.594 58.963 100.253L54.4898 98.3981C53.6726 98.0571 53.273 97.1536 53.6011 96.3878L55.4083 92.1757C55.7363 91.4158 56.6667 91.0688 57.4838 91.4039L61.9391 93.2407C62.7622 93.5757 63.1618 94.4792 62.8398 95.245Z" fill="url(#paint31_linear_2_7539)"/>
<path d="M62.2852 95.3647L60.7464 98.9965C60.4422 99.7084 59.5833 100.032 58.8199 99.7144L54.9789 98.1229C54.2214 97.8118 53.8517 96.9742 54.1558 96.2682L55.7065 92.6484C56.0107 91.9424 56.8696 91.6252 57.6211 91.9364L61.4502 93.5159C62.2136 93.827 62.5834 94.6587 62.2852 95.3647ZM54.3527 96.3459C54.0902 96.9562 54.4063 97.6742 55.0624 97.9434L58.9034 99.5349C59.5595 99.8042 60.299 99.5289 60.5615 98.9127L62.1003 95.2809C62.3567 94.6707 62.0406 93.9587 61.3845 93.6894L57.5555 92.1099C56.9054 91.8406 56.1658 92.1159 55.9034 92.7261L54.3527 96.3459Z" fill="url(#paint32_linear_2_7539)"/>
<path d="M55.4985 98.2308L58.0691 92.2178L55.4985 98.2308Z" fill="#F4F7FA"/>
<path d="M58.1578 92.2594L55.5932 98.2725L55.4023 98.1947L57.967 92.1816L58.1578 92.2594Z" fill="url(#paint33_linear_2_7539)"/>
<path d="M56.9414 98.829L59.5061 92.8101L56.9414 98.829Z" fill="#F4F7FA"/>
<path d="M59.5952 92.8517L57.0366 98.8707L56.8457 98.793L59.4104 92.7739L59.5952 92.8517Z" fill="url(#paint34_linear_2_7539)"/>
<path d="M58.3848 99.4273L60.9434 93.4023L58.3848 99.4273Z" fill="#F4F7FA"/>
<path d="M61.0386 93.444L58.4799 99.469L58.2891 99.3912L60.8478 93.3662L61.0386 93.444Z" fill="url(#paint35_linear_2_7539)"/>
<path d="M61.0867 96.0115L60.371 97.6927C60.192 98.1235 59.6672 98.315 59.2079 98.1295L55.856 96.7414C55.4027 96.55 55.1761 96.0474 55.361 95.6226L56.0767 93.9413C56.2616 93.5165 56.7805 93.3191 57.2337 93.5106L60.5797 94.8926C61.039 95.0841 61.2656 95.5867 61.0867 96.0115Z" fill="#FEC045"/>
<path d="M61.1813 96.0528L60.4656 97.7341C60.2628 98.2127 59.6843 98.4281 59.1714 98.2187L55.8194 96.8306C55.3125 96.6212 55.062 96.0588 55.2648 95.5802L55.9805 93.8989C56.1833 93.4203 56.7618 93.2049 57.2747 93.4203L60.6207 94.8024C61.1336 95.0118 61.3841 95.5742 61.1813 96.0528ZM55.4556 95.6579C55.2946 96.0349 55.4914 96.4836 55.897 96.6511L59.2489 98.0392C59.6545 98.2067 60.1137 98.0332 60.2748 97.6563L60.9905 95.975C61.1515 95.5981 60.9547 95.1554 60.5491 94.9878L57.2031 93.6057C56.7976 93.4382 56.3383 93.6117 56.1773 93.9887L55.4556 95.6579Z" fill="url(#paint36_linear_2_7539)"/>
<path opacity="0.15" d="M77.5421 92.2835C76.2359 97.052 75.0788 99.9538 72.5977 102.742C69.1921 106.565 64.9515 108.312 62.2974 109.132L76.8383 115.193C77.8224 115.606 78.9437 115.181 79.3194 114.253L101.727 59.2986C102.079 58.4371 101.584 57.4199 100.63 57.037L94.8504 54.7395C86.0412 60.7645 82.7131 66.9091 81.3294 71.5161C79.6594 77.0804 80.6495 80.9575 77.5421 92.2835Z" fill="url(#paint37_linear_2_7539)"/>
<g opacity="0.42">
<path opacity="0.42" d="M81.6156 94.7843L76.5579 107.086C76.4624 107.319 76.1762 107.427 75.9257 107.325L73.868 106.469C73.6175 106.368 73.4922 106.092 73.5877 105.853L78.6692 93.5757C78.7647 93.3484 79.045 93.2407 79.2955 93.3424L81.3412 94.18C81.5858 94.2818 81.711 94.557 81.6156 94.7843Z" fill="url(#paint38_linear_2_7539)"/>
<path opacity="0.42" d="M91.3969 71.1869L84.6632 87.5507C84.5678 87.784 84.2815 87.8917 84.037 87.79L81.9793 86.9524C81.7288 86.8507 81.6036 86.5754 81.699 86.3421L88.4565 70.0023C88.5519 69.7749 88.8323 69.6672 89.0768 69.7689L91.1166 70.5886C91.3611 70.6903 91.4864 70.9596 91.3969 71.1869Z" fill="white"/>
</g>
<path d="M70.4979 51.4546C72.9791 52.4478 74.1242 55.3256 73.0566 57.8625C72.0009 60.3754 69.1739 61.6019 66.7404 60.6207C64.307 59.6394 63.1499 56.8214 64.1638 54.2965C65.1778 51.7477 68.0168 50.4674 70.4979 51.4546Z" fill="white"/>
<g opacity="0.53">
<path opacity="0.53" d="M61.2355 89.7884C61.3965 90.1833 61.2056 90.644 60.812 90.8115C60.4124 90.9791 59.9531 90.7936 59.7921 90.3927C59.6311 89.9918 59.8279 89.5371 60.2275 89.3696C60.6271 89.208 61.0744 89.3935 61.2355 89.7884Z" fill="#F4F7FA"/>
<g opacity="0.53">
<path opacity="0.53" d="M65.0047 88.6815C64.9809 88.7474 64.9272 88.8072 64.8497 88.8371C64.7006 88.8969 64.5336 88.8311 64.468 88.6815C63.5196 86.4857 60.9848 85.4506 58.7422 86.3361C58.5931 86.396 58.4202 86.3242 58.3605 86.1806C58.3009 86.037 58.3784 85.8695 58.5275 85.8096C61.0564 84.8164 63.9192 85.9891 64.9928 88.4602C65.0286 88.5379 65.0286 88.6157 65.0047 88.6815Z" fill="#F4F7FA"/>
<path opacity="0.53" d="M63.9373 89.1363C63.9074 89.2081 63.8538 89.2619 63.7822 89.2978C63.6331 89.3636 63.4601 89.2918 63.4005 89.1423C62.7086 87.5148 60.8299 86.743 59.1778 87.4131C59.0227 87.4729 58.8557 87.4012 58.7961 87.2576C58.7364 87.108 58.814 86.9404 58.9631 86.8806C60.9134 86.1028 63.1202 87.0063 63.9373 88.9209C63.9671 88.9867 63.9671 89.0645 63.9373 89.1363Z" fill="#F4F7FA"/>
<path opacity="0.53" d="M62.8576 89.5909C62.8278 89.6627 62.7741 89.7225 62.6966 89.7525C62.5475 89.8183 62.3745 89.7465 62.3089 89.5909C61.8735 88.5439 60.6628 88.0473 59.6071 88.4841C59.452 88.5439 59.279 88.4781 59.2194 88.3285C59.1598 88.1789 59.2373 88.0054 59.3864 87.9456C60.0484 87.6763 60.7701 87.6763 61.4202 87.9456C62.0703 88.2148 62.5773 88.7174 62.8516 89.3695C62.8874 89.4413 62.8874 89.5191 62.8576 89.5909Z" fill="#F4F7FA"/>
</g>
</g>
<path d="M72.2393 84.5473C72.2393 94.3656 64.5871 102.09 54.8057 101.785C44.6247 101.474 36.0659 92.6544 36.0659 82.1003C36.0659 71.5461 44.6247 63.8877 54.8057 64.9467C64.5871 65.9698 72.2393 74.7291 72.2393 84.5473Z" fill="url(#paint39_linear_2_7539)"/>
<path d="M74.8814 83.6977C74.8814 93.516 67.2292 101.24 57.4478 100.935C47.2668 100.624 38.708 91.8048 38.708 81.2506C38.708 70.6965 47.2668 63.0381 57.4478 64.0971C67.2292 65.1202 74.8814 73.8795 74.8814 83.6977Z" fill="url(#paint40_linear_2_7539)"/>
<path d="M74.1121 83.6439C74.1121 93.0314 66.788 100.397 57.4479 100.097C47.744 99.7803 39.5908 91.3681 39.5908 81.3105C39.5908 71.2529 47.738 63.9415 57.4479 64.9407C66.788 65.898 74.1121 74.2624 74.1121 83.6439Z" fill="url(#paint41_linear_2_7539)"/>
<path d="M73.5635 83.608C73.5635 92.6843 66.4779 99.8042 57.448 99.4991C48.0781 99.182 40.2231 91.0569 40.2231 81.3523C40.2231 71.6477 48.0781 64.5877 57.448 65.539C66.4779 66.4544 73.5635 74.5316 73.5635 83.608Z" fill="url(#paint42_linear_2_7539)"/>
<path d="M57.3524 68.6263C57.8356 68.6742 58.2232 69.1049 58.2232 69.5956V71.2648C59.1835 71.3725 60.1437 71.5401 61.1099 71.7674C61.8197 71.9349 62.5235 72.1324 63.2273 72.3657C63.6448 72.5033 63.9311 72.9281 63.8893 73.3709L63.6865 75.465C63.6328 76.0214 63.0841 76.3445 62.5712 76.1171C62.1119 75.9077 61.6348 75.7342 61.1517 75.5846C60.3048 75.3274 59.4101 75.1598 58.4737 75.0821L58.2292 75.0641V79.8506C60.7342 80.5566 62.5772 81.5019 63.7641 82.6926C64.9509 83.8772 65.5355 85.355 65.5355 87.126C65.5355 89.0406 64.8853 90.5783 63.5732 91.733C62.2551 92.8997 60.4121 93.5519 58.0204 93.6955V95.5383C58.0204 96.0289 57.6328 96.4118 57.1497 96.3879H57.1318C56.6487 96.3699 56.261 95.9571 56.261 95.4605V93.6416L55.8733 93.6237C54.752 93.5758 53.6844 93.4562 52.6585 93.2826C51.9011 93.151 51.1615 92.9775 50.4339 92.7681C49.9985 92.6425 49.6943 92.2236 49.736 91.7749L49.9746 89.0825C50.0283 88.5022 50.6068 88.1611 51.1615 88.3825C51.8057 88.6398 52.4558 88.8492 53.1178 89.0287C54.1437 89.2979 55.1874 89.4774 56.2431 89.5552L56.261 84.2302C53.8574 83.6319 52.0502 82.7464 50.8693 81.5737C49.6824 80.3951 49.0859 78.8873 49.0859 77.0565C49.0859 75.1598 49.7301 73.7 51.0243 72.6709C52.3067 71.6478 54.1317 71.1392 56.4817 71.1392V69.428C56.4817 68.9434 56.8753 68.5784 57.3524 68.6263ZM56.4817 75.0162C55.7361 75.0701 55.1576 75.2735 54.7401 75.6325C54.3226 75.9915 54.1138 76.4701 54.1138 77.0684C54.1138 77.6368 54.3047 78.1155 54.6924 78.4984C55.0741 78.8813 55.6705 79.1865 56.4757 79.4138V75.0162H56.4817ZM58.0264 84.655V89.5372C58.8376 89.5372 59.4519 89.3458 59.8873 88.9569C60.3167 88.568 60.5374 88.0235 60.5374 87.3115C60.5374 86.6653 60.3346 86.1328 59.935 85.7021C59.5294 85.2773 58.8912 84.9302 58.0264 84.655Z" fill="url(#paint43_linear_2_7539)"/>
<path opacity="0.3" d="M54.5315 85.8336C55.0742 80.4368 60.0186 78.1573 59.3745 73.1913C58.9748 70.134 56.6667 67.5552 54.0901 65.5449C46.2709 66.3646 40.2231 72.8622 40.2231 81.3582C40.2231 91.0568 48.0781 99.1879 57.448 99.505C58.3605 99.5349 59.2432 99.487 60.1081 99.3733C56.3864 95.6519 54.0603 90.4645 54.5315 85.8336Z" fill="url(#paint44_linear_2_7539)"/>
<path d="M62.9115 45.4117C62.9115 52.0231 57.7583 57.2283 51.1678 57.0249C44.3148 56.8095 38.5474 50.8683 38.5474 43.7604C38.5474 36.6525 44.3148 31.495 51.1678 32.207C57.7583 32.9011 62.9115 38.8004 62.9115 45.4117Z" fill="url(#paint45_linear_2_7539)"/>
<path d="M64.6947 44.8434C64.6947 51.4547 59.5415 56.66 52.951 56.4565C46.0921 56.2411 40.3306 50.2999 40.3306 43.192C40.3306 36.0841 46.098 30.9267 52.951 31.6387C59.5356 32.3327 64.6947 38.2261 64.6947 44.8434Z" fill="url(#paint46_linear_2_7539)"/>
<path d="M64.1761 44.8074C64.1761 51.1256 59.2436 56.0915 52.9513 55.8881C46.4144 55.6787 40.9272 50.0067 40.9272 43.2339C40.9272 36.461 46.4144 31.5369 52.9513 32.207C59.2436 32.8532 64.1761 38.4833 64.1761 44.8074Z" fill="url(#paint47_linear_2_7539)"/>
<path d="M63.8061 44.7836C63.8061 50.8983 59.0347 55.6907 52.9511 55.4873C46.6409 55.2719 41.3506 49.7974 41.3506 43.2638C41.3506 36.7303 46.6409 31.9678 52.9511 32.608C59.0347 33.2302 63.8061 38.6688 63.8061 44.7836Z" fill="url(#paint48_linear_2_7539)"/>
<path d="M52.8853 34.69C53.2074 34.7199 53.4698 35.0131 53.4698 35.3422V36.467C54.1199 36.5388 54.7641 36.6525 55.4142 36.808C55.8913 36.9217 56.3685 37.0533 56.8396 37.2089C57.1199 37.3046 57.3168 37.5858 57.287 37.885L57.1498 39.297C57.114 39.6739 56.7442 39.8893 56.3983 39.7338C56.0881 39.5962 55.7661 39.4765 55.444 39.3748C54.8714 39.2013 54.275 39.0876 53.6368 39.0338L53.4698 39.0218V42.2467C55.1577 42.7193 56.3983 43.3595 57.1975 44.1613C57.9967 44.957 58.3903 45.9562 58.3903 47.1468C58.3903 48.4392 57.949 49.4743 57.0663 50.2521C56.1776 51.0358 54.937 51.4786 53.3267 51.5743V52.8188C53.3267 53.1479 53.0642 53.4051 52.7422 53.3932H52.7302C52.4082 53.3812 52.1398 53.1 52.1398 52.7709V51.5444L51.8773 51.5324C51.1258 51.4965 50.4042 51.4188 49.7123 51.2991C49.1994 51.2094 48.7043 51.0957 48.2153 50.9521C47.923 50.8683 47.7202 50.5871 47.7441 50.282L47.9051 48.4691C47.9409 48.0742 48.3346 47.8469 48.7043 47.9964C49.1397 48.1699 49.5751 48.3135 50.0225 48.4272C50.7143 48.6127 51.4181 48.7264 52.1278 48.7802L52.1398 45.1963C50.5175 44.7955 49.3067 44.1972 48.5075 43.4074C47.7083 42.6116 47.3027 41.6005 47.3027 40.368C47.3027 39.0936 47.7381 38.1064 48.6089 37.4123C49.4737 36.7243 50.7024 36.3832 52.2829 36.3832V35.2345C52.3008 34.8994 52.5632 34.6601 52.8853 34.69ZM52.3008 38.9919C51.7998 39.0278 51.4121 39.1654 51.1318 39.4047C50.8515 39.644 50.7143 39.9671 50.7143 40.374C50.7143 40.7569 50.8455 41.08 51.102 41.3372C51.3584 41.5945 51.764 41.7979 52.3068 41.9535V38.9919H52.3008ZM53.3386 45.4835V48.7742C53.8813 48.7742 54.2988 48.6426 54.5911 48.3853C54.8833 48.1221 55.0265 47.7571 55.0265 47.2785C55.0265 46.8417 54.8893 46.4827 54.6209 46.1955C54.3525 45.9023 53.9231 45.669 53.3386 45.4835Z" fill="url(#paint49_linear_2_7539)"/>
<path opacity="0.3" d="M50.9889 46.2794C51.3527 42.6477 54.6867 41.11 54.2513 37.7655C53.9829 35.7073 52.4263 33.9722 50.6907 32.614C45.4242 33.1704 41.3506 37.5441 41.3506 43.2639C41.3506 49.7975 46.6409 55.272 52.9511 55.4874C53.5654 55.5053 54.1619 55.4754 54.7464 55.3976C52.2354 52.8907 50.6728 49.3966 50.9889 46.2794Z" fill="url(#paint50_linear_2_7539)"/>
<path d="M100.905 94.9219L104.835 140.938C104.937 142.123 104.579 143.241 103.821 144.037C103.177 144.725 102.312 145.192 101.298 145.276L43.427 150.164C40.9757 150.373 38.8762 148.62 38.7033 146.275L35.0651 97.3211C34.8921 95.0176 36.7172 93.0133 39.1566 92.9295L96.6701 91.0508C98.8471 90.985 100.72 92.756 100.905 94.9219Z" fill="url(#paint51_linear_2_7539)"/>
<path opacity="0.2" d="M103.886 144.037C103.242 144.725 102.353 145.186 101.339 145.276L43.444 150.164C40.9927 150.373 38.8694 148.62 38.6964 146.275L35.0582 97.321C34.8853 95.0175 36.7103 93.0132 39.1497 92.9294L39.8177 92.9055C40.0623 94.168 40.3843 95.5859 40.6945 96.9501C40.7362 97.1415 40.7839 97.345 40.8257 97.5245C41.1895 99.098 41.4937 100.39 41.5533 100.552C43.3605 105.973 45.9073 112.201 51.299 115.234C59.5357 119.871 69.9612 119.034 78.6273 121.577C84.3292 123.246 90.1861 125.507 94.725 129.289C98.0411 132.053 100.838 135.457 102.479 139.442C103.069 140.884 103.534 142.446 103.886 144.037Z" fill="url(#paint52_linear_2_7539)"/>
<g opacity="0.7">
<path opacity="0.7" d="M96.6692 143.277L94.6712 143.403C94.4445 143.421 94.2417 143.235 94.2239 143.008C94.206 142.781 94.373 142.613 94.5996 142.595L96.5917 142.464C96.9316 142.464 97.2656 142.326 97.5817 142.224C97.7965 142.152 98.0291 142.248 98.1006 142.464C98.1722 142.679 98.0589 142.942 97.8442 143.014C97.4684 143.128 97.0748 143.277 96.6692 143.277ZM91.5518 143.612L88.4146 143.87C88.188 143.888 87.9852 143.72 87.9673 143.493C87.9494 143.265 88.1164 143.062 88.349 143.044L91.4862 142.787C91.7129 142.769 91.9157 142.936 91.9336 143.164C91.9455 143.397 91.7785 143.594 91.5518 143.612ZM85.2536 144.133L82.0806 144.396C81.848 144.414 81.6452 144.247 81.6273 144.013C81.6094 143.786 81.7823 143.582 82.015 143.564L85.188 143.307C85.4206 143.289 85.6234 143.457 85.6412 143.69C85.6591 143.911 85.4862 144.115 85.2536 144.133ZM78.8837 144.653L75.669 144.917C75.4363 144.935 75.2276 144.767 75.2097 144.534C75.1918 144.3 75.3648 144.103 75.6034 144.079L78.8181 143.816C79.0507 143.798 79.2535 143.965 79.2714 144.199C79.2952 144.432 79.1223 144.635 78.8837 144.653ZM72.4423 145.186L69.1917 145.455C68.9532 145.473 68.7444 145.3 68.7265 145.072C68.7086 144.839 68.8876 144.635 69.1261 144.617L72.3767 144.354C72.6152 144.336 72.818 144.51 72.8359 144.737C72.8538 144.965 72.6749 145.162 72.4423 145.186ZM65.9174 145.718L62.6251 145.988C62.3865 146.006 62.1718 145.832 62.1539 145.599C62.136 145.365 62.3149 145.162 62.5595 145.138L65.8517 144.869C66.0903 144.851 66.2991 145.024 66.317 145.258C66.3349 145.497 66.1559 145.7 65.9174 145.718ZM59.3149 146.263L55.9809 146.538C55.7363 146.556 55.5276 146.383 55.5097 146.149C55.4918 145.916 55.6767 145.706 55.9153 145.688L59.2493 145.419C59.4938 145.401 59.7026 145.575 59.7205 145.808C59.7324 146.035 59.5535 146.239 59.3149 146.263ZM52.6289 146.807L49.2531 147.083C49.0086 147.1 48.7939 146.927 48.776 146.688C48.7581 146.448 48.943 146.245 49.1875 146.221L52.5633 145.946C52.8079 145.928 53.0226 146.101 53.0405 146.335C53.0584 146.58 52.8735 146.789 52.6289 146.807ZM45.8595 147.268C45.8296 147.268 45.7998 147.268 45.77 147.268C44.5414 147.13 43.3783 146.592 42.5016 145.742C42.3286 145.575 42.3286 145.3 42.5075 145.132C42.6865 144.965 42.9728 144.965 43.1457 145.132C43.8793 145.838 44.8515 146.293 45.8833 146.412C46.1279 146.442 46.3008 146.652 46.271 146.891C46.2471 147.095 46.0682 147.25 45.8595 147.268ZM100.152 141.123C100.063 141.129 99.9734 141.111 99.8959 141.058C99.705 140.932 99.6573 140.681 99.7826 140.489C100.307 139.693 100.54 138.76 100.462 137.803C100.445 137.575 100.612 137.384 100.832 137.366C101.053 137.348 101.25 137.516 101.274 137.743C101.369 138.886 101.089 139.993 100.468 140.944C100.391 141.046 100.278 141.111 100.152 141.123ZM41.422 142.96C41.1775 142.978 40.9568 142.823 40.933 142.589C40.927 142.523 40.9151 142.47 40.9091 142.404L40.6765 139.316C40.6586 139.077 40.8077 138.868 41.0582 138.85C41.3087 138.832 41.4876 139.005 41.5055 139.245L41.7381 142.332C41.7441 142.386 41.7918 142.434 41.7978 142.488C41.8216 142.727 41.6666 142.942 41.4161 142.96C41.4101 142.96 41.428 142.96 41.422 142.96ZM100.814 136.624C100.588 136.642 100.468 136.474 100.451 136.247L100.188 133.16C100.17 132.933 100.26 132.741 100.48 132.723C100.701 132.705 100.826 132.873 100.844 133.1L101.107 136.181C101.125 136.409 101.035 136.606 100.814 136.624ZM40.8793 136.451C40.6288 136.469 40.4499 136.295 40.432 136.056L40.1874 132.801C40.1695 132.562 40.3186 132.358 40.5691 132.34C40.8196 132.322 40.9986 132.502 41.0165 132.735L41.261 135.99C41.2729 136.223 41.1238 136.433 40.8793 136.451ZM100.29 130.455C100.069 130.473 99.9436 130.3 99.9257 130.079L99.6633 126.997C99.6454 126.776 99.7349 126.578 99.9555 126.566C100.176 126.555 100.301 126.722 100.319 126.943L100.582 130.019C100.6 130.246 100.51 130.444 100.29 130.455ZM40.3902 129.947C40.1397 129.965 39.9608 129.785 39.9429 129.552L39.6984 126.303C39.6805 126.064 39.8296 125.86 40.0801 125.843C40.3306 125.825 40.5095 126.004 40.5274 126.243L40.7719 129.492C40.7898 129.72 40.6407 129.929 40.3902 129.947ZM99.7647 124.305C99.544 124.317 99.4187 124.149 99.4008 123.928L99.1384 120.853C99.1205 120.631 99.21 120.434 99.4307 120.422C99.6513 120.41 99.7766 120.577 99.7945 120.805L100.057 123.874C100.081 124.095 99.9913 124.293 99.7647 124.305ZM39.9071 123.449C39.6566 123.467 39.4777 123.288 39.4598 123.048L39.2153 119.806C39.1974 119.572 39.3465 119.363 39.597 119.351C39.8475 119.339 40.0264 119.518 40.0443 119.752L40.2888 122.989C40.3008 123.228 40.1516 123.437 39.9071 123.449ZM99.2458 118.166C99.0251 118.178 98.8998 118.011 98.882 117.783L98.6195 114.72C98.6016 114.499 98.6911 114.307 98.9118 114.295C99.1325 114.283 99.2577 114.457 99.2756 114.678L99.538 117.741C99.5619 117.963 99.4724 118.154 99.2458 118.166ZM39.418 116.97C39.1675 116.982 38.9886 116.802 38.9707 116.569L38.7262 113.332C38.7083 113.099 38.8574 112.895 39.1079 112.883C39.3584 112.871 39.5373 113.051 39.5493 113.284L39.7938 116.515C39.8176 116.754 39.6685 116.958 39.418 116.97ZM98.7269 112.04C98.5062 112.051 98.381 111.878 98.3631 111.657L98.1066 108.599C98.0887 108.378 98.1782 108.186 98.3988 108.174C98.6195 108.162 98.7448 108.336 98.7627 108.557L99.0191 111.615C99.043 111.836 98.9535 112.028 98.7269 112.04ZM38.9349 110.502C38.6844 110.514 38.5055 110.334 38.4876 110.095L38.249 106.864C38.2311 106.631 38.3803 106.427 38.6308 106.415C38.8813 106.403 39.0542 106.583 39.0721 106.822L39.3107 110.047C39.3345 110.292 39.1854 110.49 38.9349 110.502ZM98.208 105.925C97.9873 105.937 97.8621 105.763 97.8442 105.542L97.5877 102.49C97.5698 102.269 97.6593 102.084 97.88 102.072C98.1006 102.06 98.2259 102.233 98.2438 102.461L98.5002 105.512C98.5241 105.727 98.4346 105.913 98.208 105.925ZM38.4518 104.052C38.2013 104.064 38.0224 103.879 38.0105 103.645L37.8315 101.222C37.8077 100.935 37.8196 100.642 37.8494 100.355C37.8733 100.121 38.0999 99.9596 38.3445 99.9836C38.595 100.013 38.7321 100.223 38.7083 100.456C38.6844 100.696 38.6367 100.941 38.6546 101.186L38.8335 103.609C38.8514 103.843 38.7023 104.04 38.4518 104.052ZM97.6891 99.822C97.4684 99.834 97.3432 99.6545 97.3253 99.4331L97.2776 98.8408C97.212 98.0869 96.8899 97.357 96.4485 96.7288C96.3173 96.5433 96.3292 96.292 96.5141 96.1723C96.699 96.0527 96.9197 96.1065 97.0509 96.292C97.5758 97.0399 97.8621 97.9134 97.9396 98.8109L97.9873 99.4032C98.0052 99.6246 97.9157 99.8101 97.6891 99.822ZM39.7282 97.9972C39.6089 98.0032 39.4836 97.9613 39.3882 97.8715C39.2093 97.704 39.2033 97.4348 39.3703 97.2732C40.2292 96.4476 41.3743 95.927 42.597 95.8014C42.8415 95.7775 43.0682 95.945 43.104 96.1723C43.1398 96.4057 42.9728 96.6151 42.7282 96.639C41.7024 96.7467 40.7421 97.1835 40.0264 97.8775C39.9429 97.9553 39.8355 97.9912 39.7282 97.9972ZM94.2895 95.0715C94.2417 95.0715 94.1881 95.0655 94.1404 95.0475C93.6394 94.88 93.1264 94.8022 92.6016 94.8261L91.2178 94.874C90.9912 94.88 90.7944 94.7065 90.7765 94.4851C90.7586 94.2637 90.9256 94.0723 91.1522 94.0663L92.536 94.0184C93.1622 93.9945 93.7765 94.0842 94.373 94.2877C94.5877 94.3595 94.7129 94.5868 94.6473 94.8022C94.5936 94.9638 94.4505 95.0655 94.2895 95.0715ZM88.1105 94.9877L84.9911 95.1014C84.7645 95.1073 84.5617 94.9338 84.5438 94.7125C84.5259 94.4911 84.6929 94.2996 84.9255 94.2936L88.0448 94.1859C88.2715 94.18 88.4683 94.3535 88.4862 94.5749C88.5101 94.7962 88.3371 94.9817 88.1105 94.9877ZM81.8539 95.215L78.6988 95.3287C78.4662 95.3347 78.2634 95.1612 78.2455 94.9338C78.2276 94.7065 78.4006 94.521 78.6272 94.509L81.7823 94.3954C82.009 94.3894 82.2118 94.5629 82.2297 94.7902C82.2535 95.0176 82.0806 95.2091 81.8539 95.215ZM75.5198 95.4424L72.323 95.5561C72.0904 95.5621 71.8876 95.3886 71.8697 95.1612C71.8518 94.9338 72.0248 94.7424 72.2574 94.7364L75.4542 94.6227C75.6869 94.6167 75.8896 94.7902 75.9075 95.0176C75.9254 95.245 75.7525 95.4364 75.5198 95.4424ZM69.1082 95.6757L65.8756 95.7894C65.637 95.7954 65.4343 95.6219 65.4164 95.3886C65.3985 95.1612 65.5774 94.9697 65.81 94.9578L69.0426 94.8441C69.2752 94.8381 69.484 95.0116 69.5019 95.239C69.5198 95.4723 69.3468 95.6638 69.1082 95.6757ZM62.6251 95.9091L59.3507 96.0287C59.1121 96.0347 58.9034 95.8552 58.8855 95.6279C58.8676 95.4005 59.0465 95.2031 59.2851 95.1971L62.5595 95.0834C62.798 95.0774 63.0068 95.2509 63.0247 95.4843C63.0366 95.7057 62.8636 95.9031 62.6251 95.9091ZM56.0584 96.1484L52.7482 96.2681C52.5037 96.2741 52.2949 96.0946 52.277 95.8672C52.2591 95.6339 52.444 95.4424 52.6826 95.4304L55.9928 95.3108C56.2314 95.3048 56.4401 95.4843 56.458 95.7116C56.4819 95.945 56.297 96.1364 56.0584 96.1484ZM49.4142 96.3877L46.0623 96.5074C45.8177 96.5134 45.603 96.3339 45.5851 96.1005C45.5672 95.8672 45.7521 95.6698 45.9966 95.6638L49.3486 95.5441C49.5931 95.5381 49.8019 95.7176 49.8198 95.951C49.8376 96.1843 49.6587 96.3758 49.4142 96.3877Z" fill="white"/>
</g>
<path d="M103.236 107.594C102.884 107.379 102.46 107.343 102.091 107.504L90.323 112.554C88.6351 113.284 87.484 115.001 87.6331 116.844L88.0387 121.744C88.1997 123.707 89.7862 125.346 91.7246 125.777L103.904 128.451C104.291 128.535 104.703 128.433 105.001 128.176C105.293 127.919 105.466 127.536 105.431 127.141L103.838 108.581C103.802 108.187 103.588 107.81 103.236 107.594Z" fill="url(#paint53_linear_2_7539)"/>
<path d="M95.4647 118.741C95.578 120.099 94.57 121.265 93.2042 121.349C91.8384 121.433 90.6336 120.398 90.5203 119.034C90.407 117.67 91.4269 116.503 92.7927 116.425C94.1525 116.353 95.3454 117.388 95.4647 118.741Z" fill="url(#paint54_linear_2_7539)"/>
</g>
<defs>
<linearGradient id="paint0_linear_2_7539" x1="18.9211" y1="74.6057" x2="44.0212" y2="268.317" gradientUnits="userSpaceOnUse">
<stop stop-color="#FF9085"/>
<stop offset="1" stop-color="#FB6FBB"/>
</linearGradient>
<linearGradient id="paint1_linear_2_7539" x1="0.842473" y1="116.089" x2="94.3764" y2="200.329" gradientUnits="userSpaceOnUse">
<stop stop-color="#E7472C"/>
<stop offset="0.9964" stop-color="#FF6634"/>
</linearGradient>
<linearGradient id="paint2_linear_2_7539" x1="137.991" y1="154.784" x2="144.775" y2="155.098" gradientUnits="userSpaceOnUse">
<stop stop-color="#FF4400"/>
<stop offset="0.9964" stop-color="#26264F"/>
</linearGradient>
<linearGradient id="paint3_linear_2_7539" x1="143.641" y1="146.889" x2="139.926" y2="152.974" gradientUnits="userSpaceOnUse">
<stop stop-color="#FFC444"/>
<stop offset="0.9964" stop-color="#F36F56"/>
</linearGradient>
<linearGradient id="paint4_linear_2_7539" x1="130.589" y1="153.578" x2="145.103" y2="101.662" gradientUnits="userSpaceOnUse">
<stop stop-color="#FF4400"/>
<stop offset="0.9964" stop-color="#FF2500"/>
</linearGradient>
<linearGradient id="paint5_linear_2_7539" x1="145.048" y1="157.539" x2="154.395" y2="157.539" gradientUnits="userSpaceOnUse">
<stop stop-color="#FF4400"/>
<stop offset="0.9964" stop-color="#FF2500"/>
</linearGradient>
<linearGradient id="paint6_linear_2_7539" x1="150.135" y1="157.063" x2="153.756" y2="149.593" gradientUnits="userSpaceOnUse">
<stop stop-color="#FFC444"/>
<stop offset="0.9964" stop-color="#F36F56"/>
</linearGradient>
<linearGradient id="paint7_linear_2_7539" x1="130.753" y1="153.624" x2="145.267" y2="101.708" gradientUnits="userSpaceOnUse">
<stop stop-color="#FF4400"/>
<stop offset="0.9964" stop-color="#FF6634"/>
</linearGradient>
<linearGradient id="paint8_linear_2_7539" x1="144.623" y1="130.884" x2="165.938" y2="97.3872" gradientUnits="userSpaceOnUse">
<stop stop-color="#651B00"/>
<stop offset="0.9964" stop-color="#FF2500"/>
</linearGradient>
<linearGradient id="paint9_linear_2_7539" x1="128.683" y1="57.4952" x2="135.617" y2="82.0142" gradientUnits="userSpaceOnUse">
<stop stop-color="#FF4400"/>
<stop offset="1" stop-color="#802200"/>
</linearGradient>
<linearGradient id="paint10_linear_2_7539" x1="140.59" y1="54.1785" x2="154.211" y2="102.338" gradientUnits="userSpaceOnUse">
<stop stop-color="#FF6634"/>
<stop offset="1" stop-color="#893976"/>
</linearGradient>
<linearGradient id="paint11_linear_2_7539" x1="147.356" y1="132.624" x2="168.672" y2="99.1267" gradientUnits="userSpaceOnUse">
<stop stop-color="#FFCFBB"/>
<stop offset="0.9964" stop-color="#FF2500"/>
</linearGradient>
<linearGradient id="paint12_linear_2_7539" x1="132.805" y1="49.7186" x2="146.426" y2="97.8789" gradientUnits="userSpaceOnUse">
<stop stop-color="#FF4400"/>
<stop offset="1" stop-color="#FF6634"/>
</linearGradient>
<linearGradient id="paint13_linear_2_7539" x1="145.339" y1="63.7586" x2="140.323" y2="53.3484" gradientUnits="userSpaceOnUse">
<stop stop-color="#FFC444"/>
<stop offset="0.9964" stop-color="#F36F56"/>
</linearGradient>
<linearGradient id="paint14_linear_2_7539" x1="142.275" y1="47.2006" x2="142.835" y2="56.2117" gradientUnits="userSpaceOnUse">
<stop stop-color="#FF6634"/>
<stop offset="0.9964" stop-color="#FF4400"/>
</linearGradient>
<linearGradient id="paint15_linear_2_7539" x1="142.214" y1="53.7935" x2="139.523" y2="73.8445" gradientUnits="userSpaceOnUse">
<stop stop-color="#FFC444"/>
<stop offset="0.9964" stop-color="#F36F56"/>
</linearGradient>
<linearGradient id="paint16_linear_2_7539" x1="139.806" y1="55.9026" x2="139.877" y2="58.4514" gradientUnits="userSpaceOnUse">
<stop stop-color="#FFC444"/>
<stop offset="1" stop-color="#F36F56"/>
</linearGradient>
<linearGradient id="paint17_linear_2_7539" x1="134.267" y1="49.3051" x2="147.888" y2="97.4655" gradientUnits="userSpaceOnUse">
<stop stop-color="#FF4400"/>
<stop offset="1" stop-color="#893976"/>
</linearGradient>
<linearGradient id="paint18_linear_2_7539" x1="154.409" y1="52.0737" x2="151.972" y2="88.6805" gradientUnits="userSpaceOnUse">
<stop stop-color="#FF4400"/>
<stop offset="1" stop-color="#A61800"/>
</linearGradient>
<linearGradient id="paint19_linear_2_7539" x1="135.778" y1="83.2753" x2="136.086" y2="75.0936" gradientUnits="userSpaceOnUse">
<stop stop-color="#FFC444"/>
<stop offset="0.9964" stop-color="#F36F56"/>
</linearGradient>
<linearGradient id="paint20_linear_2_7539" x1="139.888" y1="87.6936" x2="140.149" y2="80.7473" gradientUnits="userSpaceOnUse">
<stop stop-color="#FFC444"/>
<stop offset="0.9964" stop-color="#F36F56"/>
</linearGradient>
<linearGradient id="paint21_linear_2_7539" x1="14.1068" y1="80.002" x2="110.981" y2="81.9241" gradientUnits="userSpaceOnUse">
<stop stop-color="#FF4400"/>
<stop offset="0.9964" stop-color="#FF4B01"/>
</linearGradient>
<linearGradient id="paint22_linear_2_7539" x1="40.8767" y1="51.8145" x2="148.215" y2="96.9669" gradientUnits="userSpaceOnUse">
<stop stop-color="#FF4400"/>
<stop offset="0.9964" stop-color="#FF6634"/>
</linearGradient>
<linearGradient id="paint23_linear_2_7539" x1="26.1033" y1="78.5712" x2="154.425" y2="132.55" gradientUnits="userSpaceOnUse">
<stop stop-color="#FFCFBB"/>
<stop offset="0.9964" stop-color="#E7472C"/>
</linearGradient>
<linearGradient id="paint24_linear_2_7539" x1="13.9013" y1="84.1649" x2="148.966" y2="140.981" gradientUnits="userSpaceOnUse">
<stop stop-color="#F76733"/>
<stop offset="0.9964" stop-color="#F3CE00"/>
</linearGradient>
<linearGradient id="paint25_linear_2_7539" x1="45.2039" y1="9.8467" x2="179.614" y2="66.3865" gradientUnits="userSpaceOnUse">
<stop stop-color="#FF4400"/>
<stop offset="0.9964" stop-color="#FF6634"/>
</linearGradient>
<linearGradient id="paint26_linear_2_7539" x1="37.8978" y1="17.4818" x2="166.909" y2="71.7509" gradientUnits="userSpaceOnUse">
<stop stop-color="#FF4400"/>
<stop offset="0.9964" stop-color="#FF2500"/>
</linearGradient>
<linearGradient id="paint27_linear_2_7539" x1="74.4909" y1="66.0277" x2="95.7183" y2="74.957" gradientUnits="userSpaceOnUse">
<stop stop-color="#FF4400"/>
<stop offset="0.9964" stop-color="#F98435"/>
</linearGradient>
<linearGradient id="paint28_linear_2_7539" x1="61.1499" y1="103.284" x2="112.923" y2="40.978" gradientUnits="userSpaceOnUse">
<stop stop-color="#FF4B01"/>
<stop offset="0.9964" stop-color="#F98435"/>
</linearGradient>
<linearGradient id="paint29_linear_2_7539" x1="88.6413" y1="44.3" x2="61.4669" y2="114.161" gradientUnits="userSpaceOnUse">
<stop stop-color="#FF4400"/>
<stop offset="1" stop-color="#BE1B00"/>
</linearGradient>
<linearGradient id="paint30_linear_2_7539" x1="59.0807" y1="105.597" x2="91.8341" y2="5.58066" gradientUnits="userSpaceOnUse">
<stop offset="0.00359712" stop-color="#FF4400"/>
<stop offset="1" stop-color="#972901"/>
</linearGradient>
<linearGradient id="paint31_linear_2_7539" x1="44.7232" y1="107.312" x2="73.247" y2="80.5924" gradientUnits="userSpaceOnUse">
<stop stop-color="#F57E53"/>
<stop offset="0.00453714" stop-color="#F58152"/>
<stop offset="0.0419817" stop-color="#F99A4D"/>
<stop offset="0.0840169" stop-color="#FCAD49"/>
<stop offset="0.1333" stop-color="#FEBA46"/>
<stop offset="0.1962" stop-color="#FFC244"/>
<stop offset="0.3183" stop-color="#FFC444"/>
<stop offset="0.455" stop-color="#FDB946"/>
<stop offset="0.6941" stop-color="#F99C4C"/>
<stop offset="0.9964" stop-color="#F36F56"/>
</linearGradient>
<linearGradient id="paint32_linear_2_7539" x1="56.8682" y1="99.1668" x2="58.8449" y2="92.2737" gradientUnits="userSpaceOnUse">
<stop stop-color="#FF9085"/>
<stop offset="1" stop-color="#FB6FBB"/>
</linearGradient>
<linearGradient id="paint33_linear_2_7539" x1="55.5801" y1="98.2683" x2="57.3749" y2="92.0098" gradientUnits="userSpaceOnUse">
<stop stop-color="#FF9085"/>
<stop offset="1" stop-color="#FB6FBB"/>
</linearGradient>
<linearGradient id="paint34_linear_2_7539" x1="57.0208" y1="98.8658" x2="58.8165" y2="92.6041" gradientUnits="userSpaceOnUse">
<stop stop-color="#FF9085"/>
<stop offset="1" stop-color="#FB6FBB"/>
</linearGradient>
<linearGradient id="paint35_linear_2_7539" x1="58.4628" y1="99.4639" x2="60.2593" y2="93.1989" gradientUnits="userSpaceOnUse">
<stop stop-color="#FF9085"/>
<stop offset="1" stop-color="#FB6FBB"/>
</linearGradient>
<linearGradient id="paint36_linear_2_7539" x1="57.4495" y1="97.7311" x2="58.5802" y2="93.7881" gradientUnits="userSpaceOnUse">
<stop stop-color="#FF9085"/>
<stop offset="1" stop-color="#FB6FBB"/>
</linearGradient>
<linearGradient id="paint37_linear_2_7539" x1="71.6303" y1="109.823" x2="103.384" y2="12.8601" gradientUnits="userSpaceOnUse">
<stop stop-color="#FB6FBB"/>
<stop offset="1" stop-color="#FF9085"/>
</linearGradient>
<linearGradient id="paint38_linear_2_7539" x1="74.8932" y1="107.032" x2="78.8557" y2="93.2144" gradientUnits="userSpaceOnUse">
<stop stop-color="#FB6FBB"/>
<stop offset="1" stop-color="#FF9085"/>
</linearGradient>
<linearGradient id="paint39_linear_2_7539" x1="47.9517" y1="85.3127" x2="26.8435" y2="92.0657" gradientUnits="userSpaceOnUse">
<stop stop-color="#FCB148"/>
<stop offset="0.0520724" stop-color="#FDBA46"/>
<stop offset="0.1424" stop-color="#FFC244"/>
<stop offset="0.3183" stop-color="#FFC444"/>
<stop offset="0.4849" stop-color="#FDB946"/>
<stop offset="0.7754" stop-color="#F99C4D"/>
<stop offset="0.8658" stop-color="#F8924F"/>
<stop offset="1" stop-color="#F8924F"/>
</linearGradient>
<linearGradient id="paint40_linear_2_7539" x1="65.0168" y1="64.2478" x2="46.0852" y2="105.883" gradientUnits="userSpaceOnUse">
<stop stop-color="#FFDB44"/>
<stop offset="1" stop-color="#FEEF06"/>
</linearGradient>
<linearGradient id="paint41_linear_2_7539" x1="61.5526" y1="108.258" x2="57.8965" y2="88.3473" gradientUnits="userSpaceOnUse">
<stop stop-color="#FCB148"/>
<stop offset="0.0520724" stop-color="#FDBA46"/>
<stop offset="0.1424" stop-color="#FFC244"/>
<stop offset="0.3183" stop-color="#FFC444"/>
<stop offset="0.4849" stop-color="#FDB946"/>
<stop offset="0.7754" stop-color="#F99C4D"/>
<stop offset="0.8658" stop-color="#F8924F"/>
<stop offset="1" stop-color="#F8924F"/>
</linearGradient>
<linearGradient id="paint42_linear_2_7539" x1="53.8482" y1="76.0239" x2="68.9012" y2="107.878" gradientUnits="userSpaceOnUse">
<stop stop-color="#FCB148"/>
<stop offset="0.0520724" stop-color="#FDBA46"/>
<stop offset="0.1424" stop-color="#FFC244"/>
<stop offset="0.3183" stop-color="#FFC444"/>
<stop offset="0.4849" stop-color="#FDB946"/>
<stop offset="0.7754" stop-color="#F99C4D"/>
<stop offset="0.8658" stop-color="#F8924F"/>
<stop offset="1" stop-color="#F8924F"/>
</linearGradient>
<linearGradient id="paint43_linear_2_7539" x1="53.2514" y1="69.1615" x2="60.8261" y2="97.4608" gradientUnits="userSpaceOnUse">
<stop stop-color="#FFDB44"/>
<stop offset="1" stop-color="#FEEF06"/>
</linearGradient>
<linearGradient id="paint44_linear_2_7539" x1="49.4424" y1="78.0877" x2="64.465" y2="109.878" gradientUnits="userSpaceOnUse">
<stop stop-color="#FCB148"/>
<stop offset="0.0520724" stop-color="#FDBA46"/>
<stop offset="0.1424" stop-color="#FFC244"/>
<stop offset="0.3183" stop-color="#FFC444"/>
<stop offset="0.4849" stop-color="#FDB946"/>
<stop offset="0.7754" stop-color="#F99C4D"/>
<stop offset="0.8658" stop-color="#F8924F"/>
<stop offset="1" stop-color="#F8924F"/>
</linearGradient>
<linearGradient id="paint45_linear_2_7539" x1="46.5552" y1="45.9279" x2="32.3386" y2="50.4761" gradientUnits="userSpaceOnUse">
<stop stop-color="#FCB148"/>
<stop offset="0.0520724" stop-color="#FDBA46"/>
<stop offset="0.1424" stop-color="#FFC244"/>
<stop offset="0.3183" stop-color="#FFC444"/>
<stop offset="0.4849" stop-color="#FDB946"/>
<stop offset="0.7754" stop-color="#F99C4D"/>
<stop offset="0.8658" stop-color="#F8924F"/>
<stop offset="1" stop-color="#F8924F"/>
</linearGradient>
<linearGradient id="paint46_linear_2_7539" x1="58.0488" y1="31.7404" x2="45.2981" y2="59.7824" gradientUnits="userSpaceOnUse">
<stop stop-color="#FFDB44"/>
<stop offset="1" stop-color="#FEEF06"/>
</linearGradient>
<linearGradient id="paint47_linear_2_7539" x1="55.7158" y1="61.3815" x2="53.2533" y2="47.9717" gradientUnits="userSpaceOnUse">
<stop stop-color="#FCB148"/>
<stop offset="0.0520724" stop-color="#FDBA46"/>
<stop offset="0.1424" stop-color="#FFC244"/>
<stop offset="0.3183" stop-color="#FFC444"/>
<stop offset="0.4849" stop-color="#FDB946"/>
<stop offset="0.7754" stop-color="#F99C4D"/>
<stop offset="0.8658" stop-color="#F8924F"/>
<stop offset="1" stop-color="#F8924F"/>
</linearGradient>
<linearGradient id="paint48_linear_2_7539" x1="50.5266" y1="39.6719" x2="60.6649" y2="61.1261" gradientUnits="userSpaceOnUse">
<stop stop-color="#FCB148"/>
<stop offset="0.0520724" stop-color="#FDBA46"/>
<stop offset="0.1424" stop-color="#FFC244"/>
<stop offset="0.3183" stop-color="#FFC444"/>
<stop offset="0.4849" stop-color="#FDB946"/>
<stop offset="0.7754" stop-color="#F99C4D"/>
<stop offset="0.8658" stop-color="#F8924F"/>
<stop offset="1" stop-color="#F8924F"/>
</linearGradient>
<linearGradient id="paint49_linear_2_7539" x1="50.1245" y1="35.0499" x2="55.2261" y2="54.1098" gradientUnits="userSpaceOnUse">
<stop stop-color="#FFDB44"/>
<stop offset="1" stop-color="#FEEF06"/>
</linearGradient>
<linearGradient id="paint50_linear_2_7539" x1="47.5592" y1="41.062" x2="57.6771" y2="62.4729" gradientUnits="userSpaceOnUse">
<stop stop-color="#FCB148"/>
<stop offset="0.0520724" stop-color="#FDBA46"/>
<stop offset="0.1424" stop-color="#FFC244"/>
<stop offset="0.3183" stop-color="#FFC444"/>
<stop offset="0.4849" stop-color="#FDB946"/>
<stop offset="0.7754" stop-color="#F99C4D"/>
<stop offset="0.8658" stop-color="#F8924F"/>
<stop offset="1" stop-color="#F8924F"/>
</linearGradient>
<linearGradient id="paint51_linear_2_7539" x1="79.7758" y1="32.3331" x2="61.1509" y2="195.968" gradientUnits="userSpaceOnUse">
<stop stop-color="#FF4400"/>
<stop offset="1" stop-color="#EE5523"/>
</linearGradient>
<linearGradient id="paint52_linear_2_7539" x1="262.943" y1="46.1129" x2="-0.470462" y2="145.202" gradientUnits="userSpaceOnUse">
<stop stop-color="#FF4400"/>
<stop offset="1" stop-color="#711506"/>
</linearGradient>
<linearGradient id="paint53_linear_2_7539" x1="160.852" y1="96.1928" x2="77.8486" y2="127.416" gradientUnits="userSpaceOnUse">
<stop stop-color="#FF4400"/>
<stop offset="1" stop-color="#7A1707"/>
</linearGradient>
<linearGradient id="paint54_linear_2_7539" x1="108.824" y1="112.895" x2="87.9989" y2="120.729" gradientUnits="userSpaceOnUse">
<stop stop-color="#FFC444"/>
<stop offset="0.9964" stop-color="#F36F56"/>
</linearGradient>
<clipPath id="clip0_2_7539">
<rect width="167" height="160" fill="white"/>
</clipPath>
</defs>
</svg>
