<svg width="18" height="18" viewBox="0 0 18 18" fill="none" xmlns="http://www.w3.org/2000/svg">
<path d="M1.5 10.3846C1.5 10.2009 1.42098 10.0248 1.28033 9.89501C1.13968 9.76518 0.948912 9.69224 0.75 9.69224C0.551088 9.69224 0.360322 9.76518 0.21967 9.89501C0.0790178 10.0248 0 10.2009 0 10.3846H1.5ZM18 10.3846C18 10.2009 17.921 10.0248 17.7803 9.89501C17.6397 9.76518 17.4489 9.69224 17.25 9.69224C17.0511 9.69224 16.8603 9.76518 16.7197 9.89501C16.579 10.0248 16.5 10.2009 16.5 10.3846H18ZM8.25 12.4615C8.25 12.6451 8.32902 12.8212 8.46967 12.951C8.61032 13.0809 8.80109 13.1538 9 13.1538C9.19891 13.1538 9.38968 13.0809 9.53033 12.951C9.67098 12.8212 9.75 12.6451 9.75 12.4615H8.25ZM9.75 1.03832C9.75 0.854709 9.67098 0.678617 9.53033 0.548783C9.38968 0.418949 9.19891 0.346009 9 0.346009C8.80109 0.346009 8.61032 0.418949 8.46967 0.548783C8.32902 0.678617 8.25 0.854709 8.25 1.03832H9.75ZM9 0.692165L9.53025 0.2027C9.3896 0.0729112 9.19887 0 9 0C8.80113 0 8.6104 0.0729112 8.46975 0.2027L9 0.692165ZM12.9697 5.33551C13.1112 5.46162 13.3007 5.5314 13.4973 5.52983C13.6939 5.52825 13.8821 5.45544 14.0211 5.32708C14.1602 5.19872 14.239 5.02508 14.2408 4.84355C14.2425 4.66203 14.1669 4.48715 14.0303 4.35658L12.9697 5.33551ZM3.96975 4.35658C3.83313 4.48715 3.75754 4.66203 3.75924 4.84355C3.76095 5.02508 3.83983 5.19872 3.97889 5.32708C4.11794 5.45544 4.30605 5.52825 4.5027 5.52983C4.69935 5.5314 4.8888 5.46162 5.03025 5.33551L3.96975 4.35658ZM0 10.3846V15.9231H1.5V10.3846H0ZM2.25 18H15.75V16.6154H2.25V18ZM18 15.9231V10.3846H16.5V15.9231H18ZM15.75 18C16.3467 18 16.919 17.7812 17.341 17.3917C17.7629 17.0022 18 16.4739 18 15.9231H16.5C16.5 16.1067 16.421 16.2828 16.2803 16.4126C16.1397 16.5424 15.9489 16.6154 15.75 16.6154V18ZM0 15.9231C0 16.4739 0.237053 17.0022 0.65901 17.3917C1.08097 17.7812 1.65326 18 2.25 18V16.6154C2.05109 16.6154 1.86032 16.5424 1.71967 16.4126C1.57902 16.2828 1.5 16.1067 1.5 15.9231H0ZM9.75 12.4615V1.03832H8.25V12.4615H9.75ZM8.46975 1.18163L12.9697 5.33551L14.0303 4.35658L9.53025 0.2027L8.46975 1.18163ZM8.46975 0.2027L3.96975 4.35658L5.03025 5.33551L9.53025 1.18163L8.46975 0.2027Z" fill="black"/>
</svg>
