<svg width="81" height="46" viewBox="0 0 81 46" fill="none" xmlns="http://www.w3.org/2000/svg">
<path d="M61.6705 46L55.174 38.7302H49.7887C45.5507 38.7302 42.1022 35.3184 42.1022 31.1253H45.9616C45.9616 33.2129 47.6787 34.9118 49.7887 34.9118H56.914L61.4555 39.9942L65.3882 34.9118H73.3125C75.4225 34.9118 77.1396 33.2129 77.1396 31.1253V7.60486C77.1396 5.51729 75.4225 3.81843 73.3125 3.81843H49.7887C47.6787 3.81843 45.9616 5.51729 45.9616 7.60486H42.1022C42.1022 3.41183 45.5507 0 49.7887 0H73.3135C77.5515 0 81 3.41183 81 7.60486V31.1253C81 35.3184 77.5515 38.7302 73.3135 38.7302H67.2946L61.6705 46Z" fill="#FF4400"/>
<path d="M0 10.6294H4.82486L6.56406 20.3269L9.09992 10.6294H13.9136L16.4606 20.3269L18.1998 10.6294H23.0023L19.378 27.9879H14.396L11.5123 17.0589L8.63987 27.9879H3.65792L0 10.6294Z" fill="#FF4400"/>
<path d="M34.7951 25.1224H29.0053L28.2086 27.9879H23.0135L29.196 10.6294H34.739L40.9216 27.9879H35.603L34.7951 25.1224ZM33.7292 21.3689L31.9114 15.1288L30.1049 21.3689H33.7292Z" fill="#FF4400"/>
<path d="M38.9467 10.6294H44.5907L47.912 16.4905L51.2333 10.6294H56.8436L50.4479 20.7177V27.9879H45.3537V20.7177L38.9467 10.6294Z" fill="#FF4400"/>
<path d="M66.4372 25.1224H60.6474L59.8507 27.9879H54.6556L60.8382 10.6294H66.3811L72.5637 27.9879H67.2451L66.4372 25.1224ZM65.3713 21.3689L63.5536 15.1288L61.747 21.3689H65.3713Z" fill="#FF4400"/>
<path d="M3.95121 35.6305V30.073H6.42697C6.86273 30.073 7.19552 30.0907 7.42534 30.1261C7.74768 30.1716 8.01779 30.2588 8.23567 30.3877C8.45355 30.514 8.62815 30.6922 8.75947 30.9222C8.89378 31.1522 8.96094 31.4049 8.96094 31.6804C8.96094 32.153 8.78335 32.5535 8.42818 32.8821C8.073 33.2081 7.43131 33.3711 6.50308 33.3711H4.81974V35.6305H3.95121ZM4.81974 32.7153H6.51651C7.07763 32.7153 7.47608 32.6268 7.71186 32.4499C7.94765 32.273 8.06554 32.0241 8.06554 31.7031C8.06554 31.4706 7.9954 31.2722 7.85513 31.1079C7.71783 30.9411 7.53577 30.8312 7.30894 30.7781C7.16269 30.7453 6.89258 30.7288 6.4986 30.7288H4.81974V32.7153Z" fill="#FF4400"/>
<path d="M13.7081 35.1339C13.4097 35.3487 13.1217 35.5004 12.8441 35.5888C12.5695 35.6773 12.274 35.7215 11.9576 35.7215C11.4353 35.7215 11.0339 35.6141 10.7533 35.3993C10.4728 35.1819 10.3325 34.9052 10.3325 34.569C10.3325 34.3719 10.3847 34.1925 10.4892 34.0307C10.5966 33.8665 10.7354 33.7351 10.9056 33.6365C11.0787 33.5379 11.2727 33.4634 11.4876 33.4128C11.6457 33.3774 11.8845 33.3433 12.2039 33.3105C12.8545 33.2448 13.3336 33.1664 13.641 33.0754C13.644 32.9819 13.6455 32.9225 13.6455 32.8973C13.6455 32.6193 13.5694 32.4234 13.4171 32.3097C13.2112 32.1555 12.9053 32.0784 12.4994 32.0784C12.1203 32.0784 11.8397 32.1353 11.6577 32.249C11.4786 32.3602 11.3458 32.5586 11.2592 32.8442L10.4713 32.7532C10.5429 32.4676 10.6608 32.2376 10.825 32.0633C10.9891 31.8863 11.2264 31.7511 11.5368 31.6576C11.8472 31.5616 12.2069 31.5136 12.6158 31.5136C13.0217 31.5136 13.3515 31.554 13.6052 31.6349C13.8589 31.7158 14.0454 31.8181 14.1648 31.9419C14.2842 32.0633 14.3677 32.2174 14.4155 32.4044C14.4424 32.5207 14.4558 32.7305 14.4558 33.0337V33.9436C14.4558 34.5779 14.4722 34.9797 14.505 35.1491C14.5409 35.3159 14.6095 35.4763 14.711 35.6305H13.8693C13.7857 35.489 13.732 35.3234 13.7081 35.1339ZM13.641 33.61C13.3485 33.711 12.9097 33.797 12.3248 33.8677C11.9935 33.9082 11.7592 33.9537 11.6219 34.0042C11.4846 34.0548 11.3786 34.1293 11.304 34.2279C11.2294 34.3239 11.1921 34.4313 11.1921 34.5501C11.1921 34.7321 11.2727 34.8837 11.4338 35.005C11.598 35.1263 11.8368 35.187 12.1502 35.187C12.4606 35.187 12.7366 35.1301 12.9784 35.0164C13.2201 34.9001 13.3977 34.7422 13.5112 34.5425C13.5977 34.3884 13.641 34.1609 13.641 33.8601V33.61Z" fill="#FF4400"/>
<path d="M16.3153 37.181L16.2258 36.5403C16.4019 36.5808 16.5556 36.601 16.6869 36.601C16.866 36.601 17.0093 36.5757 17.1167 36.5252C17.2242 36.4746 17.3122 36.4039 17.3809 36.3129C17.4316 36.2446 17.5137 36.0753 17.6271 35.8049C17.642 35.767 17.6659 35.7114 17.6987 35.6381L15.8945 31.6046H16.763L17.7525 33.936C17.8808 34.2317 17.9957 34.5425 18.0972 34.8685C18.1897 34.5552 18.3001 34.2494 18.4285 33.9511L19.4447 31.6046H20.2506L18.4419 35.6987C18.2479 36.141 18.0972 36.4456 17.9897 36.6124C17.8465 36.8373 17.6823 37.0016 17.4973 37.1052C17.3122 37.2113 17.0914 37.2644 16.8347 37.2644C16.6795 37.2644 16.5064 37.2366 16.3153 37.181Z" fill="#FF4400"/>
<path d="M24.6799 34.1558L25.4724 34.243C25.3858 34.7055 25.1635 35.0682 24.8053 35.331C24.4501 35.5913 24.0129 35.7215 23.4935 35.7215C22.8429 35.7215 22.3191 35.5421 21.9221 35.1832C21.5282 34.8218 21.3312 34.305 21.3312 33.6327C21.3312 33.198 21.4162 32.8176 21.5863 32.4916C21.7565 32.1656 22.0146 31.9217 22.3609 31.76C22.7101 31.5957 23.0891 31.5136 23.498 31.5136C24.0144 31.5136 24.4367 31.6248 24.765 31.8472C25.0933 32.067 25.3037 32.3804 25.3963 32.7873L24.6128 32.8897C24.5382 32.6193 24.4053 32.4158 24.2143 32.2793C24.0263 32.1429 23.798 32.0746 23.5294 32.0746C23.1234 32.0746 22.7936 32.1985 22.5399 32.4461C22.2862 32.6913 22.1594 33.0805 22.1594 33.6137C22.1594 34.1546 22.2818 34.5476 22.5265 34.7927C22.7713 35.0379 23.0906 35.1604 23.4846 35.1604C23.801 35.1604 24.0651 35.0783 24.277 34.914C24.4889 34.7498 24.6232 34.497 24.6799 34.1558Z" fill="#FF4400"/>
<path d="M26.8036 35.6305V30.073H27.6095V32.067C27.9856 31.6981 28.4601 31.5136 29.0332 31.5136C29.3854 31.5136 29.6913 31.573 29.9509 31.6917C30.2106 31.808 30.3957 31.9697 30.5061 32.177C30.6195 32.3842 30.6762 32.685 30.6762 33.0792V35.6305H29.8704V33.0792C29.8704 32.738 29.7823 32.4904 29.6062 32.3362C29.4331 32.1795 29.1869 32.1012 28.8675 32.1012C28.6287 32.1012 28.4034 32.1542 28.1915 32.2604C27.9826 32.364 27.8333 32.5055 27.7438 32.685C27.6543 32.8644 27.6095 33.1121 27.6095 33.428V35.6305H26.8036Z" fill="#FF4400"/>
<path d="M35.6517 35.1339C35.3533 35.3487 35.0653 35.5004 34.7877 35.5888C34.5131 35.6773 34.2176 35.7215 33.9012 35.7215C33.3789 35.7215 32.9775 35.6141 32.6969 35.3993C32.4164 35.1819 32.2761 34.9052 32.2761 34.569C32.2761 34.3719 32.3283 34.1925 32.4328 34.0307C32.5402 33.8665 32.679 33.7351 32.8492 33.6365C33.0223 33.5379 33.2163 33.4634 33.4312 33.4128C33.5893 33.3774 33.8281 33.3433 34.1475 33.3105C34.7981 33.2448 35.2772 33.1664 35.5846 33.0754C35.5876 32.9819 35.5891 32.9225 35.5891 32.8973C35.5891 32.6193 35.513 32.4234 35.3607 32.3097C35.1548 32.1555 34.8489 32.0784 34.443 32.0784C34.0639 32.0784 33.7833 32.1353 33.6013 32.249C33.4222 32.3602 33.2894 32.5586 33.2028 32.8442L32.4149 32.7532C32.4865 32.4676 32.6044 32.2376 32.7686 32.0633C32.9327 31.8863 33.17 31.7511 33.4804 31.6576C33.7908 31.5616 34.1505 31.5136 34.5594 31.5136C34.9653 31.5136 35.2951 31.554 35.5488 31.6349C35.8025 31.7158 35.989 31.8181 36.1084 31.9419C36.2278 32.0633 36.3113 32.2174 36.3591 32.4044C36.386 32.5207 36.3994 32.7305 36.3994 33.0337V33.9436C36.3994 34.5779 36.4158 34.9797 36.4486 35.1491C36.4845 35.3159 36.5531 35.4763 36.6546 35.6305H35.8129C35.7293 35.489 35.6756 35.3234 35.6517 35.1339ZM35.5846 33.61C35.2921 33.711 34.8533 33.797 34.2684 33.8677C33.9371 33.9082 33.7028 33.9537 33.5655 34.0042C33.4282 34.0548 33.3222 34.1293 33.2476 34.2279C33.173 34.3239 33.1357 34.4313 33.1357 34.5501C33.1357 34.7321 33.2163 34.8837 33.3774 35.005C33.5416 35.1263 33.7804 35.187 34.0938 35.187C34.4042 35.187 34.6802 35.1301 34.922 35.0164C35.1637 34.9001 35.3413 34.7422 35.4548 34.5425C35.5413 34.3884 35.5846 34.1609 35.5846 33.8601V33.61Z" fill="#FF4400"/>
<path d="M40.0542 35.0202L40.1706 35.6229C39.9438 35.6634 39.7408 35.6836 39.5617 35.6836C39.2692 35.6836 39.0424 35.6444 38.8812 35.5661C38.7201 35.4877 38.6067 35.3854 38.541 35.259C38.4753 35.1301 38.4425 34.861 38.4425 34.4515V32.1353H37.8515V31.6046H38.4425V30.6075L39.2439 30.1981V31.6046H40.0542V32.1353H39.2439V34.4894C39.2439 34.684 39.2573 34.8091 39.2842 34.8647C39.314 34.9203 39.3603 34.9646 39.423 34.9974C39.4886 35.0303 39.5811 35.0467 39.7005 35.0467C39.7901 35.0467 39.908 35.0379 40.0542 35.0202Z" fill="#FF4400"/>
</svg>
